{"glyphs":{"0":{"ha":740,"x_min":51,"x_max":679,"o":"m 51 431 q 78 619 51 538 q 150 756 106 701 q 251 840 194 811 q 365 868 307 868 q 481 840 424 868 q 581 756 538 811 q 652 619 625 701 q 679 431 679 538 q 652 240 679 322 q 581 101 625 157 q 481 15 538 44 q 365 -14 424 -14 q 251 15 307 -14 q 150 101 194 44 q 78 240 106 157 q 51 431 51 322 m 592 394 q 569 572 592 494 q 512 701 547 649 q 431 780 476 753 q 339 807 386 807 q 253 780 292 807 q 189 708 215 753 q 148 606 163 664 q 133 483 133 547 q 151 328 133 407 q 203 187 169 250 q 283 83 236 124 q 385 43 329 43 q 463 66 425 43 q 528 133 500 89 q 574 243 557 178 q 592 394 592 308 z "},"1":{"ha":451,"x_min":8,"x_max":340,"o":"m 144 0 l 144 14 q 187 34 178 14 q 196 82 196 54 l 196 747 q 182 761 196 761 q 167 757 176 761 l 8 707 l 8 757 l 332 869 l 332 832 q 297 801 310 822 q 286 753 283 781 l 286 88 q 296 36 286 58 q 340 14 306 14 l 340 0 l 144 0 z "},"2":{"ha":596,"x_min":32,"x_max":551,"o":"m 32 776 l 44 776 q 62 783 51 776 q 85 799 72 790 q 117 821 99 808 q 160 844 136 833 q 215 861 185 854 q 283 868 246 868 q 375 855 331 868 q 454 815 419 842 q 510 746 489 788 q 531 646 531 704 q 514 557 531 597 q 469 482 497 517 q 405 416 440 447 q 332 354 369 385 q 262 294 296 325 q 201 231 228 264 q 156 159 174 197 q 135 78 138 121 l 424 78 q 507 97 476 78 q 539 158 538 115 l 551 158 l 551 0 l 38 0 q 58 116 38 63 q 113 215 79 169 q 187 299 146 260 q 268 374 228 338 q 333 432 301 403 q 388 491 364 461 q 427 553 413 521 q 442 622 442 586 q 426 704 442 668 q 384 765 410 740 q 325 803 358 790 q 258 817 292 817 q 133 774 188 817 q 46 665 79 732 l 32 665 l 32 776 z "},"3":{"ha":590,"x_min":13,"x_max":533,"o":"m 39 828 l 51 828 q 75 832 63 828 q 103 842 88 836 q 160 859 126 850 q 242 868 193 868 q 341 852 297 868 q 415 809 385 836 q 460 746 444 782 q 476 671 476 710 q 444 567 476 617 q 343 486 411 517 q 486 397 439 458 q 533 258 533 336 q 512 151 533 200 q 449 65 490 101 q 351 7 408 28 q 224 -14 294 -14 q 136 -4 171 -14 q 78 14 101 6 q 50 23 63 19 q 25 26 38 26 l 13 26 l 13 133 l 26 133 q 116 58 63 83 q 226 32 169 32 q 317 49 276 32 q 385 96 357 67 q 428 163 414 125 q 443 240 443 200 q 426 322 443 282 q 379 392 410 361 q 305 440 349 422 q 206 458 261 458 l 142 458 l 142 504 l 213 504 q 288 518 256 504 q 343 556 321 532 q 376 608 365 579 q 388 669 388 638 q 377 726 388 699 q 346 776 367 754 q 295 811 325 797 q 226 825 265 825 q 132 799 179 825 q 53 719 85 772 l 39 719 l 39 828 z "},"4":{"ha":583,"x_min":4,"x_max":558,"o":"m 332 0 l 332 14 q 362 20 351 14 q 377 37 372 26 q 383 60 382 47 q 383 88 383 74 l 383 224 l 4 224 l 474 889 l 474 293 l 558 293 l 558 224 l 474 224 l 474 88 q 484 37 474 60 q 528 14 494 14 l 528 0 l 332 0 m 383 682 q 245 488 314 583 q 107 293 176 392 l 383 293 l 383 682 z "},"5":{"ha":610,"x_min":24,"x_max":554,"o":"m 547 260 q 528 162 547 211 q 472 74 510 113 q 377 10 435 35 q 243 -14 319 -14 q 169 -6 206 -14 q 101 11 133 3 q 58 23 78 18 q 24 28 39 28 l 24 138 q 119 61 60 89 q 238 33 178 33 q 332 50 292 33 q 399 95 372 67 q 440 163 426 124 q 453 249 453 203 q 434 346 453 304 q 385 416 415 388 q 315 458 354 444 q 235 472 275 472 q 138 452 190 472 q 29 389 85 432 l 207 854 l 554 854 l 526 776 l 236 776 q 185 647 213 714 q 135 517 158 581 q 197 538 168 532 q 260 543 226 543 q 367 524 315 543 q 458 468 418 504 q 523 379 499 432 q 547 260 547 326 z "},"6":{"ha":682,"x_min":44,"x_max":629,"o":"m 329 514 q 242 497 279 514 q 181 450 206 479 q 145 383 157 421 q 133 306 133 346 q 148 208 133 257 q 191 122 163 160 q 260 59 219 83 q 353 35 300 35 q 436 53 400 35 q 497 103 472 72 q 533 175 521 135 q 544 257 544 215 q 530 350 544 304 q 488 433 515 396 q 421 492 461 469 q 329 514 381 514 m 526 743 q 473 788 504 771 q 414 804 442 804 q 303 773 350 804 q 224 696 256 742 q 175 597 193 650 q 151 497 157 543 q 242 548 192 533 q 346 563 292 563 q 470 538 417 563 q 559 474 524 514 q 612 383 594 435 q 629 278 629 332 q 611 171 629 224 q 557 77 593 118 q 467 11 521 36 q 343 -14 414 -14 q 208 15 265 -14 q 115 94 151 44 q 62 208 79 143 q 44 344 44 274 q 70 527 44 436 q 146 691 96 618 q 268 810 196 764 q 433 856 340 856 q 474 853 453 856 q 513 847 496 850 q 530 844 521 846 q 540 843 539 843 l 540 743 l 526 743 z "},"7":{"ha":613,"x_min":10,"x_max":579,"o":"m 251 0 l 186 0 l 485 776 l 122 776 q 88 774 106 776 q 56 765 71 772 q 33 741 42 757 q 24 699 24 725 l 10 699 l 10 854 l 579 854 l 251 0 z "},"8":{"ha":699,"x_min":31,"x_max":633,"o":"m 633 226 q 609 120 633 165 q 544 45 585 75 q 449 1 503 15 q 333 -14 394 -14 q 222 1 276 -14 q 125 45 168 15 q 56 119 82 75 q 31 224 31 164 q 78 366 31 303 q 228 460 125 429 q 112 544 149 496 q 75 661 75 592 q 97 751 75 713 q 153 815 118 789 q 235 855 189 842 q 328 868 281 868 q 422 855 375 868 q 504 815 468 842 q 563 749 540 789 q 586 657 586 710 q 544 540 586 594 q 436 458 503 486 q 578 376 522 433 q 633 226 633 318 m 506 636 q 488 713 506 678 q 443 772 471 747 q 380 809 415 796 q 308 822 344 822 q 254 814 281 822 q 207 789 228 806 q 173 747 186 772 q 160 689 160 722 q 178 619 160 651 q 226 563 196 588 q 294 519 256 538 q 371 488 332 500 q 469 550 433 513 q 506 636 506 588 m 564 197 q 543 271 564 236 q 485 334 522 306 q 398 385 447 363 q 294 425 349 408 q 226 394 258 413 q 171 353 194 376 q 133 301 147 329 q 119 242 119 274 q 139 163 119 200 q 190 97 158 125 q 264 53 222 68 q 350 38 306 38 q 426 49 388 38 q 494 81 464 61 q 544 131 524 101 q 564 197 564 160 z "},"9":{"ha":682,"x_min":44,"x_max":629,"o":"m 344 328 q 432 345 394 328 q 494 392 469 363 q 530 458 518 421 q 542 536 542 496 q 527 633 542 585 q 484 720 513 682 q 415 783 456 758 q 321 807 374 807 q 238 788 274 807 q 178 738 203 769 q 142 667 154 707 q 131 585 131 626 q 145 492 131 538 q 187 409 160 446 q 253 350 214 372 q 344 328 293 328 m 149 99 q 202 54 171 71 q 261 43 233 38 q 367 71 321 43 q 445 144 413 99 q 497 244 478 190 q 522 343 515 297 q 433 293 482 307 q 328 279 383 279 q 203 303 257 279 q 115 367 150 328 q 62 458 79 407 q 44 564 44 510 q 63 671 44 618 q 117 765 81 724 q 206 831 153 806 q 331 856 260 856 q 466 826 410 856 q 558 748 522 797 q 612 633 594 699 q 629 497 629 568 q 610 313 629 406 q 547 148 590 221 q 431 29 503 75 q 257 -17 360 -17 q 208 -12 238 -17 q 163 -6 179 -8 q 142 -3 153 -4 q 135 -1 132 -1 l 135 99 l 149 99 z "}," ":{"ha":361,"x_min":0,"x_max":0,"o":""},"Á":{"ha":819,"x_min":19,"x_max":799,"o":"m 593 14 l 600 14 q 633 44 633 14 q 629 68 633 56 l 504 406 l 261 406 l 140 74 q 136 53 136 63 q 146 24 136 35 q 167 14 156 14 l 174 14 l 174 0 l 19 0 l 19 14 l 26 14 q 62 35 44 14 q 90 86 79 57 l 408 933 l 719 94 q 747 40 729 67 q 792 14 764 14 l 799 14 l 799 0 l 593 0 l 593 14 m 275 453 l 489 453 l 382 743 l 275 453 m 294 956 l 492 1104 l 528 1042 l 299 947 l 294 956 z "},"Â":{"ha":819,"x_min":19,"x_max":799,"o":"m 593 14 l 600 14 q 633 44 633 14 q 629 68 633 56 l 504 406 l 261 406 l 140 74 q 136 53 136 63 q 146 24 136 35 q 167 14 156 14 l 174 14 l 174 0 l 19 0 l 19 14 l 26 14 q 62 35 44 14 q 90 86 79 57 l 408 933 l 719 94 q 747 40 729 67 q 792 14 764 14 l 799 14 l 799 0 l 593 0 l 593 14 m 275 453 l 489 453 l 382 743 l 275 453 m 579 951 l 411 1033 l 244 951 l 242 958 l 411 1101 l 581 958 l 579 951 z "},"Ä":{"ha":819,"x_min":19,"x_max":799,"o":"m 593 14 l 600 14 q 633 44 633 14 q 629 68 633 56 l 504 406 l 261 406 l 140 74 q 136 53 136 63 q 146 24 136 35 q 167 14 156 14 l 174 14 l 174 0 l 19 0 l 19 14 l 26 14 q 62 35 44 14 q 90 86 79 57 l 408 933 l 719 94 q 747 40 729 67 q 792 14 764 14 l 799 14 l 799 0 l 593 0 l 593 14 m 275 453 l 489 453 l 382 743 l 275 453 m 536 997 q 524 965 536 978 q 494 953 511 953 q 462 965 475 953 q 449 997 449 978 q 462 1029 449 1017 q 494 1042 475 1042 q 524 1029 511 1042 q 536 997 536 1017 m 376 997 q 364 965 376 978 q 332 953 351 953 q 300 965 313 953 q 288 997 288 978 q 300 1029 288 1017 q 332 1042 313 1042 q 364 1029 351 1042 q 376 997 376 1017 z "},"À":{"ha":819,"x_min":19,"x_max":799,"o":"m 593 14 l 600 14 q 633 44 633 14 q 629 68 633 56 l 504 406 l 261 406 l 140 74 q 136 53 136 63 q 146 24 136 35 q 167 14 156 14 l 174 14 l 174 0 l 19 0 l 19 14 l 26 14 q 62 35 44 14 q 90 86 79 57 l 408 933 l 719 94 q 747 40 729 67 q 792 14 764 14 l 799 14 l 799 0 l 593 0 l 593 14 m 275 453 l 489 453 l 382 743 l 275 453 m 525 947 l 294 1042 l 331 1104 l 528 956 l 525 947 z "},"Å":{"ha":819,"x_min":19,"x_max":799,"o":"m 593 14 l 600 14 q 633 44 633 14 q 629 68 633 56 l 504 406 l 261 406 l 140 74 q 136 53 136 63 q 146 24 136 35 q 167 14 156 14 l 174 14 l 174 0 l 19 0 l 19 14 l 26 14 q 62 35 44 14 q 90 86 79 57 l 408 933 l 719 94 q 747 40 729 67 q 792 14 764 14 l 799 14 l 799 0 l 593 0 l 593 14 m 275 453 l 489 453 l 382 743 l 275 453 m 311 1040 q 340 1100 311 1076 q 411 1124 368 1124 q 483 1100 454 1124 q 513 1040 513 1076 q 483 981 513 1004 q 411 958 454 958 q 340 981 368 958 q 311 1040 311 1004 m 350 1049 q 371 999 350 1019 q 421 979 392 979 q 460 995 444 979 q 475 1036 475 1011 q 453 1082 475 1061 q 403 1103 431 1103 q 365 1087 381 1103 q 350 1049 350 1071 z "},"Ã":{"ha":819,"x_min":19,"x_max":799,"o":"m 593 14 l 600 14 q 633 44 633 14 q 629 68 633 56 l 504 406 l 261 406 l 140 74 q 136 53 136 63 q 146 24 136 35 q 167 14 156 14 l 174 14 l 174 0 l 19 0 l 19 14 l 26 14 q 62 35 44 14 q 90 86 79 57 l 408 933 l 719 94 q 747 40 729 67 q 792 14 764 14 l 799 14 l 799 0 l 593 0 l 593 14 m 275 453 l 489 453 l 382 743 l 275 453 m 569 1065 q 537 983 553 1003 q 492 964 521 964 q 454 972 475 964 q 411 991 433 981 q 367 1010 389 1001 q 328 1019 346 1019 q 292 1004 307 1019 q 260 964 278 989 l 253 965 q 298 1048 272 1024 q 351 1072 324 1072 q 388 1064 368 1072 q 426 1045 407 1056 q 464 1026 444 1035 q 500 1018 483 1018 q 538 1033 522 1018 q 564 1067 553 1047 l 569 1065 z "},"B":{"ha":679,"x_min":60,"x_max":624,"o":"m 63 14 l 69 14 q 88 22 79 14 q 102 42 96 31 q 111 66 108 53 q 114 90 114 79 l 114 829 q 111 851 114 839 q 102 876 108 864 q 87 895 96 888 q 67 903 78 903 l 60 903 l 60 917 l 288 917 q 490 860 417 917 q 563 708 563 803 q 549 636 563 668 q 513 579 535 604 q 467 537 492 554 q 419 508 442 519 q 517 471 478 497 q 580 410 556 444 q 614 338 604 376 q 624 261 624 299 q 597 140 624 189 q 527 59 571 90 q 427 14 483 28 q 311 0 371 0 l 63 0 l 63 14 m 529 253 q 457 418 518 360 q 285 476 396 476 l 207 476 l 207 46 l 288 46 q 465 97 400 46 q 529 238 529 147 l 529 253 m 472 696 q 416 824 468 776 q 276 871 364 871 l 207 871 l 207 521 l 279 521 q 374 536 338 521 q 433 576 411 551 q 464 629 456 600 q 472 686 472 658 l 472 696 z "},"C":{"ha":865,"x_min":54,"x_max":808,"o":"m 551 881 q 373 844 449 881 q 247 748 297 807 q 173 615 197 689 q 149 469 149 542 q 181 309 149 388 q 269 170 213 231 q 400 73 325 110 q 563 36 475 36 q 622 42 588 36 q 689 63 656 47 q 751 108 722 79 q 794 185 779 138 l 808 185 l 808 31 q 765 25 788 31 q 714 13 742 19 q 634 -6 678 3 q 542 -14 590 -14 q 329 28 421 -14 q 176 136 238 69 q 85 287 115 203 q 54 457 54 371 q 85 628 54 543 q 178 780 115 713 q 335 889 240 847 q 557 931 429 931 q 640 922 603 931 q 706 906 676 914 q 744 895 726 899 q 778 892 761 892 l 778 738 l 764 738 q 733 809 756 781 q 681 853 711 838 q 617 874 651 868 q 551 881 583 881 z "},"Æ":{"ha":1111,"x_min":21,"x_max":1061,"o":"m 946 408 q 925 451 946 433 q 871 469 904 469 l 669 469 l 669 49 l 944 49 q 990 61 971 49 q 1022 92 1010 74 q 1041 133 1035 111 q 1047 172 1047 154 l 1047 179 l 1061 179 l 1061 0 l 522 0 l 522 14 l 529 14 q 549 22 540 14 q 563 40 557 29 q 573 64 569 51 q 576 88 576 76 l 576 471 l 399 471 l 160 79 q 149 60 154 71 q 143 39 143 49 q 168 14 143 14 l 175 14 l 175 0 l 21 0 l 21 14 l 28 14 q 71 38 49 14 q 111 89 93 61 l 575 851 q 560 887 575 871 q 529 903 544 903 l 522 903 l 522 917 l 1026 917 l 1026 781 l 1013 781 l 1013 788 q 991 844 1013 819 q 925 868 969 868 l 669 868 l 669 517 l 871 517 q 924 536 903 517 q 946 582 946 556 l 946 589 l 960 589 l 960 401 l 946 401 l 946 408 m 576 517 l 576 764 l 428 517 l 576 517 z "},"Ç":{"ha":861,"x_min":50,"x_max":804,"o":"m 549 -14 q 515 -69 531 -40 q 606 -99 578 -76 q 635 -151 635 -122 q 594 -218 635 -187 q 478 -249 553 -249 q 460 -248 468 -249 q 443 -246 451 -247 q 433 -245 439 -246 q 424 -244 428 -244 l 424 -233 l 439 -233 q 529 -210 492 -233 q 567 -158 567 -187 q 539 -113 567 -135 q 460 -85 511 -92 l 504 -12 q 306 35 390 -7 q 164 144 221 78 q 78 292 107 210 q 50 457 50 374 q 81 628 50 543 q 174 780 111 713 q 331 889 236 847 q 553 931 425 931 q 635 922 599 931 q 701 906 672 914 q 740 895 722 899 q 774 892 757 892 l 774 738 l 760 738 q 729 809 751 781 q 677 853 707 838 q 613 874 647 868 q 547 881 579 881 q 369 844 444 881 q 243 748 293 807 q 169 615 193 689 q 144 469 144 542 q 176 309 144 388 q 265 170 208 231 q 396 75 321 110 q 558 40 471 40 q 617 46 583 40 q 683 67 650 51 q 744 110 715 83 q 790 185 774 138 l 804 185 l 804 31 q 760 25 783 31 q 708 13 736 19 q 633 -3 675 4 q 549 -14 592 -11 z "},"D":{"ha":856,"x_min":61,"x_max":799,"o":"m 61 14 l 68 14 q 86 22 78 14 q 101 42 94 31 q 110 66 107 53 q 113 90 113 79 l 113 831 q 110 853 113 840 q 101 876 107 865 q 88 895 96 888 q 68 903 79 903 l 61 903 l 61 917 l 329 917 q 526 878 439 917 q 674 776 614 840 q 767 628 735 711 q 799 454 799 544 q 768 288 799 369 q 676 143 738 207 q 524 40 615 79 q 311 0 432 0 l 61 0 l 61 14 m 704 433 q 672 601 704 522 q 583 740 640 681 q 447 833 525 799 q 276 868 368 868 l 206 868 l 206 49 l 279 49 q 430 72 354 49 q 567 142 506 94 q 666 263 628 190 q 704 433 704 335 z "},"E":{"ha":674,"x_min":63,"x_max":632,"o":"m 63 14 l 69 14 q 89 22 81 14 q 103 40 97 29 q 113 64 110 51 q 117 88 117 76 l 117 831 q 113 853 117 840 q 103 876 110 865 q 89 895 97 888 q 69 903 81 903 l 63 903 l 63 917 l 597 917 l 597 788 l 583 788 q 558 844 581 819 q 489 868 536 868 l 210 868 l 210 517 l 440 517 q 494 536 472 517 q 515 582 515 556 l 529 582 l 529 408 l 515 408 q 494 451 515 433 q 440 469 474 469 l 210 469 l 210 49 l 514 49 q 560 61 540 49 q 592 91 579 74 q 612 128 606 108 q 618 163 618 149 l 632 163 l 632 0 l 63 0 l 63 14 z "},"É":{"ha":674,"x_min":63,"x_max":632,"o":"m 63 14 l 69 14 q 89 22 81 14 q 103 40 97 29 q 113 64 110 51 q 117 88 117 76 l 117 831 q 113 853 117 840 q 103 876 110 865 q 89 895 97 888 q 69 903 81 903 l 63 903 l 63 917 l 597 917 l 597 788 l 583 788 q 558 844 581 819 q 489 868 536 868 l 210 868 l 210 517 l 440 517 q 494 536 472 517 q 515 582 515 556 l 529 582 l 529 408 l 515 408 q 494 451 515 433 q 440 469 474 469 l 210 469 l 210 49 l 514 49 q 560 61 540 49 q 592 91 579 74 q 612 128 606 108 q 618 163 618 149 l 632 163 l 632 0 l 63 0 l 63 14 m 219 956 l 417 1104 l 453 1042 l 224 947 l 219 956 z "},"Ê":{"ha":674,"x_min":63,"x_max":632,"o":"m 63 14 l 69 14 q 89 22 81 14 q 103 40 97 29 q 113 64 110 51 q 117 88 117 76 l 117 831 q 113 853 117 840 q 103 876 110 865 q 89 895 97 888 q 69 903 81 903 l 63 903 l 63 917 l 597 917 l 597 788 l 583 788 q 558 844 581 819 q 489 868 536 868 l 210 868 l 210 517 l 440 517 q 494 536 472 517 q 515 582 515 556 l 529 582 l 529 408 l 515 408 q 494 451 515 433 q 440 469 474 469 l 210 469 l 210 49 l 514 49 q 560 61 540 49 q 592 91 579 74 q 612 128 606 108 q 618 163 618 149 l 632 163 l 632 0 l 63 0 l 63 14 m 504 951 l 336 1033 l 169 951 l 167 958 l 336 1101 l 506 958 l 504 951 z "},"Ë":{"ha":674,"x_min":63,"x_max":632,"o":"m 63 14 l 69 14 q 89 22 81 14 q 103 40 97 29 q 113 64 110 51 q 117 88 117 76 l 117 831 q 113 853 117 840 q 103 876 110 865 q 89 895 97 888 q 69 903 81 903 l 63 903 l 63 917 l 597 917 l 597 788 l 583 788 q 558 844 581 819 q 489 868 536 868 l 210 868 l 210 517 l 440 517 q 494 536 472 517 q 515 582 515 556 l 529 582 l 529 408 l 515 408 q 494 451 515 433 q 440 469 474 469 l 210 469 l 210 49 l 514 49 q 560 61 540 49 q 592 91 579 74 q 612 128 606 108 q 618 163 618 149 l 632 163 l 632 0 l 63 0 l 63 14 m 460 997 q 447 965 460 978 q 418 953 435 953 q 385 965 399 953 q 372 997 372 978 q 385 1029 372 1017 q 418 1042 399 1042 q 447 1029 435 1042 q 460 997 460 1017 m 300 997 q 288 965 300 978 q 256 953 275 953 q 224 965 236 953 q 211 997 211 978 q 224 1029 211 1017 q 256 1042 236 1042 q 288 1029 275 1042 q 300 997 300 1017 z "},"È":{"ha":674,"x_min":63,"x_max":632,"o":"m 63 14 l 69 14 q 89 22 81 14 q 103 40 97 29 q 113 64 110 51 q 117 88 117 76 l 117 831 q 113 853 117 840 q 103 876 110 865 q 89 895 97 888 q 69 903 81 903 l 63 903 l 63 917 l 597 917 l 597 788 l 583 788 q 558 844 581 819 q 489 868 536 868 l 210 868 l 210 517 l 440 517 q 494 536 472 517 q 515 582 515 556 l 529 582 l 529 408 l 515 408 q 494 451 515 433 q 440 469 474 469 l 210 469 l 210 49 l 514 49 q 560 61 540 49 q 592 91 579 74 q 612 128 606 108 q 618 163 618 149 l 632 163 l 632 0 l 63 0 l 63 14 m 450 954 l 219 1042 l 256 1104 l 453 963 l 450 954 z "},"Ð":{"ha":856,"x_min":43,"x_max":799,"o":"m 63 917 l 329 917 q 526 878 439 917 q 674 776 614 840 q 767 628 735 711 q 799 454 799 544 q 768 288 799 369 q 676 143 738 207 q 524 40 615 79 q 311 0 432 0 l 63 0 l 63 14 l 69 14 q 88 22 79 14 q 102 42 96 31 q 111 66 108 53 q 114 90 114 79 l 114 432 l 43 432 l 43 488 l 114 488 l 114 831 q 111 853 114 840 q 102 876 108 865 q 88 895 96 888 q 69 903 79 903 l 63 903 l 63 917 m 704 433 q 672 601 704 522 q 583 740 640 681 q 447 833 525 799 q 276 868 368 868 l 206 868 l 206 488 l 449 488 l 449 432 l 206 432 l 206 49 l 279 49 q 430 72 354 49 q 567 142 506 94 q 666 263 628 190 q 704 433 704 335 z "},"€":{"ha":740,"x_min":17,"x_max":600,"o":"m 600 33 q 578 30 589 33 q 553 19 567 26 l 544 15 q 497 -4 525 6 q 431 -14 468 -14 q 322 11 375 -14 q 226 83 269 36 q 150 199 182 131 q 106 353 118 267 l 17 353 l 17 406 l 101 406 q 99 430 100 417 q 99 458 99 443 q 99 497 99 476 q 101 535 99 517 l 17 535 l 17 589 l 108 589 q 155 733 124 669 q 227 840 186 796 q 317 906 268 883 q 419 929 367 929 q 466 922 442 929 q 514 908 490 915 q 549 897 533 901 q 579 893 565 893 l 579 743 l 565 743 q 538 810 556 783 q 499 851 521 836 q 453 872 478 867 q 406 878 429 878 q 328 853 364 878 q 263 788 292 828 q 215 695 235 747 q 188 589 196 643 l 579 589 l 579 535 l 183 535 l 183 517 q 185 460 183 489 q 193 406 188 432 l 578 406 l 578 353 l 203 353 q 240 237 218 293 q 293 136 263 181 q 363 65 324 92 q 451 38 401 38 q 492 47 471 38 q 533 74 514 56 q 567 121 553 93 q 588 186 582 149 l 600 186 l 600 33 z "},"F":{"ha":639,"x_min":64,"x_max":597,"o":"m 256 14 l 263 14 l 263 0 l 64 0 l 64 14 l 71 14 q 90 22 82 14 q 105 40 99 29 q 114 64 111 51 q 117 88 117 76 l 117 831 q 114 853 117 840 q 106 876 111 865 q 91 895 100 888 q 71 903 82 903 l 64 903 l 64 917 l 597 917 l 597 788 l 583 788 q 562 844 583 819 q 494 868 540 868 l 210 868 l 210 517 l 440 517 q 494 536 472 517 q 515 582 515 556 l 529 582 l 529 408 l 515 408 q 494 451 515 433 q 440 469 474 469 l 210 469 l 210 88 q 213 64 210 76 q 222 40 215 51 q 236 22 228 29 q 256 14 244 14 z "},"G":{"ha":913,"x_min":51,"x_max":858,"o":"m 660 483 l 858 483 l 858 469 l 851 469 q 832 462 840 469 q 818 443 824 454 q 809 419 813 432 q 806 397 806 407 l 806 25 q 749 8 781 15 q 682 -3 717 1 q 611 -11 647 -8 q 544 -14 575 -14 q 326 28 419 -14 q 172 137 233 69 q 81 289 111 204 q 51 460 51 374 q 81 631 51 546 q 173 782 111 715 q 328 890 235 849 q 551 931 422 931 q 642 922 600 931 q 715 907 683 914 q 747 899 733 903 q 769 896 760 896 l 782 896 l 782 749 l 768 749 q 735 818 760 792 q 679 858 711 844 q 612 877 647 872 q 546 882 576 882 q 365 845 442 882 q 240 750 289 808 q 168 619 192 692 q 144 474 144 546 q 175 315 144 393 q 261 174 206 236 q 395 74 317 113 q 569 36 474 36 q 635 42 596 36 q 713 71 674 49 l 713 397 q 710 419 713 407 q 701 443 707 432 q 686 462 694 454 q 667 469 678 469 l 660 469 l 660 483 z "},"H":{"ha":864,"x_min":79,"x_max":811,"o":"m 617 14 l 624 14 q 642 22 633 14 q 656 41 650 29 q 665 66 663 53 q 668 90 668 79 l 668 468 l 224 468 l 224 90 q 226 66 224 79 q 235 42 229 53 q 248 22 240 31 q 267 14 256 14 l 274 14 l 274 0 l 79 0 l 79 14 l 86 14 q 104 22 96 14 q 119 41 113 29 q 128 66 125 53 q 131 90 131 79 l 131 831 q 128 853 131 840 q 119 876 125 865 q 106 895 114 888 q 86 903 97 903 l 79 903 l 79 917 l 274 917 l 274 903 l 267 903 q 247 895 256 903 q 234 876 239 888 q 226 853 229 865 q 224 831 224 840 l 224 517 l 668 517 l 668 831 q 665 853 668 840 q 657 876 663 865 q 643 895 651 888 q 624 903 635 903 l 617 903 l 617 917 l 811 917 l 811 903 l 804 903 q 785 895 793 903 q 772 876 776 888 q 764 853 767 865 q 761 831 761 840 l 761 90 q 765 66 761 79 q 774 42 768 53 q 787 22 779 31 q 804 14 794 14 l 811 14 l 811 0 l 617 0 l 617 14 z "},"I":{"ha":338,"x_min":68,"x_max":267,"o":"m 68 917 l 267 917 l 267 903 l 260 903 q 242 895 250 903 q 228 877 233 888 q 219 853 222 867 q 215 831 215 840 l 215 90 q 218 66 215 79 q 227 42 221 53 q 241 22 233 31 q 260 14 249 14 l 267 14 l 267 0 l 68 0 l 68 14 l 75 14 q 94 22 86 14 q 109 41 103 29 q 118 66 115 53 q 121 90 121 79 l 121 831 q 118 853 121 840 q 109 876 115 865 q 94 895 103 888 q 75 903 86 903 l 68 903 l 68 917 z "},"Í":{"ha":338,"x_min":51,"x_max":285,"o":"m 68 917 l 267 917 l 267 903 l 260 903 q 242 895 250 903 q 228 877 233 888 q 219 853 222 867 q 215 831 215 840 l 215 90 q 218 66 215 79 q 227 42 221 53 q 241 22 233 31 q 260 14 249 14 l 267 14 l 267 0 l 68 0 l 68 14 l 75 14 q 94 22 86 14 q 109 41 103 29 q 118 66 115 53 q 121 90 121 79 l 121 831 q 118 853 121 840 q 109 876 115 865 q 94 895 103 888 q 75 903 86 903 l 68 903 l 68 917 m 51 956 l 249 1104 l 285 1042 l 56 947 l 51 956 z "},"Î":{"ha":338,"x_min":-1,"x_max":338,"o":"m 68 917 l 267 917 l 267 903 l 260 903 q 242 895 250 903 q 228 877 233 888 q 219 853 222 867 q 215 831 215 840 l 215 90 q 218 66 215 79 q 227 42 221 53 q 241 22 233 31 q 260 14 249 14 l 267 14 l 267 0 l 68 0 l 68 14 l 75 14 q 94 22 86 14 q 109 41 103 29 q 118 66 115 53 q 121 90 121 79 l 121 831 q 118 853 121 840 q 109 876 115 865 q 94 895 103 888 q 75 903 86 903 l 68 903 l 68 917 m 336 951 l 168 1033 l 1 951 l -1 958 l 168 1101 l 338 958 l 336 951 z "},"Ï":{"ha":338,"x_min":43,"x_max":292,"o":"m 68 917 l 267 917 l 267 903 l 260 903 q 242 895 250 903 q 228 877 233 888 q 219 853 222 867 q 215 831 215 840 l 215 90 q 218 66 215 79 q 227 42 221 53 q 241 22 233 31 q 260 14 249 14 l 267 14 l 267 0 l 68 0 l 68 14 l 75 14 q 94 22 86 14 q 109 41 103 29 q 118 66 115 53 q 121 90 121 79 l 121 831 q 118 853 121 840 q 109 876 115 865 q 94 895 103 888 q 75 903 86 903 l 68 903 l 68 917 m 292 997 q 279 965 292 978 q 250 953 267 953 q 217 965 231 953 q 204 997 204 978 q 217 1029 204 1017 q 250 1042 231 1042 q 279 1029 267 1042 q 292 997 292 1017 m 132 997 q 119 965 132 978 q 88 953 107 953 q 56 965 68 953 q 43 997 43 978 q 56 1029 43 1017 q 88 1042 68 1042 q 119 1029 107 1042 q 132 997 132 1017 z "},"Ì":{"ha":338,"x_min":51,"x_max":285,"o":"m 68 917 l 267 917 l 267 903 l 260 903 q 242 895 250 903 q 228 877 233 888 q 219 853 222 867 q 215 831 215 840 l 215 90 q 218 66 215 79 q 227 42 221 53 q 241 22 233 31 q 260 14 249 14 l 267 14 l 267 0 l 68 0 l 68 14 l 75 14 q 94 22 86 14 q 109 41 103 29 q 118 66 115 53 q 121 90 121 79 l 121 831 q 118 853 121 840 q 109 876 115 865 q 94 895 103 888 q 75 903 86 903 l 68 903 l 68 917 m 282 947 l 51 1042 l 88 1104 l 285 956 l 282 947 z "},"J":{"ha":375,"x_min":-18,"x_max":304,"o":"m 104 917 l 304 917 l 304 903 l 297 903 q 278 895 286 903 q 263 876 269 888 q 253 851 257 864 q 250 829 250 839 l 250 56 q 239 -26 250 11 q 209 -97 228 -64 q 167 -156 190 -129 q 119 -206 144 -183 q -11 -292 63 -257 l -18 -281 q 68 -199 31 -246 q 128 -100 100 -158 q 156 35 156 -42 l 156 829 q 153 851 156 839 q 144 876 150 864 q 129 895 138 888 q 111 903 121 903 l 104 903 l 104 917 z "},"K":{"ha":786,"x_min":63,"x_max":758,"o":"m 254 14 l 261 14 l 261 0 l 63 0 l 63 14 l 69 14 q 89 22 81 14 q 103 42 97 31 q 113 66 110 53 q 115 90 115 79 l 115 831 q 113 853 115 840 q 103 876 110 865 q 89 895 97 888 q 71 903 81 903 l 64 903 l 64 917 l 263 917 l 263 903 l 256 903 q 236 895 244 903 q 222 876 228 888 q 212 853 215 865 q 208 831 208 840 l 208 508 l 561 858 q 569 881 569 868 q 553 903 569 903 l 546 903 l 546 917 l 715 917 l 715 903 l 708 903 q 668 889 689 903 q 626 854 647 875 l 335 564 l 642 99 q 654 82 643 96 q 681 53 665 68 q 717 26 697 38 q 758 14 738 14 l 758 0 l 725 0 q 655 5 683 0 q 606 21 626 10 q 569 49 585 32 q 536 90 553 65 l 267 497 l 208 438 l 208 90 q 212 67 208 79 q 221 42 215 54 q 235 22 226 31 q 254 14 243 14 z "},"L":{"ha":646,"x_min":63,"x_max":632,"o":"m 63 14 l 69 14 q 89 22 81 14 q 103 40 97 29 q 113 64 110 51 q 117 88 117 76 l 117 831 q 113 853 117 840 q 103 876 110 865 q 89 895 97 888 q 69 903 81 903 l 63 903 l 63 917 l 263 917 l 263 903 l 256 903 q 236 895 244 903 q 222 876 228 888 q 213 853 217 865 q 210 831 210 840 l 210 51 l 514 51 q 560 64 540 51 q 592 95 579 76 q 612 135 606 114 q 618 175 618 157 l 632 175 l 632 0 l 63 0 l 63 14 z "},"M":{"ha":1079,"x_min":64,"x_max":1007,"o":"m 810 14 l 817 14 q 835 22 826 14 q 849 42 843 31 q 858 66 856 53 q 861 90 861 79 l 861 821 l 503 -15 l 163 778 l 163 90 q 165 66 163 79 q 174 42 168 53 q 189 22 181 31 q 208 14 197 14 l 215 14 l 215 0 l 64 0 l 64 14 l 71 14 q 89 22 81 14 q 103 42 97 31 q 111 66 108 53 q 114 90 114 79 l 114 831 q 111 853 114 840 q 103 876 108 865 q 89 895 97 888 q 71 903 81 903 l 64 903 l 64 917 l 206 917 l 528 157 l 850 917 l 1007 917 l 1007 903 l 1000 903 q 981 895 989 903 q 966 876 972 888 q 957 853 960 865 q 954 831 954 840 l 954 90 q 957 66 954 79 q 966 42 960 53 q 981 22 972 31 q 1000 14 989 14 l 1007 14 l 1007 0 l 810 0 l 810 14 z "},"N":{"ha":872,"x_min":58,"x_max":804,"o":"m 208 14 l 215 14 l 215 0 l 61 0 l 61 14 l 68 14 q 87 22 78 14 q 101 42 96 31 q 110 66 107 53 q 114 90 114 79 l 114 831 q 112 853 114 840 q 104 876 110 865 q 89 895 99 888 q 65 903 79 903 l 58 903 l 58 917 l 199 917 l 703 122 l 703 831 q 699 853 703 840 q 690 876 696 865 q 675 895 683 888 q 656 903 667 903 l 649 903 l 649 917 l 804 917 l 804 903 l 797 903 q 778 895 786 903 q 763 876 769 888 q 754 853 757 865 q 751 831 751 840 l 751 0 l 665 0 l 163 797 l 163 90 q 165 66 163 79 q 174 42 168 53 q 189 22 181 31 q 208 14 197 14 z "},"A":{"ha":819,"x_min":19,"x_max":799,"o":"m 593 14 l 600 14 q 633 44 633 14 q 629 68 633 56 l 504 406 l 261 406 l 140 74 q 136 53 136 63 q 146 24 136 35 q 167 14 156 14 l 174 14 l 174 0 l 19 0 l 19 14 l 26 14 q 62 35 44 14 q 90 86 79 57 l 408 933 l 719 94 q 747 40 729 67 q 792 14 764 14 l 799 14 l 799 0 l 593 0 l 593 14 m 275 453 l 489 453 l 382 743 l 275 453 z "},"Ñ":{"ha":872,"x_min":58,"x_max":804,"o":"m 208 14 l 215 14 l 215 0 l 61 0 l 61 14 l 68 14 q 87 22 78 14 q 101 42 96 31 q 110 66 107 53 q 114 90 114 79 l 114 831 q 112 853 114 840 q 104 876 110 865 q 89 895 99 888 q 65 903 79 903 l 58 903 l 58 917 l 199 917 l 703 122 l 703 831 q 699 853 703 840 q 690 876 696 865 q 675 895 683 888 q 656 903 667 903 l 649 903 l 649 917 l 804 917 l 804 903 l 797 903 q 778 895 786 903 q 763 876 769 888 q 754 853 757 865 q 751 831 751 840 l 751 0 l 665 0 l 163 797 l 163 90 q 165 66 163 79 q 174 42 168 53 q 189 22 181 31 q 208 14 197 14 m 593 1065 q 560 983 576 1003 q 515 964 544 964 q 478 972 499 964 q 435 991 457 981 q 391 1010 413 1001 q 351 1019 369 1019 q 316 1004 331 1019 q 283 964 301 989 l 276 965 q 322 1048 296 1024 q 375 1072 347 1072 q 411 1064 392 1072 q 449 1045 431 1056 q 488 1026 468 1035 q 524 1018 507 1018 q 561 1033 546 1018 q 588 1067 576 1047 l 593 1065 z "},"O":{"ha":1057,"x_min":51,"x_max":997,"o":"m 531 931 q 725 892 639 931 q 872 790 811 854 q 965 640 932 725 q 997 461 997 554 q 959 269 997 357 q 854 119 921 182 q 699 22 788 57 q 511 -14 611 -14 q 319 25 404 -14 q 174 128 233 64 q 83 275 115 192 q 51 449 51 358 q 83 624 51 538 q 177 779 115 711 q 328 889 239 847 q 531 931 417 931 m 529 35 q 692 77 622 39 q 810 174 763 115 q 880 304 857 233 q 903 444 903 375 q 875 599 903 521 q 796 740 847 676 q 673 842 744 803 q 513 882 601 882 q 358 844 426 882 q 242 746 290 806 q 169 613 194 686 q 144 468 144 539 q 174 315 144 392 q 254 175 203 238 q 376 74 306 113 q 529 35 446 35 z "},"Œ":{"ha":1240,"x_min":63,"x_max":1183,"o":"m 1183 171 l 1183 1 l 636 1 q 508 -15 574 -15 q 318 24 401 -15 q 178 126 235 63 q 92 274 121 190 q 63 447 63 357 q 92 624 63 538 q 181 778 122 711 q 327 888 240 846 q 528 929 414 929 q 588 926 558 929 q 646 915 618 922 l 1149 915 l 1149 786 l 1135 786 q 1113 842 1135 818 q 1046 867 1092 867 l 775 867 l 775 515 l 993 515 q 1046 535 1025 515 q 1067 581 1067 554 l 1081 581 l 1081 407 l 1067 407 q 1046 450 1067 432 q 993 468 1025 468 l 775 468 l 775 47 l 1065 47 q 1111 60 1092 47 q 1144 91 1131 72 q 1163 131 1157 110 q 1169 171 1169 153 l 1183 171 m 154 467 q 181 313 154 390 q 257 174 208 236 q 374 72 306 111 q 526 33 443 33 q 608 44 568 33 q 682 71 649 56 l 682 833 q 599 870 644 860 q 510 881 554 881 q 357 842 424 881 q 245 744 290 804 q 177 611 200 685 q 154 467 154 538 z "},"Ó":{"ha":1057,"x_min":51,"x_max":997,"o":"m 531 931 q 725 892 639 931 q 872 790 811 854 q 965 640 932 725 q 997 461 997 554 q 959 269 997 357 q 854 119 921 182 q 699 22 788 57 q 511 -14 611 -14 q 319 25 404 -14 q 174 128 233 64 q 83 275 115 192 q 51 449 51 358 q 83 624 51 538 q 177 779 115 711 q 328 889 239 847 q 531 931 417 931 m 529 35 q 692 77 622 39 q 810 174 763 115 q 880 304 857 233 q 903 444 903 375 q 875 599 903 521 q 796 740 847 676 q 673 842 744 803 q 513 882 601 882 q 358 844 426 882 q 242 746 290 806 q 169 613 194 686 q 144 468 144 539 q 174 315 144 392 q 254 175 203 238 q 376 74 306 113 q 529 35 446 35 m 411 956 l 608 1104 l 644 1042 l 415 947 l 411 956 z "},"Ô":{"ha":1057,"x_min":51,"x_max":997,"o":"m 531 931 q 725 892 639 931 q 872 790 811 854 q 965 640 932 725 q 997 461 997 554 q 959 269 997 357 q 854 119 921 182 q 699 22 788 57 q 511 -14 611 -14 q 319 25 404 -14 q 174 128 233 64 q 83 275 115 192 q 51 449 51 358 q 83 624 51 538 q 177 779 115 711 q 328 889 239 847 q 531 931 417 931 m 529 35 q 692 77 622 39 q 810 174 763 115 q 880 304 857 233 q 903 444 903 375 q 875 599 903 521 q 796 740 847 676 q 673 842 744 803 q 513 882 601 882 q 358 844 426 882 q 242 746 290 806 q 169 613 194 686 q 144 468 144 539 q 174 315 144 392 q 254 175 203 238 q 376 74 306 113 q 529 35 446 35 m 696 951 l 528 1033 l 361 951 l 358 958 l 528 1101 l 697 958 l 696 951 z "},"Ö":{"ha":1057,"x_min":51,"x_max":997,"o":"m 531 931 q 725 892 639 931 q 872 790 811 854 q 965 640 932 725 q 997 461 997 554 q 959 269 997 357 q 854 119 921 182 q 699 22 788 57 q 511 -14 611 -14 q 319 25 404 -14 q 174 128 233 64 q 83 275 115 192 q 51 449 51 358 q 83 624 51 538 q 177 779 115 711 q 328 889 239 847 q 531 931 417 931 m 529 35 q 692 77 622 39 q 810 174 763 115 q 880 304 857 233 q 903 444 903 375 q 875 599 903 521 q 796 740 847 676 q 673 842 744 803 q 513 882 601 882 q 358 844 426 882 q 242 746 290 806 q 169 613 194 686 q 144 468 144 539 q 174 315 144 392 q 254 175 203 238 q 376 74 306 113 q 529 35 446 35 m 651 997 q 639 965 651 978 q 610 953 626 953 q 577 965 590 953 q 564 997 564 978 q 577 1029 564 1017 q 610 1042 590 1042 q 639 1029 626 1042 q 651 997 651 1017 m 492 997 q 479 965 492 978 q 447 953 467 953 q 415 965 428 953 q 403 997 403 978 q 415 1029 403 1017 q 447 1042 428 1042 q 479 1029 467 1042 q 492 997 492 1017 z "},"Ò":{"ha":1057,"x_min":51,"x_max":997,"o":"m 531 931 q 725 892 639 931 q 872 790 811 854 q 965 640 932 725 q 997 461 997 554 q 959 269 997 357 q 854 119 921 182 q 699 22 788 57 q 511 -14 611 -14 q 319 25 404 -14 q 174 128 233 64 q 83 275 115 192 q 51 449 51 358 q 83 624 51 538 q 177 779 115 711 q 328 889 239 847 q 531 931 417 931 m 529 35 q 692 77 622 39 q 810 174 763 115 q 880 304 857 233 q 903 444 903 375 q 875 599 903 521 q 796 740 847 676 q 673 842 744 803 q 513 882 601 882 q 358 844 426 882 q 242 746 290 806 q 169 613 194 686 q 144 468 144 539 q 174 315 144 392 q 254 175 203 238 q 376 74 306 113 q 529 35 446 35 m 642 947 l 411 1042 l 447 1104 l 644 956 l 642 947 z "},"Ø":{"ha":1057,"x_min":51,"x_max":997,"o":"m 531 931 q 667 911 601 931 l 697 992 l 753 992 l 717 896 q 834 823 782 868 q 922 721 886 778 q 978 598 958 664 q 997 461 997 532 q 959 269 997 357 q 854 119 921 182 q 699 22 788 57 q 511 -14 611 -14 q 389 1 450 -14 l 357 -85 l 300 -85 l 338 17 q 218 88 271 43 q 128 191 165 133 q 71 314 90 249 q 51 449 51 379 q 83 624 51 538 q 177 779 115 711 q 328 889 239 847 q 531 931 417 931 m 144 468 q 160 358 144 414 q 205 251 176 303 q 273 156 233 200 q 361 83 313 113 l 647 854 q 513 882 583 882 q 358 844 426 882 q 242 746 290 806 q 169 613 194 686 q 144 468 144 539 m 529 35 q 692 77 622 39 q 810 174 763 115 q 880 304 857 233 q 903 444 903 375 q 888 553 903 499 q 847 660 874 608 q 781 755 819 711 q 693 829 742 799 l 408 57 q 529 35 468 35 z "},"Õ":{"ha":1057,"x_min":51,"x_max":997,"o":"m 531 931 q 725 892 639 931 q 872 790 811 854 q 965 640 932 725 q 997 461 997 554 q 959 269 997 357 q 854 119 921 182 q 699 22 788 57 q 511 -14 611 -14 q 319 25 404 -14 q 174 128 233 64 q 83 275 115 192 q 51 449 51 358 q 83 624 51 538 q 177 779 115 711 q 328 889 239 847 q 531 931 417 931 m 529 35 q 692 77 622 39 q 810 174 763 115 q 880 304 857 233 q 903 444 903 375 q 875 599 903 521 q 796 740 847 676 q 673 842 744 803 q 513 882 601 882 q 358 844 426 882 q 242 746 290 806 q 169 613 194 686 q 144 468 144 539 q 174 315 144 392 q 254 175 203 238 q 376 74 306 113 q 529 35 446 35 m 686 1065 q 653 983 669 1003 q 608 964 638 964 q 571 972 592 964 q 528 991 550 981 q 484 1010 506 1001 q 444 1019 463 1019 q 409 1004 424 1019 q 376 964 394 989 l 369 965 q 415 1048 389 1024 q 468 1072 440 1072 q 504 1064 485 1072 q 542 1045 524 1056 q 581 1026 561 1035 q 617 1018 600 1018 q 654 1033 639 1018 q 681 1067 669 1047 l 686 1065 z "},"P":{"ha":628,"x_min":61,"x_max":572,"o":"m 61 917 l 258 917 q 492 858 413 917 q 572 690 572 799 q 544 586 572 632 q 472 509 517 540 q 370 461 426 478 q 258 444 314 444 l 206 444 l 206 90 q 208 66 206 79 q 217 42 211 53 q 231 22 224 31 q 250 14 239 14 l 257 14 l 257 0 l 61 0 l 61 14 l 68 14 q 86 22 78 14 q 100 42 94 31 q 108 66 106 53 q 111 90 111 79 l 111 831 q 100 875 111 850 q 68 903 89 900 l 61 903 l 61 917 m 206 868 l 206 493 l 247 493 q 347 508 303 493 q 419 549 390 524 q 464 606 449 574 q 479 671 479 638 q 466 747 479 711 q 423 809 453 782 q 344 852 393 836 q 225 868 296 868 l 206 868 z "},"Q":{"ha":1071,"x_min":56,"x_max":1797,"o":"m 533 931 q 728 890 642 931 q 874 783 814 849 q 967 633 935 717 q 1000 464 1000 550 q 988 349 1000 401 q 953 251 975 296 q 902 170 931 207 q 840 103 874 133 l 886 51 q 1004 -38 940 1 q 1133 -105 1068 -78 q 1263 -146 1199 -132 q 1379 -160 1326 -160 q 1477 -151 1425 -160 q 1583 -126 1529 -143 q 1689 -83 1636 -110 q 1789 -18 1742 -56 l 1797 -31 q 1694 -119 1751 -81 q 1575 -182 1638 -157 q 1447 -220 1513 -207 q 1317 -233 1381 -233 q 1189 -222 1253 -233 q 1061 -185 1125 -211 q 933 -113 997 -158 q 806 0 869 -68 l 758 50 q 705 23 735 35 q 642 3 675 11 q 574 -10 608 -6 q 508 -14 539 -14 q 328 26 411 -14 q 185 130 246 65 q 90 278 125 194 q 56 449 56 361 q 88 624 56 538 q 181 779 119 711 q 332 889 243 847 q 533 931 421 931 m 532 35 q 696 77 625 39 q 813 174 767 115 q 883 304 860 233 q 907 443 907 375 q 878 598 907 519 q 799 740 850 676 q 676 842 749 803 q 517 882 604 882 q 362 844 431 882 q 246 746 293 806 q 174 613 199 686 q 149 469 149 540 q 177 315 149 393 q 257 175 206 238 q 378 74 308 113 q 532 35 449 35 z "},"R":{"ha":750,"x_min":63,"x_max":729,"o":"m 251 14 l 258 14 l 258 0 l 63 0 l 63 14 l 69 14 q 88 22 79 14 q 102 42 96 31 q 111 66 108 53 q 114 90 114 79 l 114 831 q 111 853 114 840 q 102 876 108 865 q 88 895 96 888 q 69 903 79 903 l 63 903 l 63 917 l 304 917 q 519 863 443 917 q 594 703 594 808 q 577 610 594 650 q 531 542 560 571 q 462 497 501 514 q 378 471 422 479 l 478 318 q 551 209 514 263 q 625 99 589 156 q 647 69 635 85 q 672 42 658 54 q 699 22 685 29 q 729 14 714 14 l 729 0 l 669 0 q 578 27 614 0 q 519 90 543 54 q 395 276 457 182 q 272 463 333 371 q 240 466 257 464 q 207 471 222 468 l 207 90 q 210 66 207 79 q 219 42 213 53 q 233 22 225 31 q 251 14 240 14 m 207 869 l 207 517 l 214 517 q 249 515 225 515 q 310 514 274 514 q 372 523 339 514 q 433 553 404 532 q 480 610 461 575 q 499 697 499 644 q 478 783 499 750 q 423 836 458 817 q 338 863 388 856 q 228 869 288 869 l 207 869 z "},"S":{"ha":681,"x_min":50,"x_max":625,"o":"m 625 246 q 597 127 625 176 q 526 47 569 78 q 427 3 482 17 q 318 -11 372 -11 q 222 0 263 -11 q 149 21 182 11 q 108 33 126 28 q 72 38 90 38 l 72 196 l 86 196 q 113 112 86 143 q 176 64 140 81 q 249 42 213 47 q 301 38 285 38 q 404 55 361 38 q 475 101 447 72 q 516 164 503 129 q 529 235 529 199 q 510 312 529 281 q 459 367 490 343 q 388 407 428 390 q 306 440 347 424 q 213 478 258 458 q 131 526 167 497 q 72 594 94 554 q 50 692 50 633 q 74 798 50 753 q 137 872 97 843 q 227 916 176 901 q 331 931 278 931 q 399 926 367 931 q 460 914 431 921 q 506 905 483 908 q 549 901 528 901 l 549 758 l 535 758 q 478 856 532 831 q 328 882 424 882 q 237 863 272 882 q 181 817 201 844 q 152 759 160 790 q 144 704 144 728 q 162 638 144 665 q 208 589 179 610 q 276 551 238 568 q 356 519 314 535 q 451 481 403 501 q 538 429 500 460 q 601 354 576 399 q 625 246 625 310 z "},"Š":{"ha":681,"x_min":50,"x_max":625,"o":"m 625 246 q 597 127 625 176 q 526 47 569 78 q 427 3 482 17 q 318 -11 372 -11 q 222 0 263 -11 q 149 21 182 11 q 108 33 126 28 q 72 38 90 38 l 72 196 l 86 196 q 113 112 86 143 q 176 64 140 81 q 249 42 213 47 q 301 38 285 38 q 404 55 361 38 q 475 101 447 72 q 516 164 503 129 q 529 235 529 199 q 510 312 529 281 q 459 367 490 343 q 388 407 428 390 q 306 440 347 424 q 213 478 258 458 q 131 526 167 497 q 72 594 94 554 q 50 692 50 633 q 74 798 50 753 q 137 872 97 843 q 227 916 176 901 q 331 931 278 931 q 399 926 367 931 q 460 914 431 921 q 506 905 483 908 q 549 901 528 901 l 549 758 l 535 758 q 478 856 532 831 q 328 882 424 882 q 237 863 272 882 q 181 817 201 844 q 152 759 160 790 q 144 704 144 728 q 162 638 144 665 q 208 589 179 610 q 276 551 238 568 q 356 519 314 535 q 451 481 403 501 q 538 429 500 460 q 601 354 576 399 q 625 246 625 310 m 172 1097 l 340 1018 l 506 1097 l 508 1092 l 340 947 l 168 1092 l 172 1097 z "},"T":{"ha":650,"x_min":13,"x_max":636,"o":"m 414 14 l 421 14 l 421 0 l 224 0 l 224 14 l 231 14 q 250 22 242 14 q 265 42 258 31 q 274 66 271 53 q 276 90 276 79 l 276 865 l 115 865 q 76 856 93 865 q 49 831 60 846 q 32 799 38 817 q 26 765 26 782 l 13 765 l 13 917 l 636 917 l 636 765 l 622 765 q 617 799 622 782 q 600 831 611 817 q 572 856 589 846 q 533 865 556 865 l 369 865 l 369 90 q 372 66 369 79 q 381 42 375 53 q 395 22 388 31 q 414 14 403 14 z "},"Þ":{"ha":636,"x_min":61,"x_max":574,"o":"m 253 14 l 260 14 l 260 0 l 61 0 l 61 14 l 68 14 q 88 22 79 14 q 102 41 96 29 q 111 66 108 53 q 114 90 114 79 l 114 831 q 111 853 114 840 q 102 876 108 865 q 88 895 96 888 q 68 903 79 903 l 61 903 l 61 917 l 260 917 l 260 903 l 253 903 q 235 895 243 903 q 221 877 226 888 q 212 853 215 867 q 208 831 208 840 l 208 806 l 260 806 q 494 747 414 806 q 574 581 574 689 q 546 475 574 521 q 473 398 518 429 q 372 350 428 367 q 260 333 315 333 l 208 333 l 208 90 q 211 66 208 79 q 220 42 214 53 q 234 22 226 31 q 253 14 242 14 m 249 382 q 348 397 304 382 q 421 438 392 413 q 465 494 450 463 q 481 560 481 526 q 467 636 481 600 q 424 699 454 672 q 346 742 394 726 q 226 757 297 757 l 208 757 l 208 382 l 249 382 z "},"U":{"ha":811,"x_min":63,"x_max":742,"o":"m 63 917 l 260 917 l 260 903 l 253 903 q 233 895 242 903 q 219 876 225 888 q 210 853 213 865 q 207 831 207 840 l 207 282 q 218 182 207 228 q 256 103 229 136 q 325 51 282 69 q 431 32 368 32 q 542 54 500 32 q 606 112 583 76 q 635 192 628 147 q 642 279 642 236 l 642 831 q 639 853 642 840 q 630 876 636 865 q 615 895 624 888 q 597 903 607 903 l 590 903 l 590 917 l 742 917 l 742 903 l 735 903 q 716 895 724 903 q 702 876 708 888 q 693 853 696 865 q 690 831 690 840 l 690 283 q 668 135 690 193 q 607 44 646 78 q 516 -1 568 11 q 406 -14 464 -14 q 290 -1 343 -14 q 197 46 236 13 q 136 137 158 79 q 114 282 114 194 l 114 831 q 111 853 114 840 q 102 876 108 865 q 88 895 96 888 q 69 903 79 903 l 63 903 l 63 917 z "},"Ú":{"ha":811,"x_min":63,"x_max":742,"o":"m 63 917 l 260 917 l 260 903 l 253 903 q 233 895 242 903 q 219 876 225 888 q 210 853 213 865 q 207 831 207 840 l 207 282 q 218 182 207 228 q 256 103 229 136 q 325 51 282 69 q 431 32 368 32 q 542 54 500 32 q 606 112 583 76 q 635 192 628 147 q 642 279 642 236 l 642 831 q 639 853 642 840 q 630 876 636 865 q 615 895 624 888 q 597 903 607 903 l 590 903 l 590 917 l 742 917 l 742 903 l 735 903 q 716 895 724 903 q 702 876 708 888 q 693 853 696 865 q 690 831 690 840 l 690 283 q 668 135 690 193 q 607 44 646 78 q 516 -1 568 11 q 406 -14 464 -14 q 290 -1 343 -14 q 197 46 236 13 q 136 137 158 79 q 114 282 114 194 l 114 831 q 111 853 114 840 q 102 876 108 865 q 88 895 96 888 q 69 903 79 903 l 63 903 l 63 917 m 288 956 l 485 1104 l 521 1042 l 292 947 l 288 956 z "},"Û":{"ha":811,"x_min":63,"x_max":742,"o":"m 63 917 l 260 917 l 260 903 l 253 903 q 233 895 242 903 q 219 876 225 888 q 210 853 213 865 q 207 831 207 840 l 207 282 q 218 182 207 228 q 256 103 229 136 q 325 51 282 69 q 431 32 368 32 q 542 54 500 32 q 606 112 583 76 q 635 192 628 147 q 642 279 642 236 l 642 831 q 639 853 642 840 q 630 876 636 865 q 615 895 624 888 q 597 903 607 903 l 590 903 l 590 917 l 742 917 l 742 903 l 735 903 q 716 895 724 903 q 702 876 708 888 q 693 853 696 865 q 690 831 690 840 l 690 283 q 668 135 690 193 q 607 44 646 78 q 516 -1 568 11 q 406 -14 464 -14 q 290 -1 343 -14 q 197 46 236 13 q 136 137 158 79 q 114 282 114 194 l 114 831 q 111 853 114 840 q 102 876 108 865 q 88 895 96 888 q 69 903 79 903 l 63 903 l 63 917 m 572 951 l 404 1033 l 238 951 l 235 958 l 404 1101 l 574 958 l 572 951 z "},"Ü":{"ha":811,"x_min":63,"x_max":742,"o":"m 63 917 l 260 917 l 260 903 l 253 903 q 233 895 242 903 q 219 876 225 888 q 210 853 213 865 q 207 831 207 840 l 207 282 q 218 182 207 228 q 256 103 229 136 q 325 51 282 69 q 431 32 368 32 q 542 54 500 32 q 606 112 583 76 q 635 192 628 147 q 642 279 642 236 l 642 831 q 639 853 642 840 q 630 876 636 865 q 615 895 624 888 q 597 903 607 903 l 590 903 l 590 917 l 742 917 l 742 903 l 735 903 q 716 895 724 903 q 702 876 708 888 q 693 853 696 865 q 690 831 690 840 l 690 283 q 668 135 690 193 q 607 44 646 78 q 516 -1 568 11 q 406 -14 464 -14 q 290 -1 343 -14 q 197 46 236 13 q 136 137 158 79 q 114 282 114 194 l 114 831 q 111 853 114 840 q 102 876 108 865 q 88 895 96 888 q 69 903 79 903 l 63 903 l 63 917 m 529 997 q 517 965 529 978 q 488 953 504 953 q 455 965 468 953 q 442 997 442 978 q 455 1029 442 1017 q 488 1042 468 1042 q 517 1029 504 1042 q 529 997 529 1017 m 369 997 q 357 965 369 978 q 325 953 344 953 q 293 965 306 953 q 281 997 281 978 q 293 1029 281 1017 q 325 1042 306 1042 q 357 1029 344 1042 q 369 997 369 1017 z "},"Ù":{"ha":811,"x_min":63,"x_max":742,"o":"m 63 917 l 260 917 l 260 903 l 253 903 q 233 895 242 903 q 219 876 225 888 q 210 853 213 865 q 207 831 207 840 l 207 282 q 218 182 207 228 q 256 103 229 136 q 325 51 282 69 q 431 32 368 32 q 542 54 500 32 q 606 112 583 76 q 635 192 628 147 q 642 279 642 236 l 642 831 q 639 853 642 840 q 630 876 636 865 q 615 895 624 888 q 597 903 607 903 l 590 903 l 590 917 l 742 917 l 742 903 l 735 903 q 716 895 724 903 q 702 876 708 888 q 693 853 696 865 q 690 831 690 840 l 690 283 q 668 135 690 193 q 607 44 646 78 q 516 -1 568 11 q 406 -14 464 -14 q 290 -1 343 -14 q 197 46 236 13 q 136 137 158 79 q 114 282 114 194 l 114 831 q 111 853 114 840 q 102 876 108 865 q 88 895 96 888 q 69 903 79 903 l 63 903 l 63 917 m 518 947 l 288 1042 l 324 1104 l 521 956 l 518 947 z "},"V":{"ha":818,"x_min":15,"x_max":788,"o":"m 176 868 q 181 847 176 860 l 425 189 l 669 854 q 672 863 671 857 q 674 871 674 868 q 660 895 674 888 q 636 903 647 903 l 636 917 l 788 917 l 788 903 q 749 892 767 903 q 722 854 732 881 l 404 -17 l 79 850 q 55 886 71 871 q 15 903 39 901 l 15 917 l 213 917 l 213 903 q 188 894 200 903 q 176 868 176 885 z "},"W":{"ha":1119,"x_min":21,"x_max":1099,"o":"m 1099 903 q 1051 879 1071 903 q 1025 828 1032 856 l 772 -6 l 556 678 l 339 -7 l 85 826 q 60 878 78 853 q 21 903 43 903 l 21 917 l 218 917 l 218 903 q 188 888 200 903 q 176 851 176 874 q 179 833 176 844 l 360 244 l 581 925 l 793 246 l 976 833 q 978 845 976 836 q 981 860 981 854 q 969 891 981 879 q 947 903 958 903 l 947 917 l 1099 917 l 1099 903 z "},"X":{"ha":714,"x_min":15,"x_max":688,"o":"m 301 460 l 108 821 q 92 847 101 832 q 74 874 83 861 q 52 894 64 886 q 28 903 40 903 l 28 917 l 225 917 l 225 903 q 206 892 217 903 q 196 864 196 881 q 201 844 196 854 l 358 553 l 501 831 q 506 839 501 835 q 512 853 508 846 q 515 868 515 861 q 500 897 515 890 q 481 903 485 903 l 481 917 l 635 917 l 635 903 q 590 877 611 903 q 556 826 568 851 l 386 503 l 603 94 q 619 68 610 82 q 640 42 629 54 q 663 22 651 29 q 688 14 675 14 l 688 0 l 490 0 l 490 14 q 507 25 499 14 q 515 51 515 36 q 507 76 515 61 l 331 407 l 157 76 q 149 57 153 68 q 146 36 146 46 q 167 14 146 14 l 167 0 l 15 0 l 15 14 q 38 20 25 14 q 63 36 50 26 q 86 58 75 46 q 104 82 97 71 l 301 460 z "},"Y":{"ha":735,"x_min":4,"x_max":708,"o":"m 4 917 l 196 917 l 196 903 q 178 894 186 901 q 169 874 169 888 q 174 858 169 867 l 382 493 l 582 839 q 590 856 588 850 q 592 869 592 861 q 576 897 589 892 q 560 903 563 903 l 560 917 l 708 917 l 708 903 q 666 877 688 903 q 629 825 644 851 l 413 450 l 413 90 q 416 67 413 79 q 425 42 419 54 q 439 22 431 31 q 458 14 447 14 l 465 14 l 465 0 l 267 0 l 267 14 l 274 14 q 293 22 285 14 q 308 41 301 29 q 317 66 314 53 q 319 90 319 79 l 319 438 l 96 821 q 79 846 89 832 q 58 872 69 860 q 35 894 47 885 q 11 903 22 903 l 4 903 l 4 917 z "},"Ý":{"ha":735,"x_min":4,"x_max":708,"o":"m 4 917 l 196 917 l 196 903 q 178 894 186 901 q 169 874 169 888 q 174 858 169 867 l 382 493 l 582 839 q 590 856 588 850 q 592 869 592 861 q 576 897 589 892 q 560 903 563 903 l 560 917 l 708 917 l 708 903 q 666 877 688 903 q 629 825 644 851 l 413 450 l 413 90 q 416 67 413 79 q 425 42 419 54 q 439 22 431 31 q 458 14 447 14 l 465 14 l 465 0 l 267 0 l 267 14 l 274 14 q 293 22 285 14 q 308 41 301 29 q 317 66 314 53 q 319 90 319 79 l 319 438 l 96 821 q 79 846 89 832 q 58 872 69 860 q 35 894 47 885 q 11 903 22 903 l 4 903 l 4 917 m 250 956 l 447 1104 l 483 1042 l 254 947 l 250 956 z "},"Ÿ":{"ha":735,"x_min":4,"x_max":708,"o":"m 4 917 l 196 917 l 196 903 q 178 894 186 901 q 169 874 169 888 q 174 858 169 867 l 382 493 l 582 839 q 590 856 588 850 q 592 869 592 861 q 576 897 589 892 q 560 903 563 903 l 560 917 l 708 917 l 708 903 q 666 877 688 903 q 629 825 644 851 l 413 450 l 413 90 q 416 67 413 79 q 425 42 419 54 q 439 22 431 31 q 458 14 447 14 l 465 14 l 465 0 l 267 0 l 267 14 l 274 14 q 293 22 285 14 q 308 41 301 29 q 317 66 314 53 q 319 90 319 79 l 319 438 l 96 821 q 79 846 89 832 q 58 872 69 860 q 35 894 47 885 q 11 903 22 903 l 4 903 l 4 917 m 490 997 q 478 965 490 978 q 449 953 465 953 q 416 965 429 953 q 403 997 403 978 q 416 1029 403 1017 q 449 1042 429 1042 q 478 1029 465 1042 q 490 997 490 1017 m 331 997 q 318 965 331 978 q 286 953 306 953 q 254 965 267 953 q 242 997 242 978 q 254 1029 242 1017 q 286 1042 267 1042 q 318 1029 306 1042 q 331 997 331 1017 z "},"Z":{"ha":653,"x_min":24,"x_max":619,"o":"m 24 0 l 485 868 l 163 868 q 124 858 140 868 q 96 831 107 847 q 79 797 85 815 q 74 761 74 778 l 60 761 l 60 917 l 619 917 l 158 49 l 515 49 q 554 59 538 49 q 582 86 571 69 q 599 122 593 103 q 604 157 604 140 l 618 157 l 618 0 l 24 0 z "},"Ž":{"ha":653,"x_min":24,"x_max":619,"o":"m 24 0 l 485 868 l 163 868 q 124 858 140 868 q 96 831 107 847 q 79 797 85 815 q 74 761 74 778 l 60 761 l 60 917 l 619 917 l 158 49 l 515 49 q 554 59 538 49 q 582 86 571 69 q 599 122 593 103 q 604 157 604 140 l 618 157 l 618 0 l 24 0 m 158 1097 l 326 1018 l 492 1097 l 494 1092 l 326 947 l 154 1092 l 158 1097 z "},"a":{"ha":635,"x_min":50,"x_max":564,"o":"m 429 0 l 429 71 l 422 64 q 342 10 388 29 q 233 -10 297 -10 q 150 1 185 -10 q 93 33 115 13 q 60 79 71 53 q 50 135 50 106 q 76 218 50 182 q 150 282 101 254 q 269 333 199 310 q 429 378 339 356 q 407 465 426 432 q 361 517 388 499 q 306 542 335 536 q 256 549 276 549 q 192 538 219 549 q 145 509 165 526 q 111 472 125 492 q 89 433 97 451 l 76 433 l 76 535 q 97 542 88 536 q 121 553 107 547 q 178 577 142 561 q 279 593 214 593 q 403 574 356 593 q 476 522 450 554 q 510 449 501 490 q 518 365 518 408 l 518 90 q 531 38 518 63 q 564 14 543 14 l 564 0 l 429 0 m 429 132 l 429 331 l 415 328 q 334 306 382 319 q 243 269 286 292 q 169 217 200 247 q 139 146 139 186 q 175 72 139 101 q 269 43 211 43 q 350 63 315 43 q 414 115 385 83 l 429 132 z "},"á":{"ha":635,"x_min":50,"x_max":564,"o":"m 429 0 l 429 71 l 422 64 q 342 10 388 29 q 233 -10 297 -10 q 150 1 185 -10 q 93 33 115 13 q 60 79 71 53 q 50 135 50 106 q 76 218 50 182 q 150 282 101 254 q 269 333 199 310 q 429 378 339 356 q 407 465 426 432 q 361 517 388 499 q 306 542 335 536 q 256 549 276 549 q 192 538 219 549 q 145 509 165 526 q 111 472 125 492 q 89 433 97 451 l 76 433 l 76 535 q 97 542 88 536 q 121 553 107 547 q 178 577 142 561 q 279 593 214 593 q 403 574 356 593 q 476 522 450 554 q 510 449 501 490 q 518 365 518 408 l 518 90 q 531 38 518 63 q 564 14 543 14 l 564 0 l 429 0 m 429 132 l 429 331 l 415 328 q 334 306 382 319 q 243 269 286 292 q 169 217 200 247 q 139 146 139 186 q 175 72 139 101 q 269 43 211 43 q 350 63 315 43 q 414 115 385 83 l 429 132 m 200 622 l 397 771 l 433 708 l 204 614 l 200 622 z "},"â":{"ha":635,"x_min":50,"x_max":564,"o":"m 429 0 l 429 71 l 422 64 q 342 10 388 29 q 233 -10 297 -10 q 150 1 185 -10 q 93 33 115 13 q 60 79 71 53 q 50 135 50 106 q 76 218 50 182 q 150 282 101 254 q 269 333 199 310 q 429 378 339 356 q 407 465 426 432 q 361 517 388 499 q 306 542 335 536 q 256 549 276 549 q 192 538 219 549 q 145 509 165 526 q 111 472 125 492 q 89 433 97 451 l 76 433 l 76 535 q 97 542 88 536 q 121 553 107 547 q 178 577 142 561 q 279 593 214 593 q 403 574 356 593 q 476 522 450 554 q 510 449 501 490 q 518 365 518 408 l 518 90 q 531 38 518 63 q 564 14 543 14 l 564 0 l 429 0 m 429 132 l 429 331 l 415 328 q 334 306 382 319 q 243 269 286 292 q 169 217 200 247 q 139 146 139 186 q 175 72 139 101 q 269 43 211 43 q 350 63 315 43 q 414 115 385 83 l 429 132 m 443 618 l 275 700 l 108 618 l 106 625 l 275 768 l 444 625 l 443 618 z "},"´":{"ha":308,"x_min":33,"x_max":267,"o":"m 33 622 l 231 771 l 267 708 l 38 614 l 33 622 z "},"ä":{"ha":635,"x_min":50,"x_max":564,"o":"m 429 0 l 429 71 l 422 64 q 342 10 388 29 q 233 -10 297 -10 q 150 1 185 -10 q 93 33 115 13 q 60 79 71 53 q 50 135 50 106 q 76 218 50 182 q 150 282 101 254 q 269 333 199 310 q 429 378 339 356 q 407 465 426 432 q 361 517 388 499 q 306 542 335 536 q 256 549 276 549 q 192 538 219 549 q 145 509 165 526 q 111 472 125 492 q 89 433 97 451 l 76 433 l 76 535 q 97 542 88 536 q 121 553 107 547 q 178 577 142 561 q 279 593 214 593 q 403 574 356 593 q 476 522 450 554 q 510 449 501 490 q 518 365 518 408 l 518 90 q 531 38 518 63 q 564 14 543 14 l 564 0 l 429 0 m 429 132 l 429 331 l 415 328 q 334 306 382 319 q 243 269 286 292 q 169 217 200 247 q 139 146 139 186 q 175 72 139 101 q 269 43 211 43 q 350 63 315 43 q 414 115 385 83 l 429 132 m 401 683 q 389 651 401 664 q 360 639 376 639 q 327 651 340 639 q 314 683 314 664 q 327 715 314 703 q 360 728 340 728 q 389 715 376 728 q 401 683 401 703 m 242 683 q 229 651 242 664 q 197 639 217 639 q 165 651 178 639 q 153 683 153 664 q 165 715 153 703 q 197 728 178 728 q 229 715 217 728 q 242 683 242 703 z "},"æ":{"ha":1054,"x_min":63,"x_max":996,"o":"m 758 39 q 823 48 789 39 q 886 74 857 57 q 938 115 915 90 q 969 169 961 139 l 983 169 l 983 65 q 963 60 974 65 q 939 46 953 54 q 864 10 911 29 q 739 -8 817 -8 q 592 23 658 -8 q 485 118 525 54 q 459 92 474 107 q 433 65 444 76 q 355 11 400 31 q 244 -8 310 -8 q 161 3 196 -8 q 105 34 126 14 q 73 81 83 54 q 63 136 63 107 q 88 219 63 183 q 161 283 113 256 q 280 334 210 311 q 440 379 350 357 q 418 467 438 433 q 372 519 399 500 q 317 544 346 538 q 267 550 289 550 q 203 539 231 550 q 157 510 176 528 q 124 473 138 493 q 101 435 110 453 l 89 435 l 89 536 q 110 542 100 538 q 132 554 121 547 q 185 580 147 565 q 290 594 224 594 q 433 566 383 594 q 506 493 482 538 q 599 565 542 536 q 735 594 656 594 q 854 571 804 594 q 935 506 904 547 q 981 407 967 464 q 996 282 996 350 l 529 282 l 529 269 q 551 182 535 224 q 597 108 568 140 q 665 58 625 76 q 758 39 704 39 m 729 549 q 648 531 683 549 q 588 484 613 513 q 549 419 564 456 q 529 344 535 382 l 529 332 l 910 332 q 898 411 908 372 q 865 481 888 450 q 810 530 843 511 q 729 549 776 549 m 467 154 q 440 300 440 219 q 440 317 440 308 q 442 335 440 326 l 426 329 q 346 307 393 321 q 255 271 299 293 q 181 218 211 249 q 150 146 150 188 q 186 73 150 101 q 281 44 222 44 q 361 65 328 44 q 425 114 394 86 l 467 154 z "},"à":{"ha":635,"x_min":50,"x_max":564,"o":"m 429 0 l 429 71 l 422 64 q 342 10 388 29 q 233 -10 297 -10 q 150 1 185 -10 q 93 33 115 13 q 60 79 71 53 q 50 135 50 106 q 76 218 50 182 q 150 282 101 254 q 269 333 199 310 q 429 378 339 356 q 407 465 426 432 q 361 517 388 499 q 306 542 335 536 q 256 549 276 549 q 192 538 219 549 q 145 509 165 526 q 111 472 125 492 q 89 433 97 451 l 76 433 l 76 535 q 97 542 88 536 q 121 553 107 547 q 178 577 142 561 q 279 593 214 593 q 403 574 356 593 q 476 522 450 554 q 510 449 501 490 q 518 365 518 408 l 518 90 q 531 38 518 63 q 564 14 543 14 l 564 0 l 429 0 m 429 132 l 429 331 l 415 328 q 334 306 382 319 q 243 269 286 292 q 169 217 200 247 q 139 146 139 186 q 175 72 139 101 q 269 43 211 43 q 350 63 315 43 q 414 115 385 83 l 429 132 m 431 614 l 200 708 l 236 771 l 433 622 l 431 614 z "},"&":{"ha":1067,"x_min":54,"x_max":1036,"o":"m 888 103 q 943 58 917 78 q 992 28 967 42 q 1036 14 1017 14 l 1036 0 l 958 0 q 865 20 906 0 q 789 68 825 40 l 651 176 q 497 31 576 75 q 319 -12 417 -12 q 208 6 257 -12 q 124 56 158 25 q 72 129 90 88 q 54 215 54 171 q 103 378 54 311 q 265 500 151 446 q 163 610 199 556 q 126 722 126 664 q 142 799 126 763 q 185 862 157 835 q 249 905 213 889 q 331 921 286 921 q 424 903 383 921 q 492 856 464 885 q 533 788 519 826 q 547 711 547 750 q 515 604 547 660 q 404 503 483 549 q 536 393 468 450 q 671 283 604 336 q 716 394 699 339 q 744 497 733 450 q 758 578 754 543 q 761 628 761 613 q 747 660 761 646 q 717 675 733 675 l 717 689 l 860 689 l 860 675 q 831 662 846 675 q 814 629 817 649 q 790 489 806 557 q 757 367 778 431 q 706 256 736 303 q 765 203 733 229 q 828 151 797 176 l 888 103 m 213 726 q 267 631 222 678 q 363 540 311 583 q 446 608 417 563 q 475 696 475 653 q 465 761 475 729 q 434 819 454 793 q 383 860 414 844 q 310 876 351 876 q 237 840 264 876 q 210 754 210 804 q 210 740 210 747 q 213 726 210 733 m 360 36 q 495 83 428 36 q 618 206 563 131 q 463 335 542 269 q 307 464 383 401 q 182 364 222 424 q 142 243 142 304 q 158 169 142 206 q 204 104 175 133 q 274 56 233 75 q 360 36 314 38 z "},"å":{"ha":635,"x_min":50,"x_max":564,"o":"m 429 0 l 429 71 l 422 64 q 342 10 388 29 q 233 -10 297 -10 q 150 1 185 -10 q 93 33 115 13 q 60 79 71 53 q 50 135 50 106 q 76 218 50 182 q 150 282 101 254 q 269 333 199 310 q 429 378 339 356 q 407 465 426 432 q 361 517 388 499 q 306 542 335 536 q 256 549 276 549 q 192 538 219 549 q 145 509 165 526 q 111 472 125 492 q 89 433 97 451 l 76 433 l 76 535 q 97 542 88 536 q 121 553 107 547 q 178 577 142 561 q 279 593 214 593 q 403 574 356 593 q 476 522 450 554 q 510 449 501 490 q 518 365 518 408 l 518 90 q 531 38 518 63 q 564 14 543 14 l 564 0 l 429 0 m 429 132 l 429 331 l 415 328 q 334 306 382 319 q 243 269 286 292 q 169 217 200 247 q 139 146 139 186 q 175 72 139 101 q 269 43 211 43 q 350 63 315 43 q 414 115 385 83 l 429 132 m 176 740 q 205 800 176 776 q 276 824 233 824 q 349 800 319 824 q 378 740 378 776 q 349 681 378 704 q 276 658 319 658 q 205 681 233 658 q 176 740 176 704 m 215 749 q 236 699 215 719 q 286 679 257 679 q 325 695 310 679 q 340 736 340 711 q 318 782 340 761 q 268 803 296 803 q 231 787 246 803 q 215 749 215 771 z "},"^":{"ha":560,"x_min":31,"x_max":522,"o":"m 522 668 l 467 615 l 276 808 l 83 615 l 31 668 l 276 913 l 522 668 z "},"~":{"ha":772,"x_min":51,"x_max":711,"o":"m 711 529 q 644 413 689 454 q 532 372 599 372 q 440 390 482 372 q 358 431 397 408 q 292 464 325 449 q 224 479 260 479 q 179 476 203 479 q 134 463 156 472 q 94 435 113 453 q 65 389 75 417 l 51 392 q 96 474 72 443 q 144 522 119 506 q 194 544 169 539 q 238 549 218 549 q 329 531 289 549 q 408 490 369 513 q 477 455 443 471 q 550 439 511 439 q 592 443 571 439 q 634 458 614 447 q 670 486 654 468 q 697 532 686 504 l 711 529 z "},"*":{"ha":449,"x_min":60,"x_max":378,"o":"m 218 922 l 221 922 l 251 793 l 376 832 l 378 829 l 282 739 l 378 651 l 376 649 l 251 686 l 221 558 l 218 558 l 188 686 l 61 649 l 60 651 l 156 739 l 60 829 l 61 832 l 188 793 l 218 922 z "},"@":{"ha":1226,"x_min":68,"x_max":1143,"o":"m 1143 410 q 1117 265 1143 338 q 1042 133 1090 192 q 928 36 994 74 q 781 -1 861 -1 q 725 13 747 -1 q 690 49 703 26 q 672 99 678 71 q 667 154 667 126 l 667 181 q 616 114 646 146 q 553 57 586 82 q 488 17 521 32 q 426 3 454 3 q 391 10 408 3 q 360 35 374 18 q 338 78 346 51 q 329 143 329 106 q 357 313 329 236 q 431 442 385 389 q 536 525 476 496 q 660 554 596 554 q 706 549 683 554 q 751 535 728 544 q 755 544 754 539 q 758 553 756 550 q 759 555 758 554 q 760 557 760 556 q 769 576 764 567 q 782 599 774 586 l 846 590 q 817 513 831 558 q 793 416 804 468 q 776 309 782 364 q 769 206 769 254 q 783 99 769 142 q 831 56 797 56 q 927 81 885 56 q 999 151 969 107 q 1044 251 1029 194 q 1060 369 1060 307 q 1038 508 1060 439 q 972 633 1017 578 q 856 724 926 689 q 690 758 786 758 q 497 714 592 758 q 327 591 401 669 q 207 408 253 513 q 161 182 161 303 q 197 -1 161 75 q 293 -128 233 -78 q 431 -201 353 -178 q 592 -225 508 -225 q 774 -196 683 -225 q 940 -114 865 -167 l 949 -126 q 877 -182 919 -154 q 781 -232 835 -210 q 663 -268 726 -254 q 528 -282 599 -282 q 350 -255 433 -282 q 204 -172 267 -228 q 105 -31 142 -117 q 68 171 68 54 q 118 413 68 297 q 254 615 168 528 q 453 754 340 703 q 694 806 567 806 q 893 776 808 806 q 1033 693 978 746 q 1116 568 1089 640 q 1143 410 1143 496 m 676 283 q 698 384 688 340 q 725 476 708 428 q 683 495 706 489 q 643 501 661 501 q 556 467 594 501 q 492 381 518 432 q 451 274 465 331 q 438 171 438 217 q 450 113 438 129 q 478 96 463 96 q 524 117 497 96 q 580 167 551 138 q 634 228 608 196 q 676 283 660 260 z "},"ã":{"ha":635,"x_min":50,"x_max":564,"o":"m 429 0 l 429 71 l 422 64 q 342 10 388 29 q 233 -10 297 -10 q 150 1 185 -10 q 93 33 115 13 q 60 79 71 53 q 50 135 50 106 q 76 218 50 182 q 150 282 101 254 q 269 333 199 310 q 429 378 339 356 q 407 465 426 432 q 361 517 388 499 q 306 542 335 536 q 256 549 276 549 q 192 538 219 549 q 145 509 165 526 q 111 472 125 492 q 89 433 97 451 l 76 433 l 76 535 q 97 542 88 536 q 121 553 107 547 q 178 577 142 561 q 279 593 214 593 q 403 574 356 593 q 476 522 450 554 q 510 449 501 490 q 518 365 518 408 l 518 90 q 531 38 518 63 q 564 14 543 14 l 564 0 l 429 0 m 429 132 l 429 331 l 415 328 q 334 306 382 319 q 243 269 286 292 q 169 217 200 247 q 139 146 139 186 q 175 72 139 101 q 269 43 211 43 q 350 63 315 43 q 414 115 385 83 l 429 132 m 449 757 q 416 675 432 694 q 371 656 400 656 q 333 664 354 656 q 290 683 313 672 q 247 702 268 693 q 207 711 225 711 q 172 696 186 711 q 139 656 157 681 l 132 657 q 177 740 151 715 q 231 764 203 764 q 267 756 247 764 q 305 737 286 747 q 343 718 324 726 q 379 710 363 710 q 417 724 401 710 q 443 758 432 739 l 449 757 z "},"b":{"ha":714,"x_min":61,"x_max":653,"o":"m 360 593 q 490 568 435 593 q 581 501 544 543 q 635 406 617 460 q 653 297 653 353 q 635 185 653 240 q 580 87 617 131 q 489 17 543 43 q 364 -10 435 -10 q 268 12 311 -10 q 200 64 225 33 l 200 0 l 64 0 l 64 14 q 82 22 74 14 q 97 42 90 31 q 106 66 103 53 q 108 90 108 79 l 108 799 q 101 843 108 822 q 61 865 94 864 l 61 879 l 200 922 l 200 525 q 276 575 232 557 q 360 593 319 593 m 374 38 q 460 62 424 40 q 520 117 496 83 q 556 192 544 150 q 568 279 568 235 q 554 376 568 329 q 513 461 540 424 q 446 522 486 499 q 354 544 406 544 q 297 531 325 544 q 248 497 269 518 q 213 445 226 475 q 200 382 200 415 l 200 210 q 215 138 200 169 q 256 83 231 106 q 312 49 281 61 q 374 38 343 38 z "},"\\":{"ha":463,"x_min":7,"x_max":450,"o":"m 7 978 l 58 992 l 450 -68 l 399 -85 l 7 978 z "},"|":{"ha":217,"x_min":63,"x_max":153,"o":"m 63 -122 l 63 1032 l 153 1032 l 153 -122 l 63 -122 z "},"{":{"ha":357,"x_min":13,"x_max":346,"o":"m 332 -122 q 232 -112 267 -122 q 181 -74 197 -101 q 161 -3 164 -47 q 158 111 158 42 l 158 261 q 155 342 158 308 q 137 397 151 375 q 93 432 122 419 q 13 449 64 444 l 13 463 q 93 479 64 467 q 137 514 122 492 q 155 570 151 536 q 158 650 158 604 l 158 818 q 161 922 158 881 q 181 987 164 963 q 232 1021 197 1011 q 329 1031 267 1031 l 346 1031 l 346 1018 q 285 1008 307 1018 q 253 980 264 997 q 239 938 242 963 q 236 882 236 913 l 236 718 q 232 618 236 661 q 215 542 228 575 q 176 488 201 510 q 107 453 150 467 q 181 421 154 440 q 219 371 207 401 q 234 298 232 340 q 236 200 236 256 l 236 39 q 239 -22 236 6 q 253 -67 242 -49 q 285 -97 264 -86 q 346 -108 307 -107 l 346 -122 l 332 -122 z "},"}":{"ha":357,"x_min":7,"x_max":340,"o":"m 7 -122 l 7 -108 q 67 -97 46 -107 q 100 -67 89 -86 q 114 -22 111 -49 q 117 39 117 6 l 117 200 q 119 298 117 256 q 133 371 121 340 q 172 421 146 401 q 246 453 197 440 q 176 488 201 465 q 137 542 150 510 q 120 617 124 574 q 117 718 117 661 l 117 882 q 114 938 117 913 q 100 980 111 963 q 67 1008 89 997 q 7 1018 46 1018 l 7 1031 l 24 1031 q 122 1021 88 1031 q 174 987 157 1011 q 193 922 190 963 q 196 818 196 881 l 196 650 q 199 570 196 604 q 217 514 203 536 q 260 479 232 492 q 340 463 289 467 l 340 449 q 260 432 289 444 q 217 397 232 419 q 199 342 203 375 q 196 261 196 308 l 196 111 q 193 -3 196 42 q 174 -74 190 -47 q 122 -112 157 -101 q 21 -122 86 -122 l 7 -122 z "},"[":{"ha":233,"x_min":46,"x_max":217,"o":"m 46 -122 l 46 1031 l 217 1031 l 217 986 l 122 986 l 122 -78 l 217 -78 l 217 -122 l 46 -122 z "},"]":{"ha":242,"x_min":19,"x_max":193,"o":"m 19 -122 l 19 -78 l 117 -78 l 117 986 l 19 986 l 19 1031 l 193 1031 l 193 -122 l 19 -122 z "},"¦":{"ha":221,"x_min":63,"x_max":153,"o":"m 63 511 l 63 1031 l 153 1031 l 153 511 l 63 511 m 153 397 l 153 -122 l 63 -122 l 63 397 l 153 397 z "},"•":{"ha":288,"x_min":78,"x_max":219,"o":"m 78 206 l 78 331 l 219 331 l 219 206 l 78 206 z "},"c":{"ha":606,"x_min":50,"x_max":575,"o":"m 575 50 q 554 45 564 50 q 532 33 544 40 q 472 5 508 19 q 378 -10 436 -10 q 247 13 307 -10 q 142 77 186 36 q 74 173 99 118 q 50 292 50 228 q 72 406 50 351 q 133 501 93 460 q 233 568 174 543 q 367 593 292 593 q 450 581 418 593 q 504 558 482 569 q 528 547 517 551 q 553 543 540 543 l 553 438 l 539 438 q 514 484 532 464 q 472 518 496 504 q 421 539 449 532 q 367 546 393 546 q 267 526 310 546 q 196 473 224 506 q 154 399 168 440 q 140 313 140 357 q 157 212 140 261 q 205 124 174 163 q 281 61 236 85 q 381 38 325 38 q 452 49 419 38 q 508 78 485 60 q 544 117 531 96 q 561 158 558 139 l 575 158 l 575 50 z "},"ç":{"ha":606,"x_min":50,"x_max":575,"o":"m 364 -69 q 454 -99 426 -76 q 482 -150 482 -122 q 441 -217 482 -186 q 325 -249 400 -249 q 307 -248 315 -249 q 290 -246 299 -247 q 281 -245 286 -246 q 271 -244 275 -244 l 271 -233 l 286 -233 q 335 -227 313 -233 q 376 -210 358 -221 q 403 -185 393 -199 q 414 -157 414 -172 q 386 -113 414 -135 q 307 -85 358 -92 l 354 -8 q 232 19 288 -4 q 136 83 176 43 q 73 176 96 124 q 50 292 50 229 q 72 406 50 351 q 133 501 93 460 q 233 568 174 543 q 367 593 292 593 q 450 581 418 593 q 504 558 482 569 q 528 547 517 551 q 553 543 540 543 l 553 438 l 539 438 q 514 484 532 464 q 472 518 496 504 q 421 539 449 532 q 367 546 393 546 q 267 526 310 546 q 196 473 224 506 q 154 399 168 440 q 140 313 140 357 q 157 212 140 261 q 205 124 174 163 q 281 61 236 85 q 381 38 325 38 l 392 38 q 457 49 426 38 q 510 78 488 60 q 545 117 532 96 q 561 158 558 139 l 575 158 l 575 50 q 553 45 564 50 q 531 33 543 40 q 478 8 508 22 q 400 -8 447 -6 l 364 -69 z "},"¸":{"ha":322,"x_min":54,"x_max":265,"o":"m 149 -69 q 238 -99 210 -76 q 265 -150 265 -122 q 252 -189 265 -171 q 216 -220 239 -207 q 164 -242 193 -233 q 103 -250 135 -250 q 54 -244 76 -250 l 54 -233 l 69 -233 q 119 -227 96 -233 q 160 -210 143 -221 q 188 -185 178 -199 q 199 -157 199 -172 q 171 -113 199 -135 q 92 -85 143 -92 l 146 3 l 192 3 l 149 -69 z "},"¢":{"ha":606,"x_min":50,"x_max":575,"o":"m 321 -122 l 321 -6 q 213 30 263 4 q 126 95 163 56 q 70 185 90 135 q 50 292 50 235 q 69 397 50 346 q 122 488 88 447 q 207 555 157 528 q 321 590 257 582 l 321 700 l 375 700 l 375 593 q 451 581 419 590 q 503 560 483 571 q 528 548 517 553 q 553 543 540 543 l 553 438 l 539 438 q 515 482 532 463 q 475 515 497 501 q 426 536 453 528 q 375 546 400 544 l 375 38 l 392 38 q 457 49 426 38 q 510 78 488 60 q 545 117 532 96 q 561 158 558 139 l 575 158 l 575 50 q 556 45 565 50 q 533 33 546 40 l 532 33 q 470 6 508 19 q 375 -10 432 -8 l 375 -122 l 321 -122 m 140 313 q 153 228 140 271 q 191 150 167 186 q 248 86 215 114 q 321 44 281 58 l 321 542 q 242 511 276 533 q 185 458 208 489 q 151 389 163 426 q 140 313 140 351 z "},"ˆ":{"ha":372,"x_min":19,"x_max":358,"o":"m 357 618 l 189 700 l 22 618 l 19 625 l 189 768 l 358 625 l 357 618 z "},":":{"ha":279,"x_min":72,"x_max":204,"o":"m 72 471 q 91 518 72 499 q 138 538 110 538 q 185 518 165 538 q 204 471 204 499 q 185 424 204 443 q 138 406 165 406 q 91 424 110 406 q 72 471 72 443 m 72 60 q 91 107 72 88 q 138 126 110 126 q 185 107 165 126 q 204 60 204 88 q 185 13 204 32 q 138 -6 165 -6 q 91 13 110 -6 q 72 60 72 32 z "},",":{"ha":168,"x_min":-6,"x_max":153,"o":"m 75 129 q 134 101 115 129 q 153 38 153 74 q 147 -9 153 17 q 126 -60 142 -35 q 80 -112 110 -86 q 1 -160 50 -137 l -6 -147 q 38 -102 22 -122 q 62 -66 54 -82 q 72 -36 69 -50 q 74 -7 74 -22 q 67 10 74 4 q 51 22 60 17 q 29 38 40 29 q 18 69 18 47 q 35 113 18 96 q 75 129 51 129 z "},"©":{"ha":1036,"x_min":57,"x_max":968,"o":"m 57 453 q 92 632 57 549 q 190 777 128 715 q 335 874 251 839 q 513 910 418 910 q 690 874 607 910 q 835 777 774 839 q 933 632 897 715 q 968 453 968 549 q 933 276 968 358 q 835 131 897 193 q 690 34 774 69 q 513 -1 607 -1 q 335 34 418 -1 q 190 131 251 69 q 92 276 128 193 q 57 453 57 358 m 114 453 q 146 298 114 371 q 232 170 178 225 q 358 83 286 115 q 513 51 431 51 q 667 83 594 51 q 793 170 739 115 q 879 298 847 225 q 911 453 911 371 q 879 610 911 536 q 793 739 847 683 q 667 826 739 794 q 513 858 594 858 q 358 826 431 858 q 232 739 286 794 q 146 610 178 683 q 114 453 114 536 m 714 233 q 695 228 704 233 q 675 217 686 224 q 622 191 654 204 q 532 178 590 178 q 412 199 467 178 q 317 258 357 221 q 253 347 276 296 q 231 456 231 397 q 250 561 231 511 q 307 649 269 611 q 399 710 344 688 q 522 733 453 733 q 597 724 568 733 q 647 704 626 715 q 671 693 660 697 q 693 689 682 689 l 693 590 l 679 590 q 656 633 672 614 q 618 664 640 651 q 571 683 596 676 q 522 690 546 690 q 432 672 469 690 q 370 623 394 653 q 335 554 346 593 q 324 474 324 515 q 338 383 324 428 q 378 302 351 338 q 445 244 406 267 q 535 222 485 222 q 601 233 571 222 q 651 259 631 243 q 685 294 672 275 q 700 333 697 314 l 714 332 l 714 233 z "},"¤":{"ha":1019,"x_min":135,"x_max":871,"o":"m 221 224 q 167 307 193 253 q 142 444 142 361 q 167 584 142 529 q 221 668 193 639 l 135 751 l 196 813 l 282 728 q 392 788 333 769 q 503 807 450 807 q 615 788 556 807 q 724 728 674 769 l 810 813 l 871 751 l 785 668 q 838 584 813 639 q 864 444 864 529 q 838 307 864 361 q 785 224 813 253 l 871 139 l 810 79 l 724 164 q 615 103 674 122 q 503 85 556 85 q 392 103 450 85 q 282 164 333 122 l 196 79 l 135 139 l 221 224 m 210 444 q 233 331 210 383 q 296 238 256 278 q 389 176 336 199 q 503 153 442 153 q 617 176 564 153 q 710 238 671 199 q 773 331 750 278 q 796 444 796 383 q 773 559 796 506 q 710 652 750 613 q 617 715 671 692 q 503 738 564 738 q 389 715 442 738 q 296 652 336 692 q 233 559 256 613 q 210 444 210 506 z "},"d":{"ha":713,"x_min":51,"x_max":640,"o":"m 504 0 l 504 61 q 441 13 481 35 q 342 -10 401 -10 q 213 16 268 -10 q 122 83 158 42 q 69 178 86 125 q 51 289 51 232 q 69 399 51 344 q 124 497 88 454 q 214 567 160 540 q 339 593 268 593 q 432 576 386 593 q 504 531 478 558 l 504 801 q 497 846 504 825 q 457 868 490 867 l 457 882 l 596 925 l 596 90 q 599 66 596 79 q 607 42 601 53 q 621 22 613 31 q 640 14 629 14 l 640 0 l 504 0 m 351 36 q 408 48 381 36 q 457 80 436 60 q 491 127 478 100 q 504 186 504 154 l 504 376 q 488 447 504 415 q 446 500 471 478 q 391 534 421 522 q 333 546 361 546 q 251 524 288 546 q 190 469 215 503 q 153 392 165 435 q 140 308 140 350 q 154 212 140 260 q 195 126 168 164 q 261 63 222 88 q 351 36 300 38 z "},"†":{"ha":649,"x_min":51,"x_max":590,"o":"m 354 688 l 590 688 l 590 618 l 354 618 l 354 -122 l 286 -122 l 286 618 l 51 618 l 51 688 l 286 688 l 286 922 l 354 922 l 354 688 z "},"‡":{"ha":649,"x_min":51,"x_max":590,"o":"m 354 688 l 590 688 l 590 618 l 354 618 l 354 181 l 590 181 l 590 113 l 354 113 l 354 -122 l 286 -122 l 286 113 l 51 113 l 51 181 l 286 181 l 286 618 l 51 618 l 51 688 l 286 688 l 286 922 l 354 922 l 354 688 z "},"°":{"ha":339,"x_min":35,"x_max":303,"o":"m 35 793 q 73 889 35 850 q 168 928 111 928 q 220 917 196 928 q 263 889 244 907 q 292 846 282 871 q 303 793 303 821 q 263 698 303 736 q 168 660 224 660 q 73 698 111 660 q 35 793 35 736 m 82 793 q 107 732 82 757 q 168 707 132 707 q 228 732 203 707 q 254 793 254 757 q 228 856 254 829 q 168 882 203 882 q 107 856 132 882 q 82 793 82 829 z "},"¨":{"ha":249,"x_min":0,"x_max":249,"o":"m 249 664 q 236 632 249 644 q 207 619 224 619 q 174 632 188 619 q 161 664 161 644 q 174 696 161 683 q 207 708 188 708 q 236 696 224 708 q 249 664 249 683 m 89 664 q 76 632 89 644 q 44 619 64 619 q 13 632 25 619 q 0 664 0 644 q 13 696 0 683 q 44 708 25 708 q 76 696 64 708 q 89 664 89 683 z "},"÷":{"ha":688,"x_min":31,"x_max":618,"o":"m 31 419 l 31 488 l 618 488 l 618 419 l 31 419 m 249 667 q 267 713 249 694 q 313 732 286 732 q 360 713 340 732 q 379 667 379 694 q 360 619 379 639 q 313 600 340 600 q 267 619 286 600 q 249 667 249 639 m 249 254 q 267 301 249 282 q 313 321 286 321 q 360 301 340 321 q 379 254 379 282 q 360 208 379 226 q 313 189 340 189 q 267 208 286 189 q 249 254 249 226 z "},"$":{"ha":681,"x_min":50,"x_max":624,"o":"m 310 -122 l 310 -11 q 220 1 261 -8 q 149 21 179 10 q 108 33 128 28 q 72 38 89 38 l 72 194 l 86 194 q 113 111 86 142 q 176 64 140 81 q 249 42 213 47 q 301 38 285 38 l 310 38 l 310 438 q 217 474 264 454 q 133 523 171 494 q 73 592 96 551 q 50 692 50 633 q 72 792 50 749 q 130 864 93 835 q 213 909 167 893 q 310 928 260 925 l 310 1032 l 357 1032 l 357 928 q 460 913 411 924 q 506 903 483 907 q 549 900 528 900 l 549 757 l 535 757 q 485 849 532 822 q 357 879 438 876 l 357 517 q 452 478 404 499 q 538 426 500 457 q 600 351 576 394 q 624 246 624 308 q 601 138 624 183 q 540 62 578 93 q 455 14 503 31 q 357 -8 407 -3 l 357 -122 l 310 -122 m 529 235 q 515 299 529 271 q 476 350 500 328 q 420 390 451 372 q 357 421 389 407 l 357 42 q 433 69 400 50 q 487 115 465 89 q 519 173 508 142 q 529 235 529 204 m 144 704 q 158 645 144 671 q 194 599 171 619 q 247 564 217 579 q 310 535 276 549 l 310 879 q 231 855 263 875 q 181 809 200 835 q 153 755 161 783 q 144 704 144 726 z "},"e":{"ha":674,"x_min":51,"x_max":621,"o":"m 139 281 q 163 188 144 232 q 210 111 181 144 q 283 58 240 78 q 383 38 326 38 q 448 47 414 38 q 511 72 482 56 q 563 113 540 89 q 594 168 586 138 l 607 168 l 607 64 q 588 58 599 64 q 564 44 578 53 q 489 9 536 28 q 364 -10 442 -10 q 245 8 301 -10 q 146 64 189 26 q 77 160 103 101 q 51 299 51 218 q 69 403 51 350 q 122 498 86 456 q 213 567 157 540 q 346 593 268 593 q 467 569 415 593 q 553 504 519 546 q 604 406 588 463 q 621 281 621 349 l 139 281 m 340 547 q 256 528 292 547 q 196 478 221 508 q 157 408 171 447 q 139 331 143 369 l 535 331 q 520 410 533 371 q 483 479 507 449 q 424 528 460 510 q 340 547 388 547 z "},"é":{"ha":674,"x_min":51,"x_max":621,"o":"m 139 281 q 163 188 144 232 q 210 111 181 144 q 283 58 240 78 q 383 38 326 38 q 448 47 414 38 q 511 72 482 56 q 563 113 540 89 q 594 168 586 138 l 607 168 l 607 64 q 588 58 599 64 q 564 44 578 53 q 489 9 536 28 q 364 -10 442 -10 q 245 8 301 -10 q 146 64 189 26 q 77 160 103 101 q 51 299 51 218 q 69 403 51 350 q 122 498 86 456 q 213 567 157 540 q 346 593 268 593 q 467 569 415 593 q 553 504 519 546 q 604 406 588 463 q 621 281 621 349 l 139 281 m 340 547 q 256 528 292 547 q 196 478 221 508 q 157 408 171 447 q 139 331 143 369 l 535 331 q 520 410 533 371 q 483 479 507 449 q 424 528 460 510 q 340 547 388 547 m 233 668 l 431 817 l 467 754 l 238 660 l 233 668 z "},"ê":{"ha":674,"x_min":51,"x_max":621,"o":"m 139 281 q 163 188 144 232 q 210 111 181 144 q 283 58 240 78 q 383 38 326 38 q 448 47 414 38 q 511 72 482 56 q 563 113 540 89 q 594 168 586 138 l 607 168 l 607 64 q 588 58 599 64 q 564 44 578 53 q 489 9 536 28 q 364 -10 442 -10 q 245 8 301 -10 q 146 64 189 26 q 77 160 103 101 q 51 299 51 218 q 69 403 51 350 q 122 498 86 456 q 213 567 157 540 q 346 593 268 593 q 467 569 415 593 q 553 504 519 546 q 604 406 588 463 q 621 281 621 349 l 139 281 m 340 547 q 256 528 292 547 q 196 478 221 508 q 157 408 171 447 q 139 331 143 369 l 535 331 q 520 410 533 371 q 483 479 507 449 q 424 528 460 510 q 340 547 388 547 m 519 667 l 351 749 l 185 667 l 182 674 l 351 817 l 521 674 l 519 667 z "},"ë":{"ha":674,"x_min":51,"x_max":621,"o":"m 139 281 q 163 188 144 232 q 210 111 181 144 q 283 58 240 78 q 383 38 326 38 q 448 47 414 38 q 511 72 482 56 q 563 113 540 89 q 594 168 586 138 l 607 168 l 607 64 q 588 58 599 64 q 564 44 578 53 q 489 9 536 28 q 364 -10 442 -10 q 245 8 301 -10 q 146 64 189 26 q 77 160 103 101 q 51 299 51 218 q 69 403 51 350 q 122 498 86 456 q 213 567 157 540 q 346 593 268 593 q 467 569 415 593 q 553 504 519 546 q 604 406 588 463 q 621 281 621 349 l 139 281 m 340 547 q 256 528 292 547 q 196 478 221 508 q 157 408 171 447 q 139 331 143 369 l 535 331 q 520 410 533 371 q 483 479 507 449 q 424 528 460 510 q 340 547 388 547 m 471 710 q 458 678 471 690 q 429 665 446 665 q 397 678 410 665 q 383 710 383 690 q 397 742 383 729 q 429 754 410 754 q 458 742 446 754 q 471 710 471 729 m 311 710 q 299 678 311 690 q 267 665 286 665 q 235 678 247 665 q 222 710 222 690 q 235 742 222 729 q 267 754 247 754 q 299 742 286 754 q 311 710 311 729 z "},"è":{"ha":674,"x_min":51,"x_max":621,"o":"m 139 281 q 163 188 144 232 q 210 111 181 144 q 283 58 240 78 q 383 38 326 38 q 448 47 414 38 q 511 72 482 56 q 563 113 540 89 q 594 168 586 138 l 607 168 l 607 64 q 588 58 599 64 q 564 44 578 53 q 489 9 536 28 q 364 -10 442 -10 q 245 8 301 -10 q 146 64 189 26 q 77 160 103 101 q 51 299 51 218 q 69 403 51 350 q 122 498 86 456 q 213 567 157 540 q 346 593 268 593 q 467 569 415 593 q 553 504 519 546 q 604 406 588 463 q 621 281 621 349 l 139 281 m 340 547 q 256 528 292 547 q 196 478 221 508 q 157 408 171 447 q 139 331 143 369 l 535 331 q 520 410 533 371 q 483 479 507 449 q 424 528 460 510 q 340 547 388 547 m 457 644 l 226 739 l 263 801 l 460 653 l 457 644 z "},"…":{"ha":850,"x_min":72,"x_max":767,"o":"m 72 60 q 91 107 72 88 q 138 126 110 126 q 185 107 165 126 q 204 60 204 88 q 185 13 204 32 q 138 -6 165 -6 q 91 13 110 -6 q 72 60 72 32 m 351 60 q 369 107 351 88 q 415 126 388 126 q 463 107 443 126 q 482 60 482 88 q 463 13 482 32 q 415 -6 443 -6 q 369 13 388 -6 q 351 60 351 32 m 636 60 q 654 107 636 88 q 700 126 672 126 q 747 107 728 126 q 767 60 767 88 q 747 13 767 32 q 700 -6 728 -6 q 654 13 672 -6 q 636 60 636 32 z "},"—":{"ha":1238,"x_min":42,"x_max":1206,"o":"m 42 286 l 42 356 l 1206 356 l 1206 286 l 42 286 z "},"–":{"ha":742,"x_min":69,"x_max":657,"o":"m 69 286 l 69 356 l 657 356 l 657 286 l 69 286 z "},"=":{"ha":649,"x_min":49,"x_max":590,"o":"m 49 528 l 49 597 l 590 597 l 590 528 l 49 528 m 49 319 l 49 386 l 590 386 l 590 319 l 49 319 z "},"ð":{"ha":724,"x_min":54,"x_max":667,"o":"m 399 799 q 508 704 458 757 q 592 588 557 651 q 647 453 628 525 q 667 303 667 382 q 650 186 667 243 q 597 84 633 129 q 501 12 560 39 q 357 -15 442 -15 q 232 8 288 -15 q 137 70 176 31 q 76 164 97 110 q 54 282 54 218 q 78 406 54 350 q 143 503 101 463 q 242 565 185 543 q 365 588 299 588 q 517 553 451 588 q 449 665 485 618 q 363 751 414 711 q 316 692 339 724 q 271 631 293 660 l 199 631 l 318 786 q 196 851 263 822 q 56 888 129 879 l 56 900 l 82 900 q 219 880 150 900 q 349 828 289 860 l 415 915 l 489 915 l 399 799 m 371 31 q 462 53 422 31 q 528 110 501 75 q 567 190 554 146 q 581 279 581 235 q 567 372 581 325 q 524 456 553 418 q 451 518 494 494 q 349 542 407 542 q 260 520 299 542 q 197 464 222 499 q 158 385 171 429 q 144 297 144 342 q 160 198 144 246 q 206 113 176 150 q 278 53 236 75 q 371 31 319 31 z "},"!":{"ha":349,"x_min":81,"x_max":260,"o":"m 81 915 l 260 915 l 260 901 q 232 876 242 901 q 221 829 222 850 l 185 158 l 168 158 l 126 829 q 123 851 126 839 q 114 875 119 864 q 100 894 108 886 q 81 901 92 901 l 81 915 m 111 53 q 130 100 111 81 q 176 119 149 119 q 223 100 204 119 q 242 53 242 81 q 223 6 242 25 q 176 -12 204 -12 q 130 6 149 -12 q 111 53 111 25 z "},"¡":{"ha":349,"x_min":81,"x_max":264,"o":"m 183 733 l 221 86 q 224 63 221 75 q 232 40 226 50 q 246 22 238 29 q 264 14 254 14 l 264 0 l 81 0 l 81 14 q 100 22 92 14 q 114 40 108 29 q 123 64 119 51 q 126 86 126 76 l 169 733 l 183 733 m 111 863 q 130 909 111 890 q 176 928 149 928 q 223 909 204 928 q 242 863 242 890 q 223 815 242 835 q 176 796 204 796 q 130 815 149 796 q 111 863 111 835 z "},"f":{"ha":389,"x_min":31,"x_max":364,"o":"m 192 536 l 192 90 q 194 66 192 79 q 203 42 197 53 q 217 22 210 31 q 236 14 225 14 l 236 0 l 56 0 l 56 14 q 74 22 65 14 q 88 42 82 31 q 97 66 94 53 q 100 90 100 79 l 100 536 l 31 536 l 31 583 l 100 583 l 100 696 q 103 779 100 739 q 119 851 106 819 q 162 903 133 883 q 240 922 190 922 q 288 916 268 922 q 323 902 308 910 q 347 888 338 894 q 364 882 357 882 l 364 781 l 351 781 q 315 848 344 821 q 257 875 286 875 q 204 833 217 875 q 192 715 192 790 l 192 583 l 349 583 l 349 536 l 192 536 z "},"ƒ":{"ha":717,"x_min":25,"x_max":710,"o":"m 597 922 q 651 913 632 922 q 683 894 671 904 l 685 893 q 697 885 692 889 q 710 882 703 882 l 685 781 l 672 781 l 672 788 q 651 849 672 824 q 603 875 631 875 q 542 833 563 875 q 501 715 521 790 l 468 583 l 625 583 l 615 536 l 457 536 l 329 22 q 306 -60 318 -19 q 272 -133 293 -100 q 219 -185 251 -165 q 138 -204 188 -204 q 82 -195 101 -204 q 50 -176 63 -186 q 38 -168 43 -172 q 25 -164 32 -164 l 47 -64 l 60 -64 l 60 -71 q 82 -132 60 -107 q 132 -157 104 -157 q 193 -115 172 -157 q 233 3 214 -72 l 365 536 l 229 536 l 240 583 l 376 583 q 391 640 383 611 q 406 696 399 668 q 428 778 415 738 q 461 851 440 819 q 515 903 482 883 q 597 922 547 922 z "},"g":{"ha":688,"x_min":51,"x_max":628,"o":"m 351 -258 q 431 -251 393 -258 q 497 -229 468 -243 q 542 -196 525 -215 q 558 -154 558 -176 q 535 -114 558 -131 q 474 -85 513 -97 q 383 -63 435 -72 q 276 -44 332 -54 l 206 -32 q 161 -85 174 -57 q 149 -133 149 -112 q 165 -185 149 -162 q 208 -225 181 -208 q 272 -250 235 -242 q 351 -258 308 -258 m 428 19 q 520 -3 483 11 q 579 -35 557 -17 q 610 -77 601 -54 q 618 -126 618 -100 q 592 -208 618 -174 q 526 -266 567 -243 q 433 -300 485 -289 q 326 -311 381 -311 q 225 -301 274 -311 q 139 -269 176 -290 q 79 -217 101 -249 q 57 -146 57 -186 q 79 -77 57 -110 q 151 -12 101 -44 q 77 55 103 13 q 51 142 51 97 q 64 194 51 168 q 104 242 76 219 q 71 297 81 269 q 61 357 61 325 q 82 450 61 407 q 139 525 103 493 q 224 575 175 557 q 328 593 272 593 q 439 573 386 593 q 528 521 492 553 l 628 521 l 628 471 l 564 471 q 583 422 574 450 q 593 363 593 393 q 572 278 593 318 q 515 209 551 239 q 428 162 478 179 q 324 144 379 144 q 224 160 272 144 q 138 204 175 175 q 117 180 122 194 q 111 150 111 165 q 151 81 111 106 q 254 47 192 57 l 428 19 m 311 544 q 249 533 278 544 q 197 500 219 521 q 162 449 175 479 q 149 382 149 419 q 167 300 149 336 q 215 240 186 264 q 280 204 244 217 q 347 192 315 192 q 410 205 382 192 q 460 241 439 218 q 492 294 481 264 q 503 358 503 325 q 486 435 503 400 q 442 494 469 469 q 381 531 415 518 q 311 544 346 544 z "},"ß":{"ha":726,"x_min":61,"x_max":669,"o":"m 628 700 q 592 584 628 633 q 490 499 556 535 q 626 394 583 458 q 669 256 669 331 q 647 155 669 201 q 582 74 625 108 q 477 19 539 39 q 335 0 415 0 l 335 14 q 433 34 389 14 q 509 86 478 54 q 557 158 540 118 q 574 239 574 199 q 553 328 574 286 q 497 403 532 371 q 416 453 463 435 q 318 472 369 472 l 289 472 l 289 521 l 325 521 q 404 533 367 521 q 471 567 442 544 q 517 621 500 589 q 535 694 535 653 q 489 826 535 781 q 372 872 443 872 q 248 817 297 872 q 199 661 199 763 l 199 90 q 202 66 199 79 q 211 42 206 53 q 225 22 217 31 q 244 14 233 14 l 244 0 l 61 0 l 61 14 q 79 22 71 14 q 94 41 88 29 q 103 66 100 53 q 106 90 106 79 l 106 672 q 128 781 106 733 q 188 859 150 828 q 273 906 225 890 q 372 922 321 922 q 465 909 419 922 q 547 868 511 896 q 606 799 583 840 q 628 700 628 757 z "},"`":{"ha":308,"x_min":33,"x_max":267,"o":"m 264 614 l 33 708 l 69 771 l 267 622 l 264 614 z "},">":{"ha":649,"x_min":49,"x_max":593,"o":"m 49 193 l 49 278 l 493 453 q 270 542 381 497 q 49 631 160 586 l 49 714 l 593 490 l 593 417 l 49 193 z "},"«":{"ha":542,"x_min":68,"x_max":464,"o":"m 463 60 l 451 53 l 263 300 l 456 549 l 464 542 l 356 301 l 463 60 m 271 60 l 260 53 l 68 300 l 263 547 l 274 540 l 165 301 l 271 60 z "},"»":{"ha":542,"x_min":71,"x_max":467,"o":"m 179 304 l 71 543 l 82 549 l 276 303 l 85 56 l 74 63 l 179 304 m 371 304 l 265 543 l 276 549 l 467 303 l 278 56 l 267 63 l 371 304 z "},"‹":{"ha":346,"x_min":67,"x_max":271,"o":"m 268 64 l 260 57 l 67 306 l 263 553 l 271 547 l 164 307 l 268 64 z "},"›":{"ha":346,"x_min":69,"x_max":274,"o":"m 179 307 l 69 546 l 81 551 l 274 306 l 83 58 l 72 65 l 179 307 z "},"h":{"ha":739,"x_min":61,"x_max":665,"o":"m 621 90 q 624 66 621 79 q 633 42 626 53 q 647 22 639 31 q 665 14 654 14 l 665 0 l 486 0 l 486 14 q 504 22 496 14 q 519 42 513 31 q 528 66 525 53 q 531 90 531 79 l 531 349 q 517 436 531 399 q 479 499 503 474 q 426 535 456 524 q 365 547 396 547 q 305 535 335 547 q 252 503 275 524 q 215 452 229 482 q 200 386 200 422 l 200 90 q 203 66 200 79 q 212 42 206 53 q 226 22 218 31 q 244 14 233 14 l 244 0 l 64 0 l 64 14 q 82 22 74 14 q 97 42 90 31 q 106 66 103 53 q 108 90 108 79 l 108 800 q 101 844 108 824 q 61 867 94 865 l 61 881 l 200 924 l 200 522 q 225 547 210 533 q 262 572 240 560 q 312 591 283 583 q 379 599 340 599 q 490 576 444 599 q 565 519 536 554 q 608 441 594 483 q 621 358 621 399 l 621 90 z "},"-":{"ha":414,"x_min":40,"x_max":356,"o":"m 40 286 l 40 356 l 356 356 l 356 286 l 40 286 z "},"i":{"ha":349,"x_min":79,"x_max":263,"o":"m 82 0 l 82 14 q 101 22 93 14 q 115 42 110 31 q 124 66 121 53 q 126 90 126 79 l 126 475 q 119 520 126 499 q 79 543 113 542 l 79 556 l 218 600 l 218 90 q 221 66 218 79 q 229 42 224 53 q 243 22 235 31 q 263 14 251 14 l 263 0 l 82 0 m 89 733 q 108 781 89 761 q 154 800 126 800 q 201 781 182 800 q 221 733 221 761 q 201 688 221 706 q 154 669 182 669 q 108 688 126 669 q 89 733 89 706 z "},"í":{"ha":349,"x_min":35,"x_max":268,"o":"m 85 3 l 85 11 q 104 21 96 13 q 118 42 113 29 q 126 67 124 54 q 129 90 129 81 l 129 475 q 122 521 129 499 q 82 546 114 543 l 82 553 l 215 597 l 215 90 q 218 67 215 81 q 226 42 221 54 q 240 21 232 29 q 260 11 249 13 l 260 3 l 85 3 m 35 622 l 232 771 l 268 708 l 39 614 l 35 622 z "},"î":{"ha":349,"x_min":4,"x_max":343,"o":"m 82 0 l 82 14 q 101 22 93 14 q 115 42 110 31 q 124 66 121 53 q 126 90 126 79 l 126 475 q 119 520 126 499 q 79 543 113 542 l 79 556 l 218 600 l 218 90 q 221 66 218 79 q 229 42 224 53 q 243 22 235 31 q 263 14 251 14 l 263 0 l 82 0 m 342 618 l 174 700 l 7 618 l 4 625 l 174 768 l 343 625 l 342 618 z "},"ï":{"ha":349,"x_min":49,"x_max":297,"o":"m 85 3 l 85 11 q 104 21 96 13 q 118 42 113 29 q 126 67 124 54 q 129 90 129 81 l 129 475 q 122 521 129 499 q 82 546 114 543 l 82 553 l 215 597 l 215 90 q 218 67 215 81 q 227 42 221 54 q 241 21 233 29 q 260 11 249 13 l 260 3 l 85 3 m 297 664 q 285 632 297 644 q 254 619 272 619 q 222 632 235 619 q 210 664 210 644 q 222 696 210 683 q 254 708 235 708 q 285 696 272 708 q 297 664 297 683 m 138 664 q 125 632 138 644 q 93 619 113 619 q 61 632 74 619 q 49 664 49 644 q 61 696 49 683 q 93 708 74 708 q 125 696 113 708 q 138 664 138 683 z "},"ì":{"ha":349,"x_min":46,"x_max":279,"o":"m 82 0 l 82 14 q 101 22 93 14 q 115 42 110 31 q 124 66 121 53 q 126 90 126 79 l 126 475 q 119 520 126 499 q 79 543 113 542 l 79 556 l 218 600 l 218 90 q 221 66 218 79 q 229 42 224 53 q 243 22 235 31 q 263 14 251 14 l 263 0 l 82 0 m 276 614 l 46 708 l 82 771 l 279 622 l 276 614 z "},"j":{"ha":290,"x_min":-32,"x_max":219,"o":"m 210 599 l 210 29 q 199 -50 210 -14 q 172 -117 189 -86 q 135 -172 156 -147 q 92 -215 114 -196 q -26 -289 39 -261 l -32 -276 q 43 -208 10 -250 q 95 -120 71 -174 q 119 8 119 -67 l 119 474 q 113 519 119 497 q 72 542 106 540 l 72 554 l 210 599 m 88 733 q 107 781 88 761 q 154 800 126 800 q 201 781 182 800 q 219 733 219 761 q 201 688 219 706 q 154 669 182 669 q 107 688 126 669 q 88 733 88 706 z "},"k":{"ha":639,"x_min":67,"x_max":604,"o":"m 525 0 q 481 10 501 0 q 446 33 461 21 q 413 67 428 49 l 233 297 l 204 268 l 204 88 q 207 65 204 78 q 216 41 210 53 q 231 22 222 29 q 250 14 239 14 l 250 0 l 69 0 l 69 14 q 88 22 79 14 q 101 40 96 29 q 110 64 107 51 q 113 88 113 76 l 113 794 q 100 833 113 814 q 67 854 88 853 l 67 868 l 204 911 l 204 332 l 429 543 q 436 560 436 550 q 426 569 436 569 l 426 583 l 551 583 l 551 569 q 534 565 543 569 q 517 556 525 561 q 497 542 507 550 l 300 358 l 506 99 q 542 56 524 74 q 574 27 557 40 q 604 14 592 14 l 604 0 l 525 0 z "},"l":{"ha":321,"x_min":65,"x_max":250,"o":"m 68 0 l 68 14 q 88 22 79 14 q 102 42 96 31 q 111 66 108 53 q 114 90 114 79 l 114 801 q 107 846 114 825 q 65 868 100 867 l 65 882 l 206 925 l 206 90 q 208 66 206 79 q 217 42 211 53 q 231 22 224 31 q 250 14 239 14 l 250 0 l 68 0 z "},"<":{"ha":649,"x_min":49,"x_max":593,"o":"m 49 417 l 49 490 l 593 714 l 593 631 l 147 453 q 370 366 260 410 q 593 278 481 322 l 593 193 l 49 417 z "},"¬":{"ha":649,"x_min":51,"x_max":589,"o":"m 528 158 l 528 319 l 51 319 l 51 386 l 589 386 l 589 158 l 528 158 z "},"m":{"ha":1074,"x_min":64,"x_max":994,"o":"m 951 90 q 954 66 951 79 q 963 42 957 53 q 976 22 968 31 q 994 14 983 14 l 994 0 l 814 0 l 814 14 q 833 22 825 14 q 848 42 842 31 q 857 66 854 53 q 860 90 860 79 l 860 390 q 851 451 860 422 q 824 502 842 481 q 779 537 806 524 q 719 550 753 550 q 655 533 682 550 q 610 490 628 515 q 585 440 593 465 q 576 397 576 414 l 576 90 q 579 66 576 79 q 588 42 582 53 q 602 22 594 31 q 621 14 610 14 l 621 0 l 442 0 l 442 14 q 460 22 451 14 q 474 42 468 31 q 483 66 481 53 q 486 90 486 79 l 486 399 q 474 460 486 432 q 442 508 463 489 q 397 539 422 528 q 344 550 371 550 q 281 536 308 550 q 237 501 254 522 q 210 456 219 481 q 201 410 201 432 l 201 90 q 204 66 201 79 q 213 42 207 53 q 227 22 219 31 q 246 14 235 14 l 246 0 l 67 0 l 67 14 q 85 22 76 14 q 99 42 93 31 q 108 66 106 53 q 111 90 111 79 l 111 461 q 110 486 111 472 q 104 513 108 500 q 90 533 100 525 q 64 542 81 542 l 64 554 l 201 600 l 201 529 q 259 575 222 553 q 356 597 296 597 q 425 586 394 597 q 478 558 456 575 q 518 518 501 540 q 546 475 535 496 q 572 517 557 496 q 609 557 588 539 q 660 586 631 575 q 731 597 690 597 q 853 569 808 597 q 919 503 897 542 q 946 422 940 464 q 951 350 951 379 l 951 90 z "},"¯":{"ha":369,"x_min":40,"x_max":318,"o":"m 40 713 l 318 713 l 318 657 l 40 657 l 40 713 z "},"×":{"ha":649,"x_min":106,"x_max":539,"o":"m 371 454 l 538 289 l 489 240 l 322 407 l 156 240 l 107 290 l 274 456 q 239 490 263 465 q 189 540 215 514 q 139 589 163 565 q 106 624 115 613 l 154 672 l 321 504 l 489 672 l 539 622 l 371 454 z "},"n":{"ha":739,"x_min":61,"x_max":665,"o":"m 621 90 q 624 66 621 79 q 633 42 626 53 q 647 22 639 31 q 665 14 654 14 l 665 0 l 486 0 l 486 14 q 504 22 496 14 q 519 42 513 31 q 528 66 525 53 q 531 90 531 79 l 531 349 q 517 436 531 399 q 479 499 503 474 q 426 535 456 524 q 365 547 396 547 q 305 535 335 547 q 252 502 275 522 q 215 455 229 482 q 200 399 200 428 l 200 90 q 203 66 200 79 q 212 42 206 53 q 226 22 218 31 q 244 14 233 14 l 244 0 l 64 0 l 64 14 q 82 22 74 14 q 97 42 90 31 q 106 66 103 53 q 108 90 108 79 l 108 474 q 101 519 108 497 q 61 542 94 540 l 61 554 l 200 599 l 200 522 q 225 547 210 533 q 262 572 240 560 q 312 591 283 583 q 379 599 340 599 q 490 576 444 599 q 565 519 536 554 q 608 441 594 483 q 621 358 621 399 l 621 90 z "},"ñ":{"ha":739,"x_min":61,"x_max":665,"o":"m 621 90 q 624 66 621 79 q 633 42 626 53 q 647 22 639 31 q 665 14 654 14 l 665 0 l 486 0 l 486 14 q 504 22 496 14 q 519 42 513 31 q 528 66 525 53 q 531 90 531 79 l 531 349 q 517 436 531 399 q 479 499 503 474 q 426 535 456 524 q 365 547 396 547 q 305 535 335 547 q 252 502 275 522 q 215 455 229 482 q 200 399 200 428 l 200 90 q 203 66 200 79 q 212 42 206 53 q 226 22 218 31 q 244 14 233 14 l 244 0 l 64 0 l 64 14 q 82 22 74 14 q 97 42 90 31 q 106 66 103 53 q 108 90 108 79 l 108 474 q 101 519 108 497 q 61 542 94 540 l 61 554 l 200 599 l 200 522 q 225 547 210 533 q 262 572 240 560 q 312 591 283 583 q 379 599 340 599 q 490 576 444 599 q 565 519 536 554 q 608 441 594 483 q 621 358 621 399 l 621 90 m 526 767 q 494 685 510 704 q 449 665 478 665 q 411 674 432 665 q 368 692 390 682 q 324 712 346 703 q 285 721 303 721 q 249 706 264 721 q 217 665 235 690 l 210 667 q 255 749 229 725 q 308 774 281 774 q 344 765 325 774 q 383 747 364 757 q 421 728 401 736 q 457 719 440 719 q 494 734 479 719 q 521 768 510 749 l 526 767 z "},"#":{"ha":699,"x_min":38,"x_max":651,"o":"m 299 628 l 447 628 l 490 910 l 560 910 l 517 628 l 651 628 l 651 546 l 504 546 l 478 365 l 614 365 l 614 285 l 468 285 l 429 0 l 358 0 l 399 285 l 247 285 l 206 0 l 138 0 l 178 285 l 38 285 l 38 365 l 190 365 l 215 546 l 75 546 l 75 628 l 228 628 l 272 910 l 340 910 l 299 628 m 258 365 l 413 365 l 438 546 l 286 546 l 258 365 z "},"o":{"ha":726,"x_min":51,"x_max":665,"o":"m 354 -10 q 229 13 285 -10 q 134 76 174 36 q 73 169 94 115 q 51 288 51 224 q 75 412 51 356 q 140 508 99 468 q 239 571 182 549 q 363 593 296 593 q 485 572 429 593 q 581 511 540 550 q 643 419 621 472 q 665 301 665 365 q 645 185 665 242 q 585 86 625 129 q 488 17 546 43 q 354 -10 431 -10 m 346 547 q 258 523 296 544 q 194 467 219 501 q 155 390 168 433 q 142 303 142 347 q 158 203 142 251 q 203 118 174 156 q 275 58 233 81 q 368 36 317 36 q 459 58 419 36 q 525 116 499 81 q 565 196 551 151 q 578 285 578 240 q 564 377 578 331 q 521 462 550 424 q 448 524 492 500 q 346 547 404 547 z "},"ó":{"ha":726,"x_min":51,"x_max":665,"o":"m 354 -10 q 229 13 285 -10 q 134 76 174 36 q 73 169 94 115 q 51 288 51 224 q 75 412 51 356 q 140 508 99 468 q 239 571 182 549 q 363 593 296 593 q 485 572 429 593 q 581 511 540 550 q 643 419 621 472 q 665 301 665 365 q 645 185 665 242 q 585 86 625 129 q 488 17 546 43 q 354 -10 431 -10 m 346 547 q 258 523 296 544 q 194 467 219 501 q 155 390 168 433 q 142 303 142 347 q 158 203 142 251 q 203 118 174 156 q 275 58 233 81 q 368 36 317 36 q 459 58 419 36 q 525 116 499 81 q 565 196 551 151 q 578 285 578 240 q 564 377 578 331 q 521 462 550 424 q 448 524 492 500 q 346 547 404 547 m 246 685 l 443 833 l 479 771 l 250 676 l 246 685 z "},"ô":{"ha":726,"x_min":51,"x_max":665,"o":"m 354 -10 q 229 13 285 -10 q 134 76 174 36 q 73 169 94 115 q 51 288 51 224 q 75 412 51 356 q 140 508 99 468 q 239 571 182 549 q 363 593 296 593 q 485 572 429 593 q 581 511 540 550 q 643 419 621 472 q 665 301 665 365 q 645 185 665 242 q 585 86 625 129 q 488 17 546 43 q 354 -10 431 -10 m 346 547 q 258 523 296 544 q 194 467 219 501 q 155 390 168 433 q 142 303 142 347 q 158 203 142 251 q 203 118 174 156 q 275 58 233 81 q 368 36 317 36 q 459 58 419 36 q 525 116 499 81 q 565 196 551 151 q 578 285 578 240 q 564 377 578 331 q 521 462 550 424 q 448 524 492 500 q 346 547 404 547 m 531 667 l 363 749 l 196 667 l 193 674 l 363 817 l 532 674 l 531 667 z "},"ö":{"ha":726,"x_min":51,"x_max":665,"o":"m 354 -10 q 229 13 285 -10 q 134 76 174 36 q 73 169 94 115 q 51 288 51 224 q 75 412 51 356 q 140 508 99 468 q 239 571 182 549 q 363 593 296 593 q 485 572 429 593 q 581 511 540 550 q 643 419 621 472 q 665 301 665 365 q 645 185 665 242 q 585 86 625 129 q 488 17 546 43 q 354 -10 431 -10 m 346 547 q 258 523 296 544 q 194 467 219 501 q 155 390 168 433 q 142 303 142 347 q 158 203 142 251 q 203 118 174 156 q 275 58 233 81 q 368 36 317 36 q 459 58 419 36 q 525 116 499 81 q 565 196 551 151 q 578 285 578 240 q 564 377 578 331 q 521 462 550 424 q 448 524 492 500 q 346 547 404 547 m 486 713 q 474 681 486 693 q 444 668 461 668 q 412 681 425 668 q 399 713 399 693 q 412 744 399 732 q 444 757 425 757 q 474 744 461 757 q 486 713 486 732 m 326 713 q 314 681 326 693 q 282 668 301 668 q 250 681 263 668 q 238 713 238 693 q 250 744 238 732 q 282 757 263 757 q 314 744 301 757 q 326 713 326 732 z "},"œ":{"ha":1167,"x_min":63,"x_max":1101,"o":"m 878 38 q 940 47 908 38 q 998 72 971 56 q 1045 113 1025 89 q 1074 168 1065 138 l 1088 168 l 1088 64 q 1068 58 1078 64 q 1046 44 1058 53 q 979 9 1022 28 q 858 -10 936 -10 q 709 24 775 -10 q 601 129 643 57 q 503 30 564 71 q 351 -11 443 -11 q 228 12 282 -11 q 137 74 174 35 q 81 168 100 114 q 63 286 63 222 q 84 410 63 354 q 144 507 106 467 q 238 569 183 547 q 360 592 293 592 q 504 557 444 592 q 603 461 564 522 q 692 556 638 519 q 840 593 747 593 q 959 569 910 593 q 1040 504 1008 546 q 1087 406 1072 463 q 1101 281 1101 349 l 647 281 q 669 187 651 231 q 715 110 686 143 q 785 57 744 76 q 878 38 826 38 m 835 547 q 758 529 792 547 q 700 481 724 511 q 663 413 676 451 q 647 331 649 374 l 1015 331 q 1003 410 1014 371 q 971 479 993 449 q 915 528 949 510 q 835 547 882 547 m 365 35 q 453 57 417 35 q 514 115 490 79 q 549 194 538 150 q 560 283 560 239 q 548 376 560 329 q 510 460 536 422 q 442 522 483 499 q 343 546 401 546 q 256 524 293 546 q 197 468 219 503 q 163 390 174 433 q 151 301 151 346 q 165 202 151 250 q 206 117 179 154 q 274 57 233 79 q 365 35 314 35 z "},"ò":{"ha":726,"x_min":51,"x_max":665,"o":"m 354 -10 q 229 13 285 -10 q 134 76 174 36 q 73 169 94 115 q 51 288 51 224 q 75 412 51 356 q 140 508 99 468 q 239 571 182 549 q 363 593 296 593 q 485 572 429 593 q 581 511 540 550 q 643 419 621 472 q 665 301 665 365 q 645 185 665 242 q 585 86 625 129 q 488 17 546 43 q 354 -10 431 -10 m 346 547 q 258 523 296 544 q 194 467 219 501 q 155 390 168 433 q 142 303 142 347 q 158 203 142 251 q 203 118 174 156 q 275 58 233 81 q 368 36 317 36 q 459 58 419 36 q 525 116 499 81 q 565 196 551 151 q 578 285 578 240 q 564 377 578 331 q 521 462 550 424 q 448 524 492 500 q 346 547 404 547 m 476 672 l 246 767 l 282 829 l 479 681 l 476 672 z "},"ø":{"ha":726,"x_min":51,"x_max":665,"o":"m 354 -10 q 282 -2 317 -10 q 217 19 247 6 q 206 3 211 13 q 196 -14 201 -7 l 125 -14 l 164 49 q 81 151 111 89 q 51 288 51 213 q 75 412 51 356 q 140 508 99 468 q 239 571 182 549 q 363 593 296 593 q 431 585 397 593 q 493 567 465 578 l 513 597 l 583 597 l 547 539 q 632 438 599 500 q 665 301 665 376 q 645 185 665 242 q 585 86 625 129 q 488 17 546 43 q 354 -10 431 -10 m 578 285 q 560 385 578 333 q 507 476 543 438 q 379 275 444 376 q 251 74 314 174 q 368 36 304 36 q 459 58 419 36 q 525 116 499 81 q 565 196 551 151 q 578 285 578 240 m 346 547 q 258 523 296 544 q 194 467 219 501 q 155 390 168 433 q 142 303 142 347 q 159 201 142 251 q 207 115 176 151 q 333 316 269 214 q 460 517 397 418 q 407 539 436 531 q 346 547 378 547 z "},"õ":{"ha":726,"x_min":51,"x_max":665,"o":"m 354 -10 q 229 13 285 -10 q 134 76 174 36 q 73 169 94 115 q 51 288 51 224 q 75 412 51 356 q 140 508 99 468 q 239 571 182 549 q 363 593 296 593 q 485 572 429 593 q 581 511 540 550 q 643 419 621 472 q 665 301 665 365 q 645 185 665 242 q 585 86 625 129 q 488 17 546 43 q 354 -10 431 -10 m 346 547 q 258 523 296 544 q 194 467 219 501 q 155 390 168 433 q 142 303 142 347 q 158 203 142 251 q 203 118 174 156 q 275 58 233 81 q 368 36 317 36 q 459 58 419 36 q 525 116 499 81 q 565 196 551 151 q 578 285 578 240 q 564 377 578 331 q 521 462 550 424 q 448 524 492 500 q 346 547 404 547 m 521 771 q 488 689 504 708 q 443 669 472 669 q 406 678 426 669 q 363 697 385 686 q 319 716 340 707 q 279 725 297 725 q 244 710 258 725 q 211 669 229 694 l 204 671 q 249 753 224 729 q 303 778 275 778 q 339 769 319 778 q 377 751 358 761 q 415 732 396 740 q 451 724 435 724 q 489 738 474 724 q 515 772 504 753 l 521 771 z "},"p":{"ha":715,"x_min":64,"x_max":653,"o":"m 358 593 q 488 567 433 593 q 580 500 543 542 q 635 404 617 458 q 653 293 653 350 q 635 183 653 238 q 583 86 618 129 q 494 17 547 43 q 369 -10 442 -10 q 281 13 326 -10 q 200 71 236 36 l 200 -201 q 203 -226 200 -212 q 212 -250 206 -239 q 226 -269 218 -261 q 244 -278 233 -278 l 244 -292 l 64 -292 l 64 -278 q 82 -269 74 -278 q 97 -250 90 -261 q 106 -226 103 -239 q 108 -201 108 -212 l 108 501 q 108 526 108 514 q 103 547 107 538 q 90 562 99 556 q 64 569 81 568 l 64 583 l 200 583 l 200 522 q 267 574 228 556 q 358 593 307 593 m 371 38 q 456 60 419 39 q 515 114 492 81 q 550 188 539 147 q 561 274 561 229 q 547 372 561 324 q 507 459 533 421 q 442 522 481 497 q 356 546 404 546 q 298 535 326 546 q 248 503 269 524 q 213 453 226 482 q 200 390 200 425 l 200 208 q 215 140 200 171 q 255 85 231 108 q 310 50 279 63 q 371 38 340 38 z "},"¶":{"ha":663,"x_min":26,"x_max":565,"o":"m 565 901 q 548 894 556 901 q 534 876 540 886 q 524 852 528 865 q 521 829 521 839 l 521 -118 q 524 -142 521 -129 q 533 -166 526 -154 q 547 -185 539 -178 q 565 -193 554 -193 l 565 -207 l 213 -207 l 213 -193 q 231 -184 222 -192 q 244 -165 239 -176 q 253 -142 250 -154 q 256 -118 256 -129 l 256 443 q 156 465 199 444 q 85 518 114 485 q 41 593 56 551 q 26 679 26 635 q 41 765 26 722 q 84 842 56 808 q 156 896 113 875 q 257 917 199 917 l 565 917 l 565 901 m 436 829 q 433 851 436 839 q 423 875 429 864 q 408 894 417 886 q 388 901 399 901 q 368 894 376 901 q 353 875 360 886 q 344 851 347 864 q 340 829 340 839 l 340 -118 q 344 -142 340 -129 q 355 -166 349 -154 q 370 -185 361 -178 q 388 -193 379 -193 q 408 -185 399 -193 q 423 -166 417 -178 q 433 -142 429 -154 q 436 -118 436 -129 l 436 829 z "},"(":{"ha":306,"x_min":13,"x_max":251,"o":"m 239 -126 q 70 143 128 3 q 13 454 13 283 q 27 619 13 542 q 69 768 42 697 q 140 904 97 839 q 236 1033 182 969 l 249 1026 q 176 896 204 964 q 133 756 149 828 q 111 607 117 683 q 106 453 106 531 q 111 303 106 378 q 133 155 117 228 q 177 13 149 82 q 251 -119 206 -57 l 239 -126 z "},")":{"ha":306,"x_min":11,"x_max":250,"o":"m 24 1033 q 193 765 136 906 q 250 453 250 625 q 193 140 250 278 q 26 -126 136 1 l 14 -119 q 87 12 58 -57 q 131 153 115 81 q 153 301 147 225 q 158 454 158 376 q 153 605 158 529 q 131 753 147 681 q 85 895 114 826 q 11 1026 57 964 l 24 1033 z "},"%":{"ha":1067,"x_min":47,"x_max":1007,"o":"m 318 -35 l 250 -35 l 728 910 l 799 910 l 318 -35 m 679 199 q 690 133 679 164 q 717 81 700 103 q 758 45 735 58 q 807 32 781 32 q 883 78 856 32 q 911 196 911 125 q 874 321 911 274 q 782 368 838 368 q 707 323 735 368 q 679 199 679 278 m 374 661 q 363 728 374 697 q 335 781 353 758 q 293 817 317 804 q 244 831 269 831 q 168 784 196 831 q 140 667 140 738 q 178 540 140 589 q 269 490 217 490 q 345 537 317 490 q 374 661 374 583 m 47 664 q 64 745 47 707 q 108 813 81 783 q 174 858 136 842 q 257 875 213 875 q 340 858 301 875 q 406 813 378 842 q 451 745 435 783 q 468 664 468 707 q 451 581 468 619 q 406 515 435 543 q 340 469 378 486 q 257 453 301 453 q 174 469 213 453 q 108 515 136 486 q 64 581 81 543 q 47 664 47 619 m 586 194 q 603 278 586 239 q 647 345 619 317 q 713 390 675 374 q 796 407 751 407 q 878 390 839 407 q 945 345 917 374 q 990 278 974 317 q 1007 194 1007 239 q 990 113 1007 151 q 945 47 974 75 q 878 1 917 18 q 796 -15 839 -15 q 713 1 751 -15 q 647 47 675 18 q 603 113 619 75 q 586 194 586 151 z "},".":{"ha":279,"x_min":72,"x_max":204,"o":"m 72 60 q 91 107 72 88 q 138 126 110 126 q 185 107 165 126 q 204 60 204 88 q 185 13 204 32 q 138 -6 165 -6 q 91 13 110 -6 q 72 60 72 32 z "},"·":{"ha":228,"x_min":57,"x_max":189,"o":"m 57 267 q 76 314 57 294 q 122 333 94 333 q 169 314 150 333 q 189 267 189 294 q 169 220 189 239 q 122 201 150 201 q 76 220 94 201 q 57 267 57 239 z "},"‰":{"ha":1601,"x_min":50,"x_max":1532,"o":"m 321 -35 l 253 -35 l 731 910 l 803 910 l 321 -35 m 682 199 q 692 133 682 164 q 720 81 703 103 q 760 45 738 58 q 810 32 783 32 q 886 78 858 32 q 914 196 914 125 q 877 321 914 274 q 786 368 840 368 q 710 323 739 368 q 682 199 682 278 m 375 661 q 365 728 375 697 q 337 781 354 758 q 297 817 319 804 q 249 831 274 831 q 172 784 200 831 q 144 667 144 738 q 155 596 144 628 q 183 540 165 564 q 224 503 200 517 q 272 490 247 490 q 347 537 319 490 q 375 661 375 583 m 50 664 q 67 745 50 707 q 112 813 83 783 q 178 858 140 842 q 260 875 217 875 q 342 858 303 875 q 410 813 381 842 q 456 745 439 783 q 472 664 472 707 q 456 581 472 619 q 410 515 439 543 q 342 469 381 486 q 260 453 303 453 q 178 469 217 453 q 112 515 140 486 q 67 581 83 543 q 50 664 50 619 m 588 194 q 604 278 588 239 q 649 345 621 317 q 717 390 678 374 q 800 407 756 407 q 881 390 843 407 q 949 345 919 374 q 994 278 978 317 q 1011 194 1011 239 q 994 113 1011 151 q 949 47 978 75 q 881 1 919 18 q 800 -15 843 -15 q 717 1 756 -15 q 649 47 678 18 q 604 113 621 75 q 588 194 588 151 m 1204 199 q 1215 133 1204 164 q 1242 81 1225 103 q 1283 45 1260 58 q 1332 32 1306 32 q 1408 78 1381 32 q 1436 196 1436 125 q 1399 321 1436 274 q 1307 368 1363 368 q 1232 323 1260 368 q 1204 199 1204 278 m 1111 194 q 1128 278 1111 239 q 1172 345 1144 317 q 1238 390 1200 374 q 1321 407 1276 407 q 1403 390 1364 407 q 1470 345 1442 374 q 1515 278 1499 317 q 1532 194 1532 239 q 1515 113 1532 151 q 1470 47 1499 75 q 1403 1 1442 18 q 1321 -15 1364 -15 q 1238 1 1276 -15 q 1172 47 1200 18 q 1128 113 1144 75 q 1111 194 1111 151 z "},"+":{"ha":649,"x_min":49,"x_max":590,"o":"m 354 489 l 590 489 l 590 422 l 354 422 l 354 186 l 286 186 l 286 422 l 49 422 l 49 489 l 286 489 l 286 726 l 354 726 l 354 489 z "},"±":{"ha":649,"x_min":49,"x_max":593,"o":"m 49 128 l 49 194 l 593 194 l 593 128 l 49 128 m 354 576 l 593 576 l 593 508 l 354 508 l 354 274 l 286 274 l 286 508 l 49 508 l 49 576 l 286 576 l 286 813 l 354 813 l 354 576 z "},"q":{"ha":714,"x_min":56,"x_max":642,"o":"m 461 -278 q 481 -269 472 -278 q 494 -250 489 -261 q 503 -226 500 -239 q 506 -201 506 -212 l 506 61 q 444 10 481 29 q 346 -10 408 -10 q 217 16 272 -10 q 126 85 163 42 q 73 182 90 128 q 56 293 56 236 q 76 403 56 349 q 133 499 96 457 q 223 567 169 542 q 343 593 276 593 q 440 570 392 593 q 515 517 488 547 l 597 604 l 597 -201 q 600 -226 597 -212 q 608 -250 603 -239 q 622 -269 614 -261 q 642 -278 631 -278 l 642 -292 l 461 -292 l 461 -278 m 354 38 q 410 49 383 38 q 459 81 438 61 q 493 128 481 101 q 506 188 506 156 l 506 376 q 490 448 506 417 q 451 501 475 479 q 397 533 428 522 q 336 544 367 544 q 255 524 290 544 q 195 471 219 504 q 158 396 171 438 q 146 311 146 354 q 160 214 146 263 q 201 127 174 165 q 266 64 228 89 q 354 38 304 39 z "},"?":{"ha":568,"x_min":35,"x_max":532,"o":"m 532 692 q 522 622 532 650 q 493 574 511 594 q 451 538 475 553 q 401 508 428 522 q 334 467 368 489 q 273 406 300 444 q 228 307 246 367 q 211 182 211 247 l 199 182 l 178 338 q 175 357 175 346 q 175 376 175 368 q 188 440 175 413 q 221 488 200 467 q 267 527 242 510 q 318 561 293 544 q 401 620 364 589 q 438 700 438 651 q 389 826 438 776 q 256 875 340 875 q 104 849 157 875 q 49 753 51 822 l 35 753 l 35 899 l 68 899 q 81 900 75 899 q 166 916 117 910 q 253 922 215 922 q 378 903 325 922 q 465 851 431 883 q 515 778 499 819 q 532 692 532 736 m 274 42 q 255 -6 274 14 q 208 -26 236 -26 q 160 -6 179 -26 q 140 42 140 14 q 160 89 140 69 q 208 108 179 108 q 255 89 236 108 q 274 42 274 69 z "},"¿":{"ha":568,"x_min":35,"x_max":532,"o":"m 35 217 q 45 286 35 258 q 74 335 56 314 q 115 370 92 356 q 165 400 139 385 q 233 441 199 418 q 294 502 267 464 q 338 600 321 540 q 356 732 356 660 l 368 732 l 389 571 q 392 551 392 563 q 392 532 392 540 q 379 469 392 496 q 346 420 367 442 q 299 381 325 399 q 249 347 274 364 q 166 288 203 319 q 129 208 129 257 q 178 83 129 132 q 311 33 226 33 q 463 59 411 33 q 518 154 515 85 l 532 154 l 532 10 l 499 10 q 486 8 492 10 q 401 -8 450 -1 q 314 -14 351 -14 q 189 6 242 -14 q 102 57 136 25 q 51 131 68 89 q 35 217 35 172 m 293 854 q 312 902 293 882 q 358 922 331 922 q 407 902 388 922 q 426 854 426 882 q 407 807 426 826 q 358 788 388 788 q 312 807 331 788 q 293 854 293 826 z "},"\"":{"ha":360,"x_min":69,"x_max":286,"o":"m 69 922 l 139 922 l 139 583 l 69 583 l 69 922 m 217 922 l 286 922 l 286 583 l 217 583 l 217 922 z "},"„":{"ha":375,"x_min":-6,"x_max":360,"o":"m 76 129 q 135 101 117 129 q 154 38 154 74 q 149 -8 154 17 q 126 -60 143 -33 q 80 -112 110 -86 q 3 -160 50 -137 l -6 -147 q 38 -102 22 -122 q 63 -66 54 -82 q 73 -36 71 -50 q 75 -7 75 -22 q 67 10 75 4 q 53 21 60 17 q 31 38 42 28 q 19 69 19 47 q 36 113 19 96 q 76 129 53 129 m 282 129 q 341 101 322 129 q 360 38 360 74 q 354 -8 360 17 q 332 -60 349 -33 q 285 -112 315 -86 q 208 -160 256 -137 l 200 -147 q 244 -102 228 -122 q 268 -66 260 -82 q 278 -36 276 -50 q 281 -7 281 -22 q 273 10 281 4 q 258 21 265 17 q 236 38 247 28 q 225 69 225 47 q 242 113 225 96 q 282 129 258 129 z "},"“":{"ha":364,"x_min":-6,"x_max":338,"o":"m 256 635 q 197 663 215 635 q 179 726 179 690 q 185 772 179 747 q 206 823 190 797 q 251 874 222 849 q 329 924 281 900 l 338 911 q 294 865 310 885 q 269 829 278 846 q 259 799 261 813 q 257 769 257 785 q 264 753 257 758 q 279 742 271 749 q 302 726 292 733 q 313 694 313 718 q 296 652 313 669 q 256 635 279 635 m 72 635 q 13 663 32 635 q -6 726 -6 690 q 0 772 -6 747 q 22 822 6 796 q 68 874 39 849 q 146 924 97 900 l 154 911 q 110 865 126 885 q 86 829 94 846 q 76 799 78 813 q 74 769 74 785 q 80 753 74 758 q 94 743 86 747 q 117 727 106 736 q 129 694 129 718 q 113 652 129 669 q 72 635 97 635 z "},"”":{"ha":364,"x_min":-6,"x_max":338,"o":"m 76 922 q 135 895 117 922 q 154 832 154 868 q 149 785 154 810 q 126 734 143 760 q 80 683 110 708 q 3 633 50 657 l -6 646 q 38 692 22 672 q 63 727 54 711 q 73 757 71 743 q 75 786 75 771 q 69 803 75 797 q 53 814 63 808 q 31 830 42 821 q 19 863 19 839 q 36 906 19 889 q 76 922 53 922 m 260 922 q 319 895 300 922 q 338 832 338 868 q 332 785 338 810 q 310 734 326 760 q 264 683 293 708 q 188 633 235 657 l 179 646 q 222 692 206 672 q 246 727 238 711 q 256 757 254 743 q 258 786 258 771 q 252 803 258 797 q 236 814 246 808 q 214 831 225 821 q 203 863 203 840 q 219 906 203 889 q 260 922 236 922 z "},"‘":{"ha":176,"x_min":7,"x_max":167,"o":"m 85 633 q 26 661 44 633 q 7 725 7 689 q 13 770 7 746 q 35 821 18 794 q 81 873 51 847 q 158 922 110 899 l 167 910 q 123 864 139 883 q 99 828 107 844 q 88 797 90 811 q 86 768 86 783 q 92 752 86 757 q 108 742 99 747 q 131 726 119 735 q 143 693 143 717 q 126 651 143 668 q 85 633 110 633 z "},"’":{"ha":176,"x_min":7,"x_max":167,"o":"m 89 921 q 148 894 129 921 q 167 831 167 867 q 161 783 167 808 q 140 732 156 758 q 94 680 124 706 q 15 632 64 654 l 7 644 q 51 690 35 671 q 75 726 67 710 q 85 756 83 742 q 88 785 88 769 q 81 801 88 796 q 65 813 75 807 q 43 828 54 819 q 32 861 32 838 q 49 904 32 888 q 89 921 65 921 z "},"‚":{"ha":168,"x_min":-6,"x_max":153,"o":"m 75 129 q 134 101 115 129 q 153 38 153 74 q 147 -9 153 17 q 126 -60 142 -35 q 80 -112 110 -86 q 1 -160 50 -137 l -6 -147 q 38 -102 22 -122 q 62 -66 54 -82 q 72 -36 69 -50 q 74 -7 74 -22 q 65 13 74 7 q 45 25 56 19 q 26 40 35 31 q 18 69 18 49 q 35 113 18 96 q 75 129 51 129 z "},"'":{"ha":210,"x_min":69,"x_max":139,"o":"m 69 922 l 139 922 l 139 583 l 69 583 l 69 922 z "},"r":{"ha":468,"x_min":58,"x_max":443,"o":"m 401 482 q 367 517 385 510 q 325 524 349 524 q 292 517 310 524 q 258 499 275 510 q 226 474 242 488 q 199 450 210 461 l 199 89 q 201 65 199 78 q 210 41 204 53 q 224 22 217 29 q 243 14 232 14 l 243 0 l 63 0 l 63 14 q 81 22 72 14 q 95 41 89 29 q 104 65 101 53 q 107 89 107 78 l 107 476 q 94 515 107 496 q 58 540 82 535 l 58 551 l 199 593 l 199 510 q 225 540 211 525 q 256 566 239 554 q 294 585 274 578 q 343 593 315 593 q 393 585 363 593 q 443 567 424 576 l 401 482 z "},"®":{"ha":1036,"x_min":57,"x_max":968,"o":"m 57 453 q 92 632 57 549 q 190 777 128 715 q 335 874 251 839 q 513 910 418 910 q 690 874 607 910 q 835 777 774 839 q 933 632 897 715 q 968 453 968 549 q 933 276 968 358 q 835 131 897 193 q 690 34 774 69 q 513 -1 607 -1 q 335 34 418 -1 q 190 131 251 69 q 92 276 128 193 q 57 453 57 358 m 114 453 q 146 298 114 371 q 232 170 178 225 q 358 83 286 115 q 513 51 431 51 q 667 83 594 51 q 793 170 739 115 q 879 298 847 225 q 911 453 911 371 q 879 610 911 536 q 793 739 847 683 q 667 826 739 794 q 513 858 594 858 q 358 826 431 858 q 232 739 286 794 q 146 610 178 683 q 114 453 114 536 m 635 271 q 676 217 651 244 q 729 190 701 190 l 729 178 l 700 178 q 617 199 650 178 q 551 263 583 219 l 493 354 q 453 417 471 389 q 436 447 436 446 l 404 447 l 404 263 q 407 240 404 253 q 415 217 410 228 q 428 198 421 206 q 446 190 436 190 l 446 178 l 285 178 l 285 190 q 302 198 294 190 q 315 217 310 206 q 324 240 321 228 q 326 263 326 253 l 326 651 q 324 673 326 661 q 315 695 321 685 q 302 713 310 706 q 285 719 294 719 l 285 732 l 476 732 q 580 721 536 732 q 651 691 624 710 q 691 649 678 672 q 704 600 704 625 q 690 547 704 572 q 652 501 676 522 q 594 467 628 481 q 519 449 560 453 l 635 271 m 404 489 l 472 489 q 552 498 521 489 q 601 522 583 507 q 625 556 618 538 q 632 593 632 574 q 592 660 632 629 q 479 690 553 690 l 404 690 l 404 489 z "},"s":{"ha":571,"x_min":50,"x_max":514,"o":"m 514 158 q 496 92 514 122 q 447 38 478 61 q 374 2 415 15 q 283 -11 332 -11 q 186 5 224 -11 q 122 38 149 21 q 89 56 104 49 q 56 64 74 64 l 56 169 l 69 169 q 94 127 74 150 q 142 85 114 104 q 205 52 171 65 q 274 39 239 39 q 325 44 299 39 q 373 63 351 50 q 409 94 394 75 q 424 139 424 113 q 408 185 424 165 q 369 219 393 204 q 315 244 346 233 q 254 265 285 256 q 181 290 218 276 q 115 323 144 304 q 68 369 86 342 q 50 433 50 396 q 62 494 50 465 q 101 545 74 524 q 171 580 128 567 q 275 593 214 593 q 359 584 329 593 q 408 565 389 575 q 433 555 421 558 q 461 551 446 551 l 461 454 l 450 454 q 374 524 425 500 q 268 547 322 547 q 208 538 233 547 q 167 516 183 529 q 144 486 151 503 q 136 453 136 469 q 149 413 136 429 q 185 383 163 396 q 237 360 208 371 q 297 339 265 349 q 375 312 336 326 q 444 276 414 297 q 494 227 475 256 q 514 158 514 199 z "},"š":{"ha":571,"x_min":50,"x_max":514,"o":"m 514 158 q 496 92 514 122 q 447 38 478 61 q 374 2 415 15 q 283 -11 332 -11 q 186 5 224 -11 q 122 38 149 21 q 89 56 104 49 q 56 64 74 64 l 56 169 l 69 169 q 94 127 74 150 q 142 85 114 104 q 205 52 171 65 q 274 39 239 39 q 325 44 299 39 q 373 63 351 50 q 409 94 394 75 q 424 139 424 113 q 408 185 424 165 q 369 219 393 204 q 315 244 346 233 q 254 265 285 256 q 181 290 218 276 q 115 323 144 304 q 68 369 86 342 q 50 433 50 396 q 62 494 50 465 q 101 545 74 524 q 171 580 128 567 q 275 593 214 593 q 359 584 329 593 q 408 565 389 575 q 433 555 421 558 q 461 551 446 551 l 461 454 l 450 454 q 374 524 425 500 q 268 547 322 547 q 208 538 233 547 q 167 516 183 529 q 144 486 151 503 q 136 453 136 469 q 149 413 136 429 q 185 383 163 396 q 237 360 208 371 q 297 339 265 349 q 375 312 336 326 q 444 276 414 297 q 494 227 475 256 q 514 158 514 199 m 118 840 l 286 761 l 451 840 l 454 835 l 286 690 l 114 835 l 118 840 z "},"§":{"ha":524,"x_min":58,"x_max":476,"o":"m 453 118 q 439 47 453 81 q 400 -13 425 13 q 340 -54 375 -39 q 263 -69 306 -69 q 217 -63 239 -69 q 175 -49 194 -57 q 136 -33 160 -39 q 90 -28 113 -28 l 90 85 l 103 85 q 122 44 106 64 q 161 8 138 24 q 213 -16 185 -7 q 267 -25 240 -25 q 347 7 317 -25 q 378 79 378 39 q 364 127 378 104 q 328 172 350 150 q 281 215 307 194 q 229 254 254 235 q 168 299 199 276 q 113 348 138 322 q 74 403 89 374 q 58 468 58 433 q 94 572 58 532 q 176 633 131 611 q 144 665 160 647 q 115 703 128 683 q 93 744 101 722 q 85 788 85 765 q 99 860 85 826 q 138 920 113 894 q 197 960 163 946 q 275 975 232 975 q 335 967 307 975 q 385 947 363 958 q 442 931 415 931 l 442 819 l 428 819 q 410 862 425 842 q 372 897 394 882 q 323 920 350 911 q 271 929 296 929 q 191 898 222 929 q 160 826 160 867 q 172 785 160 806 q 203 744 183 764 q 247 706 222 725 q 297 668 272 686 q 361 619 329 644 q 419 566 393 594 q 460 505 444 538 q 476 435 476 472 q 443 331 476 369 q 364 271 410 292 q 424 205 396 243 q 453 118 453 167 m 146 504 q 159 446 146 472 q 196 396 172 419 q 251 349 219 372 q 318 301 282 326 q 367 341 343 315 q 390 401 390 367 q 375 465 390 436 q 335 518 360 493 q 281 565 311 543 q 218 607 250 586 q 169 567 193 593 q 146 504 146 540 z "},";":{"ha":282,"x_min":39,"x_max":207,"o":"m 129 135 q 188 107 169 135 q 207 43 207 79 q 201 -3 207 22 q 178 -54 194 -28 q 131 -106 161 -81 q 53 -157 101 -132 l 39 -143 q 85 -97 68 -117 q 113 -60 103 -76 q 125 -30 122 -43 q 128 -1 128 -17 q 120 17 128 11 q 103 31 113 24 l 104 31 q 82 47 92 38 q 72 75 72 56 q 89 118 72 101 q 129 135 106 135 m 72 472 q 91 519 72 500 q 138 539 110 539 q 185 519 165 539 q 204 472 204 500 q 185 426 204 444 q 138 407 165 407 q 91 426 110 407 q 72 472 72 444 z "},"/":{"ha":463,"x_min":7,"x_max":450,"o":"m 58 -85 l 7 -68 l 399 992 l 450 978 l 58 -85 z "},"£":{"ha":646,"x_min":72,"x_max":568,"o":"m 568 101 q 506 22 542 49 q 425 -4 469 -4 q 376 5 400 -4 q 332 24 351 14 q 324 28 328 24 q 282 45 306 36 q 232 54 258 54 q 176 42 208 54 q 103 11 143 31 l 79 -3 l 72 11 q 154 92 118 36 q 210 226 185 139 q 236 454 236 314 l 236 536 l 129 536 l 129 583 l 236 583 l 236 696 q 282 864 236 804 q 396 924 328 924 q 450 914 428 924 q 488 894 472 904 q 515 882 507 882 l 515 781 l 501 781 q 459 851 486 828 q 408 874 432 874 q 351 834 376 874 q 326 715 326 794 l 326 583 l 483 583 l 483 536 l 326 536 l 326 465 q 297 247 326 339 q 231 107 268 156 q 263 117 246 113 q 296 122 281 122 q 342 112 319 122 q 389 89 365 101 q 429 67 408 76 q 474 58 450 58 q 557 111 511 58 l 568 101 z "},"t":{"ha":396,"x_min":29,"x_max":354,"o":"m 199 536 l 199 201 q 200 136 199 165 q 207 88 201 107 q 224 58 213 68 q 254 47 235 47 q 309 75 283 47 q 342 142 335 103 l 354 142 l 354 40 q 333 32 342 40 q 302 11 322 22 q 242 0 282 0 q 164 19 192 0 q 124 71 136 39 q 109 142 111 103 q 107 221 107 181 l 107 536 l 29 536 l 29 583 l 107 583 l 107 707 q 101 751 107 731 q 60 772 94 771 l 60 786 l 199 831 l 199 583 l 354 583 l 354 536 l 199 536 z "},"þ":{"ha":754,"x_min":64,"x_max":653,"o":"m 358 594 q 488 569 433 594 q 580 501 543 543 q 635 406 617 460 q 653 294 653 351 q 635 185 653 239 q 583 88 618 131 q 494 18 547 44 q 369 -8 442 -8 q 281 15 326 -8 q 200 72 236 38 l 200 -200 q 203 -224 200 -211 q 212 -249 206 -237 q 226 -268 218 -260 q 244 -276 233 -276 l 244 -290 l 64 -290 l 64 -276 q 82 -268 74 -276 q 97 -249 90 -260 q 106 -224 103 -237 q 108 -200 108 -211 l 108 800 q 108 824 108 813 q 103 845 107 836 q 90 860 99 854 q 64 868 81 867 l 64 882 l 200 924 l 200 524 q 267 576 228 557 q 358 594 307 594 m 371 39 q 456 61 419 40 q 515 115 492 82 q 550 190 539 149 q 561 275 561 231 q 547 374 561 325 q 507 460 533 422 q 442 523 481 499 q 356 547 404 547 q 298 536 326 547 q 248 504 269 525 q 213 455 226 483 q 200 392 200 426 l 200 210 q 215 141 200 172 q 255 87 231 110 q 310 51 279 64 q 371 39 340 39 z "},"˜":{"ha":394,"x_min":39,"x_max":356,"o":"m 356 732 q 323 650 339 669 q 278 631 307 631 q 240 639 261 631 q 197 658 219 647 q 153 677 175 668 q 114 686 132 686 q 78 671 93 686 q 46 631 64 656 l 39 632 q 84 715 58 690 q 138 739 110 739 q 174 731 154 739 q 212 712 193 722 q 250 693 231 701 q 286 685 269 685 q 324 699 308 685 q 350 733 339 714 l 356 732 z "},"™":{"ha":1022,"x_min":21,"x_max":956,"o":"m 931 557 q 933 542 931 551 q 938 522 935 532 q 945 506 940 513 q 956 499 950 499 l 956 485 l 825 485 l 825 499 q 836 506 831 499 q 845 522 842 513 q 851 540 849 531 q 853 557 853 550 l 853 793 l 693 475 l 540 774 l 540 557 q 542 542 540 551 q 548 522 544 532 q 556 506 551 513 q 568 499 561 499 l 568 485 l 469 485 l 469 499 q 481 506 475 499 q 489 522 486 513 q 494 542 492 532 q 496 557 496 551 l 496 847 q 492 883 496 864 q 469 903 489 901 l 469 917 l 560 917 l 710 622 l 856 917 l 956 917 l 956 903 q 938 883 944 903 q 931 847 931 863 l 931 557 m 400 804 q 381 848 399 826 q 336 869 364 869 l 254 869 l 254 557 q 256 540 254 550 q 262 522 258 531 q 270 505 265 513 q 282 497 275 497 l 282 483 l 150 483 l 150 497 q 161 504 156 497 q 169 521 167 511 q 174 540 172 531 q 176 557 176 550 l 176 869 l 99 869 q 54 848 71 869 q 35 804 38 826 l 21 804 l 21 917 l 414 917 l 414 804 l 400 804 z "},"u":{"ha":728,"x_min":68,"x_max":656,"o":"m 613 90 q 615 67 613 81 q 623 42 618 54 q 636 22 628 31 q 656 14 644 14 l 656 0 l 521 0 l 521 76 q 460 17 500 46 q 356 -12 419 -12 q 228 15 275 -12 q 156 86 181 43 q 124 180 131 129 q 117 275 117 231 l 117 474 q 116 498 117 486 q 110 519 115 510 q 96 535 106 529 q 68 542 86 542 l 68 554 l 208 599 l 208 244 q 254 89 208 139 q 367 39 300 39 q 431 55 403 39 q 480 93 460 71 q 510 139 500 115 q 521 178 521 163 l 521 474 q 520 498 521 486 q 515 519 519 510 q 500 535 510 529 q 472 542 490 542 l 472 554 l 613 599 l 613 90 z "},"ú":{"ha":728,"x_min":68,"x_max":656,"o":"m 613 90 q 615 67 613 81 q 623 42 618 54 q 636 22 628 31 q 656 14 644 14 l 656 0 l 521 0 l 521 76 q 460 17 500 46 q 356 -12 419 -12 q 228 15 275 -12 q 156 86 181 43 q 124 180 131 129 q 117 275 117 231 l 117 474 q 116 498 117 486 q 110 519 115 510 q 96 535 106 529 q 68 542 86 542 l 68 554 l 208 599 l 208 244 q 254 89 208 139 q 367 39 300 39 q 431 55 403 39 q 480 93 460 71 q 510 139 500 115 q 521 178 521 163 l 521 474 q 520 498 521 486 q 515 519 519 510 q 500 535 510 529 q 472 542 490 542 l 472 554 l 613 599 l 613 90 m 246 703 l 443 851 l 479 789 l 250 694 l 246 703 z "},"û":{"ha":728,"x_min":68,"x_max":656,"o":"m 613 90 q 615 67 613 81 q 623 42 618 54 q 636 22 628 31 q 656 14 644 14 l 656 0 l 521 0 l 521 76 q 460 17 500 46 q 356 -12 419 -12 q 228 15 275 -12 q 156 86 181 43 q 124 180 131 129 q 117 275 117 231 l 117 474 q 116 498 117 486 q 110 519 115 510 q 96 535 106 529 q 68 542 86 542 l 68 554 l 208 599 l 208 244 q 254 89 208 139 q 367 39 300 39 q 431 55 403 39 q 480 93 460 71 q 510 139 500 115 q 521 178 521 163 l 521 474 q 520 498 521 486 q 515 519 519 510 q 500 535 510 529 q 472 542 490 542 l 472 554 l 613 599 l 613 90 m 531 671 l 363 753 l 196 671 l 193 678 l 363 821 l 532 678 l 531 671 z "},"ü":{"ha":728,"x_min":68,"x_max":656,"o":"m 613 90 q 615 67 613 81 q 623 42 618 54 q 636 22 628 31 q 656 14 644 14 l 656 0 l 521 0 l 521 76 q 460 17 500 46 q 356 -12 419 -12 q 228 15 275 -12 q 156 86 181 43 q 124 180 131 129 q 117 275 117 231 l 117 474 q 116 498 117 486 q 110 519 115 510 q 96 535 106 529 q 68 542 86 542 l 68 554 l 208 599 l 208 244 q 254 89 208 139 q 367 39 300 39 q 431 55 403 39 q 480 93 460 71 q 510 139 500 115 q 521 178 521 163 l 521 474 q 520 498 521 486 q 515 519 519 510 q 500 535 510 529 q 472 542 490 542 l 472 554 l 613 599 l 613 90 m 488 735 q 475 703 488 715 q 446 690 463 690 q 413 703 426 690 q 400 735 400 715 q 413 767 400 754 q 446 779 426 779 q 475 767 463 779 q 488 735 488 754 m 328 735 q 315 703 328 715 q 283 690 303 690 q 251 703 264 690 q 239 735 239 715 q 251 767 239 754 q 283 779 264 779 q 315 767 303 779 q 328 735 328 754 z "},"ù":{"ha":728,"x_min":68,"x_max":656,"o":"m 613 90 q 615 67 613 81 q 623 42 618 54 q 636 22 628 31 q 656 14 644 14 l 656 0 l 521 0 l 521 76 q 460 17 500 46 q 356 -12 419 -12 q 228 15 275 -12 q 156 86 181 43 q 124 180 131 129 q 117 275 117 231 l 117 474 q 116 498 117 486 q 110 519 115 510 q 96 535 106 529 q 68 542 86 542 l 68 554 l 208 599 l 208 244 q 254 89 208 139 q 367 39 300 39 q 431 55 403 39 q 480 93 460 71 q 510 139 500 115 q 521 178 521 163 l 521 474 q 520 498 521 486 q 515 519 519 510 q 500 535 510 529 q 472 542 490 542 l 472 554 l 613 599 l 613 90 m 476 667 l 246 761 l 282 824 l 479 675 l 476 667 z "},"_":{"ha":589,"x_min":-3,"x_max":585,"o":"m -3 -256 l -3 -211 l 585 -211 l 585 -256 l -3 -256 z "},"­":{"ha":406,"x_min":50,"x_max":364,"o":"m 50 275 l 50 342 l 364 342 l 364 275 l 50 275 z "},"v":{"ha":647,"x_min":15,"x_max":624,"o":"m 624 583 l 624 569 q 604 563 614 569 q 585 544 594 556 q 569 520 576 533 q 556 496 561 507 l 317 -24 l 79 501 q 54 547 69 524 q 15 569 39 569 l 15 583 l 206 583 l 206 569 q 184 561 197 569 q 171 538 171 553 q 182 506 171 531 l 342 146 l 514 521 q 519 542 519 535 q 508 562 519 554 q 488 569 496 569 l 488 583 l 624 583 z "},"w":{"ha":936,"x_min":17,"x_max":914,"o":"m 914 569 q 876 556 889 569 q 851 514 863 542 l 642 -11 l 463 428 l 285 -10 l 79 499 q 55 546 69 522 q 17 569 40 569 l 17 583 l 207 583 l 207 569 q 183 560 197 569 q 168 531 168 551 q 170 519 168 528 q 175 503 172 510 l 311 167 l 486 599 l 663 167 l 800 508 q 807 538 807 529 q 800 558 807 549 q 776 569 793 568 l 776 583 l 914 583 l 914 569 z "},"x":{"ha":647,"x_min":15,"x_max":624,"o":"m 419 14 q 446 33 446 14 q 429 64 446 40 l 290 256 l 146 60 q 136 44 142 54 q 131 28 131 35 q 146 14 131 14 l 146 0 l 15 0 l 15 14 q 57 30 35 14 q 94 68 79 46 l 263 296 l 107 507 q 91 526 100 515 q 70 547 82 538 q 47 563 58 557 q 25 569 35 569 l 25 583 l 228 583 l 228 569 q 210 564 219 569 q 201 543 201 558 q 210 524 201 533 l 322 368 l 429 510 q 443 532 440 524 q 446 547 446 540 q 441 563 446 556 q 426 569 436 569 l 426 583 l 560 583 l 560 569 q 518 548 538 569 q 483 507 499 526 l 349 328 l 535 76 q 578 33 553 51 q 624 14 603 14 l 624 0 l 419 0 l 419 14 z "},"y":{"ha":658,"x_min":22,"x_max":635,"o":"m 285 -199 q 235 -278 265 -257 q 174 -299 206 -299 q 137 -293 153 -299 q 109 -280 121 -287 q 90 -265 97 -272 q 82 -254 83 -258 l 128 -142 q 142 -179 135 -167 q 161 -204 149 -193 q 192 -215 174 -215 q 244 -167 225 -215 l 313 4 l 89 510 q 66 548 82 526 q 22 569 50 569 l 22 583 l 206 583 l 206 569 q 192 560 200 569 q 183 535 183 550 q 189 513 183 522 l 360 119 l 524 521 q 528 539 528 531 q 519 561 528 553 q 500 569 510 569 l 500 583 l 635 583 l 635 569 q 597 551 613 569 q 571 508 581 532 l 285 -199 z "},"ý":{"ha":658,"x_min":22,"x_max":635,"o":"m 285 -199 q 235 -278 265 -257 q 174 -299 206 -299 q 137 -293 153 -299 q 109 -280 121 -287 q 90 -265 97 -272 q 82 -254 83 -258 l 128 -142 q 142 -179 135 -167 q 161 -204 149 -193 q 192 -215 174 -215 q 244 -167 225 -215 l 313 4 l 89 510 q 66 548 82 526 q 22 569 50 569 l 22 583 l 206 583 l 206 569 q 192 560 200 569 q 183 535 183 550 q 189 513 183 522 l 360 119 l 524 521 q 528 539 528 531 q 519 561 528 553 q 500 569 510 569 l 500 583 l 635 583 l 635 569 q 597 551 613 569 q 571 508 581 532 l 285 -199 m 238 710 l 435 858 l 471 796 l 242 701 l 238 710 z "},"ÿ":{"ha":658,"x_min":22,"x_max":635,"o":"m 285 -199 q 235 -278 265 -257 q 174 -299 206 -299 q 137 -293 153 -299 q 109 -280 121 -287 q 90 -265 97 -272 q 82 -254 83 -258 l 128 -142 q 142 -179 135 -167 q 161 -204 149 -193 q 192 -215 174 -215 q 244 -167 225 -215 l 313 4 l 89 510 q 66 548 82 526 q 22 569 50 569 l 22 583 l 206 583 l 206 569 q 192 560 200 569 q 183 535 183 550 q 189 513 183 522 l 360 119 l 524 521 q 528 539 528 531 q 519 561 528 553 q 500 569 510 569 l 500 583 l 635 583 l 635 569 q 597 551 613 569 q 571 508 581 532 l 285 -199 m 482 764 q 469 732 482 744 q 440 719 457 719 q 408 732 421 719 q 394 764 394 744 q 408 796 394 783 q 440 808 421 808 q 469 796 457 808 q 482 764 482 783 m 322 764 q 310 732 322 744 q 278 719 297 719 q 246 732 258 719 q 233 764 233 744 q 246 796 233 783 q 278 808 258 808 q 310 796 297 808 q 322 764 322 783 z "},"¥":{"ha":735,"x_min":15,"x_max":707,"o":"m 85 486 l 290 486 l 97 819 q 81 844 90 831 q 61 871 72 858 q 38 892 50 883 q 15 901 26 901 l 15 915 l 197 915 l 197 901 q 178 894 190 901 q 165 871 165 886 q 169 857 165 861 l 381 490 l 582 838 q 590 854 588 849 q 592 868 592 860 q 576 896 589 890 q 560 901 563 901 l 560 915 l 707 915 l 707 901 q 665 876 686 901 q 628 825 643 851 l 433 486 l 646 486 l 646 433 l 413 433 l 413 317 l 646 317 l 646 263 l 413 263 l 413 90 q 416 67 413 79 q 425 42 419 54 q 439 22 431 31 q 458 14 447 14 l 458 0 l 274 0 l 274 14 q 293 22 285 14 q 308 41 301 29 q 317 66 314 53 q 319 90 319 79 l 319 263 l 85 263 l 85 317 l 319 317 l 319 433 l 85 433 l 85 486 z "},"z":{"ha":596,"x_min":18,"x_max":544,"o":"m 18 0 l 399 535 l 171 535 q 128 525 147 535 q 95 500 108 515 q 75 467 82 485 q 68 435 68 450 l 54 435 l 54 583 l 544 583 l 164 50 l 422 50 q 474 60 453 50 q 508 84 494 69 q 526 117 521 99 q 532 150 532 135 l 544 150 l 544 0 l 18 0 z "},"ž":{"ha":596,"x_min":18,"x_max":544,"o":"m 18 0 l 399 535 l 171 535 q 128 525 147 535 q 95 500 108 515 q 75 467 82 485 q 68 435 68 450 l 54 435 l 54 583 l 544 583 l 164 50 l 422 50 q 474 60 453 50 q 508 84 494 69 q 526 117 521 99 q 532 150 532 135 l 544 150 l 544 0 l 18 0 m 131 843 l 299 764 l 464 843 l 467 838 l 299 693 l 126 838 l 131 843 z "},"Ă":{"ha":819,"x_min":19,"x_max":799,"o":"m 593 14 l 600 14 q 633 44 633 14 q 629 68 633 56 l 504 406 l 261 406 l 140 74 q 136 53 136 63 q 146 24 136 35 q 167 14 156 14 l 174 14 l 174 0 l 19 0 l 19 14 l 26 14 q 62 35 44 14 q 90 86 79 57 l 408 933 l 719 94 q 747 40 729 67 q 792 14 764 14 l 799 14 l 799 0 l 593 0 l 593 14 m 275 453 l 489 453 l 382 743 l 275 453 m 567 1104 q 556 1056 567 1082 q 524 1009 544 1031 q 476 974 504 988 q 413 960 447 960 q 351 973 379 960 q 301 1007 322 986 q 268 1053 281 1028 q 256 1104 256 1079 l 264 1104 q 273 1081 265 1096 q 297 1051 281 1067 q 342 1025 314 1036 q 411 1014 369 1014 q 481 1025 454 1014 q 525 1051 508 1036 q 549 1081 542 1067 q 558 1104 556 1096 l 567 1104 z "},"Ā":{"ha":819,"x_min":19,"x_max":799,"o":"m 593 14 l 600 14 q 633 44 633 14 q 629 68 633 56 l 504 406 l 261 406 l 140 74 q 136 53 136 63 q 146 24 136 35 q 167 14 156 14 l 174 14 l 174 0 l 19 0 l 19 14 l 26 14 q 62 35 44 14 q 90 86 79 57 l 408 933 l 719 94 q 747 40 729 67 q 792 14 764 14 l 799 14 l 799 0 l 593 0 l 593 14 m 275 453 l 489 453 l 382 743 l 275 453 m 272 1046 l 550 1046 l 550 990 l 272 990 l 272 1046 z "},"Ą":{"ha":819,"x_min":19,"x_max":799,"o":"m 699 0 q 657 -49 675 -21 q 639 -106 639 -78 q 659 -153 639 -132 q 732 -174 679 -174 q 789 -164 765 -174 l 792 -171 q 747 -187 774 -182 q 692 -193 721 -193 q 601 -170 629 -193 q 572 -115 572 -147 q 597 -51 572 -82 q 653 0 621 -21 l 593 0 l 593 14 l 600 14 q 633 44 633 14 q 629 68 633 56 l 504 406 l 261 406 l 140 74 q 136 53 136 63 q 146 24 136 35 q 167 14 156 14 l 174 14 l 174 0 l 19 0 l 19 14 l 26 14 q 62 36 44 14 q 90 86 79 58 l 408 933 l 719 94 q 750 41 731 68 q 792 14 769 14 l 799 14 l 799 0 l 699 0 m 275 453 l 489 453 l 382 743 l 275 453 z "},"Ć":{"ha":865,"x_min":54,"x_max":808,"o":"m 551 881 q 373 844 449 881 q 247 748 297 807 q 173 615 197 689 q 149 469 149 542 q 181 309 149 388 q 269 170 213 231 q 400 73 325 110 q 563 36 475 36 q 622 42 588 36 q 689 63 656 47 q 751 108 722 79 q 794 185 779 138 l 808 185 l 808 31 q 765 25 788 31 q 714 13 742 19 q 634 -6 678 3 q 542 -14 590 -14 q 329 28 421 -14 q 176 136 238 69 q 85 287 115 203 q 54 457 54 371 q 85 628 54 543 q 178 780 115 713 q 335 889 240 847 q 557 931 429 931 q 640 922 603 931 q 706 906 676 914 q 744 895 726 899 q 778 892 761 892 l 778 738 l 764 738 q 733 809 756 781 q 681 853 711 838 q 617 874 651 868 q 551 881 583 881 m 315 956 l 513 1104 l 549 1042 l 319 947 l 315 956 z "},"Č":{"ha":861,"x_min":50,"x_max":804,"o":"m 547 881 q 369 844 444 881 q 243 748 293 807 q 169 615 193 689 q 144 469 144 542 q 176 309 144 388 q 265 170 208 231 q 396 73 321 110 q 558 36 471 36 q 617 42 583 36 q 685 63 651 47 q 747 108 718 79 q 790 185 775 138 l 804 185 l 804 31 q 760 25 783 31 q 710 13 738 19 q 630 -6 674 3 q 538 -14 586 -14 q 325 28 417 -14 q 172 136 233 69 q 81 287 111 203 q 50 457 50 371 q 81 628 50 543 q 174 780 111 713 q 331 889 236 847 q 553 931 425 931 q 635 922 599 931 q 701 906 672 914 q 740 895 722 899 q 774 892 757 892 l 774 738 l 760 738 q 729 809 751 781 q 677 853 707 838 q 613 874 647 868 q 547 881 579 881 m 357 1097 l 525 1018 l 690 1097 l 693 1092 l 525 947 l 353 1092 l 357 1097 z "},"Ĉ":{"ha":865,"x_min":54,"x_max":808,"o":"m 551 881 q 373 844 449 881 q 247 748 297 807 q 173 615 197 689 q 149 469 149 542 q 181 309 149 388 q 269 170 213 231 q 400 73 325 110 q 563 36 475 36 q 622 42 588 36 q 689 63 656 47 q 751 108 722 79 q 794 185 779 138 l 808 185 l 808 31 q 765 25 788 31 q 714 13 742 19 q 634 -6 678 3 q 542 -14 590 -14 q 329 28 421 -14 q 176 136 238 69 q 85 287 115 203 q 54 457 54 371 q 85 628 54 543 q 178 780 115 713 q 335 889 240 847 q 557 931 429 931 q 640 922 603 931 q 706 906 676 914 q 744 895 726 899 q 778 892 761 892 l 778 738 l 764 738 q 733 809 756 781 q 681 853 711 838 q 617 874 651 868 q 551 881 583 881 m 694 951 l 526 1033 l 360 951 l 357 958 l 526 1101 l 696 958 l 694 951 z "},"Ċ":{"ha":865,"x_min":54,"x_max":808,"o":"m 551 881 q 373 844 449 881 q 247 748 297 807 q 173 615 197 689 q 149 469 149 542 q 181 309 149 388 q 269 170 213 231 q 400 73 325 110 q 563 36 475 36 q 622 42 588 36 q 689 63 656 47 q 751 108 722 79 q 794 185 779 138 l 808 185 l 808 31 q 765 25 788 31 q 714 13 742 19 q 634 -6 678 3 q 542 -14 590 -14 q 329 28 421 -14 q 176 136 238 69 q 85 287 115 203 q 54 457 54 371 q 85 628 54 543 q 178 780 115 713 q 335 889 240 847 q 557 931 429 931 q 640 922 603 931 q 706 906 676 914 q 744 895 726 899 q 778 892 761 892 l 778 738 l 764 738 q 733 809 756 781 q 681 853 711 838 q 617 874 651 868 q 551 881 583 881 m 476 1029 q 491 1067 476 1053 q 529 1082 506 1082 q 568 1067 553 1082 q 583 1029 583 1053 q 568 991 583 1006 q 529 976 553 976 q 491 991 506 976 q 476 1029 476 1006 z "},"Ď":{"ha":856,"x_min":61,"x_max":799,"o":"m 61 14 l 68 14 q 86 22 78 14 q 101 42 94 31 q 110 66 107 53 q 113 90 113 79 l 113 831 q 110 853 113 840 q 101 876 107 865 q 88 895 96 888 q 68 903 79 903 l 61 903 l 61 917 l 329 917 q 526 878 439 917 q 674 776 614 840 q 767 628 735 711 q 799 454 799 544 q 768 288 799 369 q 676 143 738 207 q 524 40 615 79 q 311 0 432 0 l 61 0 l 61 14 m 704 433 q 672 601 704 522 q 583 740 640 681 q 447 833 525 799 q 276 868 368 868 l 206 868 l 206 49 l 279 49 q 430 72 354 49 q 567 142 506 94 q 666 263 628 190 q 704 433 704 335 m 100 1097 l 268 1018 l 433 1097 l 436 1092 l 268 947 l 96 1092 l 100 1097 z "},"Đ":{"ha":856,"x_min":43,"x_max":799,"o":"m 63 917 l 329 917 q 526 878 439 917 q 674 776 614 840 q 767 628 735 711 q 799 454 799 544 q 768 288 799 369 q 676 143 738 207 q 524 40 615 79 q 311 0 432 0 l 63 0 l 63 14 l 69 14 q 88 22 79 14 q 102 42 96 31 q 111 66 108 53 q 114 90 114 79 l 114 432 l 43 432 l 43 488 l 114 488 l 114 831 q 111 853 114 840 q 102 876 108 865 q 88 895 96 888 q 69 903 79 903 l 63 903 l 63 917 m 704 433 q 672 601 704 522 q 583 740 640 681 q 447 833 525 799 q 276 868 368 868 l 206 868 l 206 488 l 449 488 l 449 432 l 206 432 l 206 49 l 279 49 q 430 72 354 49 q 567 142 506 94 q 666 263 628 190 q 704 433 704 335 z "},"∆":{"ha":951,"x_min":18,"x_max":929,"o":"m 474 953 l 929 0 l 18 0 l 474 953 m 457 788 l 115 58 l 793 58 l 457 788 z "},"Ĕ":{"ha":674,"x_min":63,"x_max":632,"o":"m 63 14 l 69 14 q 89 22 81 14 q 103 40 97 29 q 113 64 110 51 q 117 88 117 76 l 117 831 q 113 853 117 840 q 103 876 110 865 q 89 895 97 888 q 69 903 81 903 l 63 903 l 63 917 l 597 917 l 597 788 l 583 788 q 558 844 581 819 q 489 868 536 868 l 210 868 l 210 517 l 440 517 q 494 536 472 517 q 515 582 515 556 l 529 582 l 529 408 l 515 408 q 494 451 515 433 q 440 469 474 469 l 210 469 l 210 49 l 514 49 q 560 61 540 49 q 592 91 579 74 q 612 128 606 108 q 618 163 618 149 l 632 163 l 632 0 l 63 0 l 63 14 m 492 1104 q 481 1056 492 1082 q 449 1009 469 1031 q 401 974 429 988 q 338 960 372 960 q 276 973 304 960 q 226 1007 247 986 q 193 1053 206 1028 q 181 1104 181 1079 l 189 1104 q 198 1081 190 1096 q 222 1051 206 1067 q 267 1025 239 1036 q 336 1014 294 1014 q 406 1025 379 1014 q 450 1051 433 1036 q 474 1081 467 1067 q 483 1104 481 1096 l 492 1104 z "},"Ě":{"ha":674,"x_min":63,"x_max":632,"o":"m 63 14 l 69 14 q 89 22 81 14 q 103 40 97 29 q 113 64 110 51 q 117 88 117 76 l 117 831 q 113 853 117 840 q 103 876 110 865 q 89 895 97 888 q 69 903 81 903 l 63 903 l 63 917 l 597 917 l 597 788 l 583 788 q 558 844 581 819 q 489 868 536 868 l 210 868 l 210 517 l 440 517 q 494 536 472 517 q 515 582 515 556 l 529 582 l 529 408 l 515 408 q 494 451 515 433 q 440 469 474 469 l 210 469 l 210 49 l 514 49 q 560 61 540 49 q 592 91 579 74 q 612 128 606 108 q 618 163 618 149 l 632 163 l 632 0 l 63 0 l 63 14 m 169 1097 l 338 1018 l 503 1097 l 506 1092 l 338 947 l 165 1092 l 169 1097 z "},"Ė":{"ha":674,"x_min":63,"x_max":632,"o":"m 63 14 l 69 14 q 89 22 81 14 q 103 40 97 29 q 113 64 110 51 q 117 88 117 76 l 117 831 q 113 853 117 840 q 103 876 110 865 q 89 895 97 888 q 69 903 81 903 l 63 903 l 63 917 l 597 917 l 597 788 l 583 788 q 558 844 581 819 q 489 868 536 868 l 210 868 l 210 517 l 440 517 q 494 536 472 517 q 515 582 515 556 l 529 582 l 529 408 l 515 408 q 494 451 515 433 q 440 469 474 469 l 210 469 l 210 49 l 514 49 q 560 61 540 49 q 592 91 579 74 q 612 128 606 108 q 618 163 618 149 l 632 163 l 632 0 l 63 0 l 63 14 m 283 1029 q 298 1067 283 1053 q 336 1082 313 1082 q 375 1067 360 1082 q 390 1029 390 1053 q 375 991 390 1006 q 336 976 360 976 q 298 991 313 976 q 283 1029 283 1006 z "},"Ē":{"ha":674,"x_min":63,"x_max":632,"o":"m 63 14 l 69 14 q 89 22 81 14 q 103 40 97 29 q 113 64 110 51 q 117 88 117 76 l 117 831 q 113 853 117 840 q 103 876 110 865 q 89 895 97 888 q 69 903 81 903 l 63 903 l 63 917 l 597 917 l 597 788 l 583 788 q 558 844 581 819 q 489 868 536 868 l 210 868 l 210 517 l 440 517 q 494 536 472 517 q 515 582 515 556 l 529 582 l 529 408 l 515 408 q 494 451 515 433 q 440 469 474 469 l 210 469 l 210 49 l 514 49 q 560 61 540 49 q 592 91 579 74 q 612 128 606 108 q 618 163 618 149 l 632 163 l 632 0 l 63 0 l 63 14 m 197 1046 l 475 1046 l 475 990 l 197 990 l 197 1046 z "},"Ŋ":{"ha":872,"x_min":63,"x_max":803,"o":"m 208 14 l 215 14 l 215 0 l 63 0 l 63 14 l 69 14 q 88 22 79 14 q 103 42 97 31 q 112 66 108 53 q 115 90 115 79 l 115 831 q 114 853 115 840 q 108 876 113 865 q 94 895 103 888 q 69 903 85 903 l 63 903 l 63 917 l 199 917 l 703 122 l 703 831 q 699 853 703 840 q 690 876 696 865 q 675 895 683 888 q 656 903 667 903 l 649 903 l 649 917 l 803 917 l 803 903 l 796 903 q 776 895 785 903 q 762 876 768 888 q 753 853 756 865 q 750 831 750 840 l 750 1 q 739 -83 750 -44 q 710 -155 728 -122 q 670 -214 693 -187 q 624 -261 647 -240 q 497 -343 568 -310 l 490 -333 q 578 -243 539 -294 q 638 -138 610 -199 q 665 0 665 -78 l 163 797 l 163 90 q 165 66 163 79 q 174 42 168 53 q 189 22 181 31 q 208 14 197 14 z "},"Ę":{"ha":674,"x_min":63,"x_max":632,"o":"m 63 14 l 69 14 q 88 22 79 14 q 103 40 97 29 q 113 64 110 51 q 117 88 117 76 l 117 831 q 113 853 117 840 q 103 876 110 865 q 88 895 97 888 q 69 903 79 903 l 63 903 l 63 917 l 597 917 l 597 788 l 583 788 q 562 844 583 819 q 494 868 540 868 l 210 868 l 210 517 l 440 517 q 494 536 472 517 q 515 582 515 556 l 529 582 l 529 408 l 515 408 q 494 451 515 433 q 440 469 474 469 l 210 469 l 210 49 l 514 49 q 560 61 540 49 q 592 92 579 74 q 612 133 606 111 q 618 172 618 154 l 632 172 l 632 0 l 539 0 q 497 -49 515 -21 q 479 -106 479 -78 q 499 -153 479 -132 q 572 -174 519 -174 q 629 -164 606 -174 l 632 -171 q 588 -187 614 -182 q 532 -193 561 -193 q 441 -170 469 -193 q 413 -115 413 -147 q 437 -51 413 -82 q 493 0 461 -21 l 63 0 l 63 14 z "},"Ğ":{"ha":913,"x_min":51,"x_max":858,"o":"m 660 483 l 858 483 l 858 469 l 851 469 q 832 462 840 469 q 818 443 824 454 q 809 419 813 432 q 806 397 806 407 l 806 25 q 749 8 781 15 q 682 -3 717 1 q 611 -11 647 -8 q 544 -14 575 -14 q 326 28 419 -14 q 172 137 233 69 q 81 289 111 204 q 51 460 51 374 q 81 631 51 546 q 173 782 111 715 q 328 890 235 849 q 551 931 422 931 q 642 922 600 931 q 715 907 683 914 q 747 899 733 903 q 769 896 760 896 l 782 896 l 782 749 l 768 749 q 735 818 760 792 q 679 858 711 844 q 612 877 647 872 q 546 882 576 882 q 365 845 442 882 q 240 750 289 808 q 168 619 192 692 q 144 474 144 546 q 175 315 144 393 q 261 174 206 236 q 395 74 317 113 q 569 36 474 36 q 635 42 596 36 q 713 71 674 49 l 713 397 q 710 419 713 407 q 701 443 707 432 q 686 462 694 454 q 667 469 678 469 l 660 469 l 660 483 m 678 1104 q 667 1056 678 1082 q 635 1009 656 1031 q 587 974 615 988 q 524 960 558 960 q 462 973 490 960 q 413 1007 433 986 q 379 1053 392 1028 q 367 1104 367 1079 l 375 1104 q 384 1081 376 1096 q 408 1051 392 1067 q 453 1025 425 1036 q 522 1014 481 1014 q 592 1025 565 1014 q 636 1051 619 1036 q 660 1081 653 1067 q 669 1104 667 1096 l 678 1104 z "},"Ĝ":{"ha":913,"x_min":51,"x_max":858,"o":"m 660 483 l 858 483 l 858 469 l 851 469 q 832 462 840 469 q 818 443 824 454 q 809 419 813 432 q 806 397 806 407 l 806 25 q 749 8 781 15 q 682 -3 717 1 q 611 -11 647 -8 q 544 -14 575 -14 q 326 28 419 -14 q 172 137 233 69 q 81 289 111 204 q 51 460 51 374 q 81 631 51 546 q 173 782 111 715 q 328 890 235 849 q 551 931 422 931 q 642 922 600 931 q 715 907 683 914 q 747 899 733 903 q 769 896 760 896 l 782 896 l 782 749 l 768 749 q 735 818 760 792 q 679 858 711 844 q 612 877 647 872 q 546 882 576 882 q 365 845 442 882 q 240 750 289 808 q 168 619 192 692 q 144 474 144 546 q 175 315 144 393 q 261 174 206 236 q 395 74 317 113 q 569 36 474 36 q 635 42 596 36 q 713 71 674 49 l 713 397 q 710 419 713 407 q 701 443 707 432 q 686 462 694 454 q 667 469 678 469 l 660 469 l 660 483 m 713 951 l 544 1033 l 378 951 l 375 958 l 544 1101 l 714 958 l 713 951 z "},"Ġ":{"ha":913,"x_min":51,"x_max":858,"o":"m 660 483 l 858 483 l 858 469 l 851 469 q 832 462 840 469 q 818 443 824 454 q 809 419 813 432 q 806 397 806 407 l 806 25 q 749 8 781 15 q 682 -3 717 1 q 611 -11 647 -8 q 544 -14 575 -14 q 326 28 419 -14 q 172 137 233 69 q 81 289 111 204 q 51 460 51 374 q 81 631 51 546 q 173 782 111 715 q 328 890 235 849 q 551 931 422 931 q 642 922 600 931 q 715 907 683 914 q 747 899 733 903 q 769 896 760 896 l 782 896 l 782 749 l 768 749 q 735 818 760 792 q 679 858 711 844 q 612 877 647 872 q 546 882 576 882 q 365 845 442 882 q 240 750 289 808 q 168 619 192 692 q 144 474 144 546 q 175 315 144 393 q 261 174 206 236 q 395 74 317 113 q 569 36 474 36 q 635 42 596 36 q 713 71 674 49 l 713 397 q 710 419 713 407 q 701 443 707 432 q 686 462 694 454 q 667 469 678 469 l 660 469 l 660 483 m 488 1029 q 502 1067 488 1053 q 540 1082 517 1082 q 579 1067 564 1082 q 594 1029 594 1053 q 579 991 594 1006 q 540 976 564 976 q 502 991 517 976 q 488 1029 488 1006 z "},"Ħ":{"ha":864,"x_min":39,"x_max":813,"o":"m 63 917 l 257 917 l 257 903 l 250 903 q 231 895 239 903 q 217 876 222 888 q 210 853 213 865 q 207 831 207 840 l 207 706 l 651 706 l 651 831 q 649 853 651 840 q 640 876 646 865 q 626 895 635 888 q 608 903 618 903 l 601 903 l 601 917 l 796 917 l 796 903 l 789 903 q 769 895 778 903 q 756 876 761 888 q 747 853 750 865 q 744 831 744 840 l 744 706 l 813 706 l 813 661 l 744 661 l 744 90 q 748 66 744 79 q 758 42 751 53 q 772 22 764 31 q 789 14 779 14 l 796 14 l 796 0 l 601 0 l 601 14 l 608 14 q 626 22 618 14 q 640 41 635 29 q 649 66 646 53 q 651 90 651 79 l 651 469 l 207 469 l 207 90 q 210 66 207 79 q 218 42 213 53 q 232 22 224 31 q 250 14 240 14 l 257 14 l 257 0 l 63 0 l 63 14 l 69 14 q 88 22 79 14 q 102 41 96 29 q 111 66 108 53 q 114 90 114 79 l 114 661 l 39 661 l 39 706 l 114 706 l 114 831 q 111 853 114 840 q 103 876 108 865 q 89 895 97 888 q 69 903 81 903 l 63 903 l 63 917 m 651 517 l 651 661 l 207 661 l 207 517 l 651 517 z "},"Ĥ":{"ha":864,"x_min":72,"x_max":804,"o":"m 610 14 l 617 14 q 635 22 626 14 q 649 41 643 29 q 658 66 656 53 q 661 90 661 79 l 661 468 l 217 468 l 217 90 q 219 66 217 79 q 228 42 222 53 q 241 22 233 31 q 260 14 249 14 l 267 14 l 267 0 l 72 0 l 72 14 l 79 14 q 97 22 89 14 q 112 41 106 29 q 121 66 118 53 q 124 90 124 79 l 124 831 q 121 853 124 840 q 113 876 118 865 q 99 895 107 888 q 79 903 90 903 l 72 903 l 72 917 l 267 917 l 267 903 l 260 903 q 240 895 249 903 q 227 876 232 888 q 219 853 222 865 q 217 831 217 840 l 217 517 l 661 517 l 661 831 q 658 853 661 840 q 650 876 656 865 q 636 895 644 888 q 617 903 628 903 l 610 903 l 610 917 l 804 917 l 804 903 l 797 903 q 778 895 786 903 q 765 876 769 888 q 757 853 760 865 q 754 831 754 840 l 754 90 q 758 66 754 79 q 767 42 761 53 q 780 22 772 31 q 797 14 788 14 l 804 14 l 804 0 l 610 0 l 610 14 m 599 951 l 431 1033 l 264 951 l 261 958 l 431 1101 l 600 958 l 599 951 z "},"Ĭ":{"ha":338,"x_min":13,"x_max":324,"o":"m 68 917 l 267 917 l 267 903 l 260 903 q 242 895 250 903 q 228 877 233 888 q 219 853 222 867 q 215 831 215 840 l 215 90 q 218 66 215 79 q 227 42 221 53 q 241 22 233 31 q 260 14 249 14 l 267 14 l 267 0 l 68 0 l 68 14 l 75 14 q 94 22 86 14 q 109 41 103 29 q 118 66 115 53 q 121 90 121 79 l 121 831 q 118 853 121 840 q 109 876 115 865 q 94 895 103 888 q 75 903 86 903 l 68 903 l 68 917 m 324 1104 q 313 1056 324 1082 q 281 1009 301 1031 q 233 974 261 988 q 169 960 204 960 q 108 973 136 960 q 58 1007 79 986 q 25 1053 38 1028 q 13 1104 13 1079 l 21 1104 q 30 1081 22 1096 q 54 1051 38 1067 q 99 1025 71 1036 q 168 1014 126 1014 q 238 1025 211 1014 q 282 1051 265 1036 q 306 1081 299 1067 q 315 1104 313 1096 l 324 1104 z "},"İ":{"ha":338,"x_min":68,"x_max":267,"o":"m 68 917 l 267 917 l 267 903 l 260 903 q 242 895 250 903 q 228 877 233 888 q 219 853 222 867 q 215 831 215 840 l 215 90 q 218 66 215 79 q 227 42 221 53 q 241 22 233 31 q 260 14 249 14 l 267 14 l 267 0 l 68 0 l 68 14 l 75 14 q 94 22 86 14 q 109 41 103 29 q 118 66 115 53 q 121 90 121 79 l 121 831 q 118 853 121 840 q 109 876 115 865 q 94 895 103 888 q 75 903 86 903 l 68 903 l 68 917 m 115 1029 q 130 1067 115 1053 q 168 1082 144 1082 q 207 1067 192 1082 q 222 1029 222 1053 q 207 991 222 1006 q 168 976 192 976 q 130 991 144 976 q 115 1029 115 1006 z "},"Ī":{"ha":338,"x_min":29,"x_max":307,"o":"m 68 917 l 267 917 l 267 903 l 260 903 q 242 895 250 903 q 228 877 233 888 q 219 853 222 867 q 215 831 215 840 l 215 90 q 218 66 215 79 q 227 42 221 53 q 241 22 233 31 q 260 14 249 14 l 267 14 l 267 0 l 68 0 l 68 14 l 75 14 q 94 22 86 14 q 109 41 103 29 q 118 66 115 53 q 121 90 121 79 l 121 831 q 118 853 121 840 q 109 876 115 865 q 94 895 103 888 q 75 903 86 903 l 68 903 l 68 917 m 29 1046 l 307 1046 l 307 990 l 29 990 l 29 1046 z "},"Į":{"ha":338,"x_min":60,"x_max":279,"o":"m 68 14 l 75 14 q 94 22 86 14 q 109 41 103 29 q 118 66 115 53 q 121 90 121 79 l 121 831 q 118 853 121 840 q 109 876 115 865 q 94 895 103 888 q 75 903 86 903 l 68 903 l 68 917 l 267 917 l 267 903 l 260 903 q 242 895 250 903 q 228 877 233 888 q 219 853 222 867 q 215 831 215 840 l 215 90 q 218 66 215 79 q 227 42 221 53 q 241 22 233 31 q 260 14 249 14 l 267 14 l 267 0 l 186 0 q 144 -49 163 -21 q 126 -106 126 -78 q 147 -153 126 -132 q 219 -174 167 -174 q 276 -164 251 -174 l 279 -171 q 235 -187 261 -182 q 179 -193 208 -193 q 88 -170 117 -193 q 60 -115 60 -147 q 84 -51 60 -82 q 140 0 108 -21 l 68 0 l 68 14 z "},"Ĩ":{"ha":338,"x_min":10,"x_max":326,"o":"m 68 917 l 267 917 l 267 903 l 260 903 q 242 895 250 903 q 228 877 233 888 q 219 853 222 867 q 215 831 215 840 l 215 90 q 218 66 215 79 q 227 42 221 53 q 241 22 233 31 q 260 14 249 14 l 267 14 l 267 0 l 68 0 l 68 14 l 75 14 q 94 22 86 14 q 109 41 103 29 q 118 66 115 53 q 121 90 121 79 l 121 831 q 118 853 121 840 q 109 876 115 865 q 94 895 103 888 q 75 903 86 903 l 68 903 l 68 917 m 326 1065 q 294 983 310 1003 q 249 964 278 964 q 211 972 232 964 q 168 991 190 981 q 124 1010 146 1001 q 85 1019 103 1019 q 49 1004 64 1019 q 17 964 35 989 l 10 965 q 55 1048 29 1024 q 108 1072 81 1072 q 144 1064 125 1072 q 183 1045 164 1056 q 221 1026 201 1035 q 257 1018 240 1018 q 294 1033 279 1018 q 321 1067 310 1047 l 326 1065 z "},"Ĵ":{"ha":375,"x_min":-18,"x_max":369,"o":"m 104 917 l 304 917 l 304 903 l 297 903 q 278 895 286 903 q 263 876 269 888 q 253 851 257 864 q 250 829 250 839 l 250 56 q 239 -26 250 11 q 209 -97 228 -64 q 167 -156 190 -129 q 119 -206 144 -183 q -11 -292 63 -257 l -18 -281 q 68 -199 31 -246 q 128 -100 100 -158 q 156 35 156 -42 l 156 829 q 153 851 156 839 q 144 876 150 864 q 129 895 138 888 q 111 903 121 903 l 104 903 l 104 917 m 368 951 l 200 1033 l 33 951 l 31 958 l 200 1101 l 369 958 l 368 951 z "},"Ĺ":{"ha":646,"x_min":47,"x_max":632,"o":"m 63 14 l 69 14 q 89 22 81 14 q 103 40 97 29 q 113 64 110 51 q 117 88 117 76 l 117 831 q 113 853 117 840 q 103 876 110 865 q 89 895 97 888 q 69 903 81 903 l 63 903 l 63 917 l 263 917 l 263 903 l 256 903 q 236 895 244 903 q 222 876 228 888 q 213 853 217 865 q 210 831 210 840 l 210 51 l 514 51 q 560 64 540 51 q 592 95 579 76 q 612 135 606 114 q 618 175 618 157 l 632 175 l 632 0 l 63 0 l 63 14 m 47 956 l 244 1104 l 281 1042 l 51 947 l 47 956 z "},"Ľ":{"ha":646,"x_min":63,"x_max":632,"o":"m 63 14 l 69 14 q 89 22 81 14 q 103 40 97 29 q 113 64 110 51 q 117 88 117 76 l 117 831 q 113 853 117 840 q 103 876 110 865 q 89 895 97 888 q 69 903 81 903 l 63 903 l 63 917 l 263 917 l 263 903 l 256 903 q 236 895 244 903 q 222 876 228 888 q 213 853 217 865 q 210 831 210 840 l 210 51 l 514 51 q 560 64 540 51 q 592 95 579 76 q 612 135 606 114 q 618 175 618 157 l 632 175 l 632 0 l 63 0 l 63 14 m 325 915 q 384 888 365 915 q 403 825 403 861 q 397 778 403 803 q 376 726 392 753 q 330 674 360 700 q 251 626 300 649 l 243 639 q 287 685 271 665 q 311 720 303 704 q 322 750 319 736 q 324 779 324 764 q 317 796 324 790 q 301 807 311 801 q 279 823 290 814 q 268 856 268 832 q 285 899 268 882 q 325 915 301 915 z "},"Ŀ":{"ha":646,"x_min":63,"x_max":632,"o":"m 63 14 l 69 14 q 89 22 81 14 q 103 40 97 29 q 113 64 110 51 q 117 88 117 76 l 117 831 q 113 853 117 840 q 103 876 110 865 q 89 895 97 888 q 69 903 81 903 l 63 903 l 63 917 l 263 917 l 263 903 l 256 903 q 236 895 244 903 q 222 876 228 888 q 213 853 217 865 q 210 831 210 840 l 210 51 l 514 51 q 560 64 540 51 q 592 95 579 76 q 612 135 606 114 q 618 175 618 157 l 632 175 l 632 0 l 63 0 l 63 14 m 257 267 q 276 314 257 294 q 322 333 294 333 q 369 314 350 333 q 389 267 389 294 q 369 220 389 239 q 322 201 350 201 q 276 220 294 201 q 257 267 257 239 z "},"Ł":{"ha":646,"x_min":36,"x_max":632,"o":"m 63 917 l 263 917 l 263 903 l 256 903 q 236 895 244 903 q 222 876 228 888 q 213 853 217 865 q 210 831 210 840 l 210 353 q 272 398 239 375 q 335 443 306 421 l 365 401 l 210 289 l 210 51 l 514 51 q 560 64 540 51 q 592 95 579 76 q 612 135 606 114 q 618 175 618 157 l 632 175 l 632 0 l 63 0 l 63 14 l 69 14 q 89 22 81 14 q 103 40 97 29 q 113 64 110 51 q 117 88 117 76 l 117 224 q 92 206 104 215 q 68 188 81 196 l 36 229 l 117 286 l 117 831 q 113 853 117 840 q 103 876 110 865 q 89 895 97 888 q 69 903 81 903 l 63 903 l 63 917 z "},"Ń":{"ha":872,"x_min":58,"x_max":804,"o":"m 208 14 l 215 14 l 215 0 l 61 0 l 61 14 l 68 14 q 87 22 78 14 q 101 42 96 31 q 110 66 107 53 q 114 90 114 79 l 114 831 q 112 853 114 840 q 104 876 110 865 q 89 895 99 888 q 65 903 79 903 l 58 903 l 58 917 l 199 917 l 703 122 l 703 831 q 699 853 703 840 q 690 876 696 865 q 675 895 683 888 q 656 903 667 903 l 649 903 l 649 917 l 804 917 l 804 903 l 797 903 q 778 895 786 903 q 763 876 769 888 q 754 853 757 865 q 751 831 751 840 l 751 0 l 665 0 l 163 797 l 163 90 q 165 66 163 79 q 174 42 168 53 q 189 22 181 31 q 208 14 197 14 m 318 956 l 515 1104 l 551 1042 l 322 947 l 318 956 z "},"Ň":{"ha":872,"x_min":58,"x_max":804,"o":"m 208 14 l 215 14 l 215 0 l 61 0 l 61 14 l 68 14 q 87 22 78 14 q 101 42 96 31 q 110 66 107 53 q 114 90 114 79 l 114 831 q 112 853 114 840 q 104 876 110 865 q 89 895 99 888 q 65 903 79 903 l 58 903 l 58 917 l 199 917 l 703 122 l 703 831 q 699 853 703 840 q 690 876 696 865 q 675 895 683 888 q 656 903 667 903 l 649 903 l 649 917 l 804 917 l 804 903 l 797 903 q 778 895 786 903 q 763 876 769 888 q 754 853 757 865 q 751 831 751 840 l 751 0 l 665 0 l 163 797 l 163 90 q 165 66 163 79 q 174 42 168 53 q 189 22 181 31 q 208 14 197 14 m 268 1097 l 436 1018 l 601 1097 l 604 1092 l 436 947 l 264 1092 l 268 1097 z "},"Ŏ":{"ha":1057,"x_min":51,"x_max":997,"o":"m 531 931 q 725 892 639 931 q 872 790 811 854 q 965 640 932 725 q 997 461 997 554 q 959 269 997 357 q 854 119 921 182 q 699 22 788 57 q 511 -14 611 -14 q 319 25 404 -14 q 174 128 233 64 q 83 275 115 192 q 51 449 51 358 q 83 624 51 538 q 177 779 115 711 q 328 889 239 847 q 531 931 417 931 m 529 35 q 692 77 622 39 q 810 174 763 115 q 880 304 857 233 q 903 444 903 375 q 875 599 903 521 q 796 740 847 676 q 673 842 744 803 q 513 882 601 882 q 358 844 426 882 q 242 746 290 806 q 169 613 194 686 q 144 468 144 539 q 174 315 144 392 q 254 175 203 238 q 376 74 306 113 q 529 35 446 35 m 683 1104 q 672 1056 683 1082 q 641 1009 661 1031 q 592 974 621 988 q 529 960 564 960 q 467 973 496 960 q 418 1007 439 986 q 385 1053 397 1028 q 372 1104 372 1079 l 381 1104 q 390 1081 382 1096 q 414 1051 397 1067 q 458 1025 431 1036 q 528 1014 486 1014 q 598 1025 571 1014 q 642 1051 625 1036 q 665 1081 658 1067 q 675 1104 672 1096 l 683 1104 z "},"Ő":{"ha":1057,"x_min":51,"x_max":997,"o":"m 531 931 q 725 892 639 931 q 872 790 811 854 q 965 640 932 725 q 997 461 997 554 q 959 269 997 357 q 854 119 921 182 q 699 22 788 57 q 511 -14 611 -14 q 319 25 404 -14 q 174 128 233 64 q 83 275 115 192 q 51 449 51 358 q 83 624 51 538 q 177 779 115 711 q 328 889 239 847 q 531 931 417 931 m 529 35 q 692 77 622 39 q 810 174 763 115 q 880 304 857 233 q 903 444 903 375 q 875 599 903 521 q 796 740 847 676 q 673 842 744 803 q 513 882 601 882 q 358 844 426 882 q 242 746 290 806 q 169 613 194 686 q 144 468 144 539 q 174 315 144 392 q 254 175 203 238 q 376 74 306 113 q 529 35 446 35 m 358 964 l 474 1189 l 544 1144 l 374 953 l 358 964 m 486 965 l 635 1169 l 697 1115 l 501 951 l 486 965 z "},"Ō":{"ha":1057,"x_min":51,"x_max":997,"o":"m 531 931 q 725 892 639 931 q 872 790 811 854 q 965 640 932 725 q 997 461 997 554 q 959 269 997 357 q 854 119 921 182 q 699 22 788 57 q 511 -14 611 -14 q 319 25 404 -14 q 174 128 233 64 q 83 275 115 192 q 51 449 51 358 q 83 624 51 538 q 177 779 115 711 q 328 889 239 847 q 531 931 417 931 m 529 35 q 692 77 622 39 q 810 174 763 115 q 880 304 857 233 q 903 444 903 375 q 875 599 903 521 q 796 740 847 676 q 673 842 744 803 q 513 882 601 882 q 358 844 426 882 q 242 746 290 806 q 169 613 194 686 q 144 468 144 539 q 174 315 144 392 q 254 175 203 238 q 376 74 306 113 q 529 35 446 35 m 389 1046 l 667 1046 l 667 990 l 389 990 l 389 1046 z "},"Ǿ":{"ha":1057,"x_min":51,"x_max":997,"o":"m 531 931 q 725 892 639 931 q 872 790 811 854 q 965 640 932 725 q 997 461 997 554 q 959 269 997 357 q 854 119 921 182 q 699 22 788 57 q 511 -14 611 -14 q 319 25 404 -14 q 174 128 233 64 q 83 275 115 192 q 51 449 51 358 q 83 624 51 538 q 177 779 115 711 q 328 889 239 847 q 531 931 417 931 m 529 35 q 692 77 622 39 q 810 174 763 115 q 880 304 857 233 q 903 444 903 375 q 875 599 903 521 q 796 740 847 676 q 673 842 744 803 q 513 882 601 882 q 358 844 426 882 q 242 746 290 806 q 169 613 194 686 q 144 468 144 539 q 174 315 144 392 q 254 175 203 238 q 376 74 306 113 q 529 35 446 35 m 357 -85 l 306 -68 l 697 992 l 749 978 l 357 -85 m 411 956 l 608 1104 l 644 1042 l 415 947 l 411 956 z "},"Ŕ":{"ha":750,"x_min":63,"x_max":729,"o":"m 251 14 l 258 14 l 258 0 l 63 0 l 63 14 l 69 14 q 88 22 79 14 q 102 42 96 31 q 111 66 108 53 q 114 90 114 79 l 114 831 q 111 853 114 840 q 102 876 108 865 q 88 895 96 888 q 69 903 79 903 l 63 903 l 63 917 l 304 917 q 519 863 443 917 q 594 703 594 808 q 577 610 594 650 q 531 542 560 571 q 462 497 501 514 q 378 471 422 479 l 478 318 q 551 209 514 263 q 625 99 589 156 q 647 69 635 85 q 672 42 658 54 q 699 22 685 29 q 729 14 714 14 l 729 0 l 669 0 q 578 27 614 0 q 519 90 543 54 q 395 276 457 182 q 272 463 333 371 q 240 466 257 464 q 207 471 222 468 l 207 90 q 210 66 207 79 q 219 42 213 53 q 233 22 225 31 q 251 14 240 14 m 207 869 l 207 517 l 214 517 q 249 515 225 515 q 310 514 274 514 q 372 523 339 514 q 433 553 404 532 q 480 610 461 575 q 499 697 499 644 q 478 783 499 750 q 423 836 458 817 q 338 863 388 856 q 228 869 288 869 l 207 869 m 257 956 l 454 1104 l 490 1042 l 261 947 l 257 956 z "},"Ř":{"ha":750,"x_min":63,"x_max":729,"o":"m 251 14 l 258 14 l 258 0 l 63 0 l 63 14 l 69 14 q 88 22 79 14 q 102 42 96 31 q 111 66 108 53 q 114 90 114 79 l 114 831 q 111 853 114 840 q 102 876 108 865 q 88 895 96 888 q 69 903 79 903 l 63 903 l 63 917 l 304 917 q 519 863 443 917 q 594 703 594 808 q 577 610 594 650 q 531 542 560 571 q 462 497 501 514 q 378 471 422 479 l 478 318 q 551 209 514 263 q 625 99 589 156 q 647 69 635 85 q 672 42 658 54 q 699 22 685 29 q 729 14 714 14 l 729 0 l 669 0 q 578 27 614 0 q 519 90 543 54 q 395 276 457 182 q 272 463 333 371 q 240 466 257 464 q 207 471 222 468 l 207 90 q 210 66 207 79 q 219 42 213 53 q 233 22 225 31 q 251 14 240 14 m 207 869 l 207 517 l 214 517 q 249 515 225 515 q 310 514 274 514 q 372 523 339 514 q 433 553 404 532 q 480 610 461 575 q 499 697 499 644 q 478 783 499 750 q 423 836 458 817 q 338 863 388 856 q 228 869 288 869 l 207 869 m 207 1097 l 375 1018 l 540 1097 l 543 1092 l 375 947 l 203 1092 l 207 1097 z "},"Ś":{"ha":681,"x_min":50,"x_max":625,"o":"m 625 246 q 597 127 625 176 q 526 47 569 78 q 427 3 482 17 q 318 -11 372 -11 q 222 0 263 -11 q 149 21 182 11 q 108 33 126 28 q 72 38 90 38 l 72 196 l 86 196 q 113 112 86 143 q 176 64 140 81 q 249 42 213 47 q 301 38 285 38 q 404 55 361 38 q 475 101 447 72 q 516 164 503 129 q 529 235 529 199 q 510 312 529 281 q 459 367 490 343 q 388 407 428 390 q 306 440 347 424 q 213 478 258 458 q 131 526 167 497 q 72 594 94 554 q 50 692 50 633 q 74 798 50 753 q 137 872 97 843 q 227 916 176 901 q 331 931 278 931 q 399 926 367 931 q 460 914 431 921 q 506 905 483 908 q 549 901 528 901 l 549 758 l 535 758 q 478 856 532 831 q 328 882 424 882 q 237 863 272 882 q 181 817 201 844 q 152 759 160 790 q 144 704 144 728 q 162 638 144 665 q 208 589 179 610 q 276 551 238 568 q 356 519 314 535 q 451 481 403 501 q 538 429 500 460 q 601 354 576 399 q 625 246 625 310 m 222 956 l 419 1104 l 456 1042 l 226 947 l 222 956 z "},"Ş":{"ha":681,"x_min":50,"x_max":625,"o":"m 328 -69 q 417 -99 389 -76 q 444 -151 444 -122 q 404 -218 444 -187 q 289 -249 364 -249 q 272 -248 281 -249 q 256 -246 264 -247 q 243 -245 249 -246 q 233 -244 238 -244 l 233 -233 l 249 -233 q 299 -227 275 -233 q 340 -210 322 -221 q 367 -187 357 -200 q 378 -158 378 -174 q 350 -113 378 -135 q 271 -85 322 -92 l 315 -11 q 226 -2 264 -11 q 156 18 188 7 q 109 33 128 28 q 72 38 90 38 l 72 196 l 86 196 q 113 112 86 143 q 176 64 140 81 q 249 42 213 47 q 301 38 285 38 q 404 55 361 38 q 475 101 447 72 q 516 164 503 129 q 529 235 529 199 q 510 312 529 281 q 459 367 490 343 q 388 407 428 390 q 306 440 347 424 q 213 478 258 458 q 131 526 167 497 q 72 594 94 554 q 50 692 50 633 q 74 798 50 753 q 137 872 97 843 q 227 916 176 901 q 331 931 278 931 q 399 926 367 931 q 460 914 431 921 q 506 905 483 908 q 549 901 528 901 l 549 758 l 535 758 q 478 856 532 831 q 328 882 424 882 q 237 863 272 882 q 181 817 201 844 q 152 759 160 790 q 144 704 144 728 q 162 638 144 665 q 208 589 179 610 q 276 551 238 568 q 356 519 314 535 q 451 481 403 501 q 538 429 500 460 q 601 354 576 399 q 625 246 625 310 q 602 138 625 183 q 542 60 579 92 q 458 13 506 29 q 363 -8 411 -4 l 328 -69 z "},"Ŝ":{"ha":681,"x_min":50,"x_max":625,"o":"m 625 246 q 597 127 625 176 q 526 47 569 78 q 427 3 482 17 q 318 -11 372 -11 q 222 0 263 -11 q 149 21 182 11 q 108 33 126 28 q 72 38 90 38 l 72 196 l 86 196 q 113 112 86 143 q 176 64 140 81 q 249 42 213 47 q 301 38 285 38 q 404 55 361 38 q 475 101 447 72 q 516 164 503 129 q 529 235 529 199 q 510 312 529 281 q 459 367 490 343 q 388 407 428 390 q 306 440 347 424 q 213 478 258 458 q 131 526 167 497 q 72 594 94 554 q 50 692 50 633 q 74 798 50 753 q 137 872 97 843 q 227 916 176 901 q 331 931 278 931 q 399 926 367 931 q 460 914 431 921 q 506 905 483 908 q 549 901 528 901 l 549 758 l 535 758 q 478 856 532 831 q 328 882 424 882 q 237 863 272 882 q 181 817 201 844 q 152 759 160 790 q 144 704 144 728 q 162 638 144 665 q 208 589 179 610 q 276 551 238 568 q 356 519 314 535 q 451 481 403 501 q 538 429 500 460 q 601 354 576 399 q 625 246 625 310 m 507 951 l 339 1033 l 172 951 l 169 958 l 339 1101 l 508 958 l 507 951 z "},"Ŧ":{"ha":650,"x_min":13,"x_max":636,"o":"m 414 14 l 421 14 l 421 0 l 224 0 l 224 14 l 231 14 q 250 22 242 14 q 265 42 258 31 q 274 66 271 53 q 276 90 276 79 l 276 596 l 118 596 l 118 647 l 276 647 l 276 865 l 115 865 q 76 856 93 865 q 49 831 60 846 q 32 799 38 817 q 26 765 26 782 l 13 765 l 13 917 l 636 917 l 636 765 l 622 765 q 617 799 622 782 q 600 831 611 817 q 572 856 589 846 q 533 865 556 865 l 369 865 l 369 647 l 539 647 l 539 596 l 369 596 l 369 90 q 372 66 369 79 q 381 42 375 53 q 395 22 388 31 q 414 14 403 14 z "},"Ť":{"ha":650,"x_min":13,"x_max":636,"o":"m 414 14 l 421 14 l 421 0 l 224 0 l 224 14 l 231 14 q 250 22 242 14 q 265 42 258 31 q 274 66 271 53 q 276 90 276 79 l 276 865 l 115 865 q 76 856 93 865 q 49 831 60 846 q 32 799 38 817 q 26 765 26 782 l 13 765 l 13 917 l 636 917 l 636 765 l 622 765 q 617 799 622 782 q 600 831 611 817 q 572 856 589 846 q 533 865 556 865 l 369 865 l 369 90 q 372 66 369 79 q 381 42 375 53 q 395 22 388 31 q 414 14 403 14 m 160 1097 l 328 1018 l 493 1097 l 496 1092 l 328 947 l 156 1092 l 160 1097 z "},"Ŭ":{"ha":811,"x_min":63,"x_max":742,"o":"m 63 917 l 260 917 l 260 903 l 253 903 q 233 895 242 903 q 219 876 225 888 q 210 853 213 865 q 207 831 207 840 l 207 282 q 218 182 207 228 q 256 103 229 136 q 325 51 282 69 q 431 32 368 32 q 542 54 500 32 q 606 112 583 76 q 635 192 628 147 q 642 279 642 236 l 642 831 q 639 853 642 840 q 630 876 636 865 q 615 895 624 888 q 597 903 607 903 l 590 903 l 590 917 l 742 917 l 742 903 l 735 903 q 716 895 724 903 q 702 876 708 888 q 693 853 696 865 q 690 831 690 840 l 690 283 q 668 135 690 193 q 607 44 646 78 q 516 -1 568 11 q 406 -14 464 -14 q 290 -1 343 -14 q 197 46 236 13 q 136 137 158 79 q 114 282 114 194 l 114 831 q 111 853 114 840 q 102 876 108 865 q 88 895 96 888 q 69 903 79 903 l 63 903 l 63 917 m 560 1104 q 549 1056 560 1082 q 517 1009 538 1031 q 469 974 497 988 q 406 960 440 960 q 344 973 372 960 q 294 1007 315 986 q 261 1053 274 1028 q 249 1104 249 1079 l 257 1104 q 266 1081 258 1096 q 290 1051 274 1067 q 335 1025 307 1036 q 404 1014 363 1014 q 474 1025 447 1014 q 518 1051 501 1036 q 542 1081 535 1067 q 551 1104 549 1096 l 560 1104 z "},"Ű":{"ha":811,"x_min":63,"x_max":742,"o":"m 63 917 l 260 917 l 260 903 l 253 903 q 233 895 242 903 q 219 876 225 888 q 210 853 213 865 q 207 831 207 840 l 207 282 q 218 182 207 228 q 256 103 229 136 q 325 51 282 69 q 431 32 368 32 q 542 54 500 32 q 606 112 583 76 q 635 192 628 147 q 642 279 642 236 l 642 831 q 639 853 642 840 q 630 876 636 865 q 615 895 624 888 q 597 903 607 903 l 590 903 l 590 917 l 742 917 l 742 903 l 735 903 q 716 895 724 903 q 702 876 708 888 q 693 853 696 865 q 690 831 690 840 l 690 283 q 668 135 690 193 q 607 44 646 78 q 516 -1 568 11 q 406 -14 464 -14 q 290 -1 343 -14 q 197 46 236 13 q 136 137 158 79 q 114 282 114 194 l 114 831 q 111 853 114 840 q 102 876 108 865 q 88 895 96 888 q 69 903 79 903 l 63 903 l 63 917 m 236 964 l 351 1189 l 422 1144 l 251 953 l 236 964 m 364 965 l 513 1169 l 575 1115 l 379 951 l 364 965 z "},"Ū":{"ha":811,"x_min":63,"x_max":742,"o":"m 63 917 l 260 917 l 260 903 l 253 903 q 233 895 242 903 q 219 876 225 888 q 210 853 213 865 q 207 831 207 840 l 207 282 q 218 182 207 228 q 256 103 229 136 q 325 51 282 69 q 431 32 368 32 q 542 54 500 32 q 606 112 583 76 q 635 192 628 147 q 642 279 642 236 l 642 831 q 639 853 642 840 q 630 876 636 865 q 615 895 624 888 q 597 903 607 903 l 590 903 l 590 917 l 742 917 l 742 903 l 735 903 q 716 895 724 903 q 702 876 708 888 q 693 853 696 865 q 690 831 690 840 l 690 283 q 668 135 690 193 q 607 44 646 78 q 516 -1 568 11 q 406 -14 464 -14 q 290 -1 343 -14 q 197 46 236 13 q 136 137 158 79 q 114 282 114 194 l 114 831 q 111 853 114 840 q 102 876 108 865 q 88 895 96 888 q 69 903 79 903 l 63 903 l 63 917 m 265 1046 l 543 1046 l 543 990 l 265 990 l 265 1046 z "},"Ų":{"ha":811,"x_min":63,"x_max":742,"o":"m 63 917 l 260 917 l 260 903 l 253 903 q 233 895 242 903 q 219 876 225 888 q 210 853 213 865 q 207 831 207 840 l 207 282 q 218 182 207 228 q 256 103 229 136 q 325 51 282 69 q 431 32 368 32 q 542 54 500 32 q 606 112 583 76 q 635 191 628 147 q 642 279 642 235 l 642 831 q 639 853 642 840 q 630 876 636 865 q 615 895 624 888 q 597 903 607 903 l 590 903 l 590 917 l 742 917 l 742 903 l 735 903 q 716 895 724 903 q 702 876 708 888 q 693 853 696 865 q 690 831 690 840 l 690 283 q 669 140 690 197 q 612 50 649 83 q 526 2 575 17 q 424 -14 478 -12 q 392 -58 404 -33 q 379 -106 379 -82 q 399 -153 379 -132 q 471 -174 418 -174 q 528 -164 504 -174 l 531 -171 q 486 -187 513 -182 q 431 -193 460 -193 q 340 -170 368 -193 q 313 -115 313 -147 q 330 -60 313 -87 q 375 -12 347 -33 q 270 6 318 -10 q 188 54 222 21 q 133 143 153 88 q 114 282 114 199 l 114 831 q 111 853 114 840 q 102 876 108 865 q 88 895 96 888 q 69 903 79 903 l 63 903 l 63 917 z "},"Ů":{"ha":811,"x_min":63,"x_max":742,"o":"m 63 917 l 260 917 l 260 903 l 253 903 q 233 895 242 903 q 219 876 225 888 q 210 853 213 865 q 207 831 207 840 l 207 282 q 218 182 207 228 q 256 103 229 136 q 325 51 282 69 q 431 32 368 32 q 542 54 500 32 q 606 112 583 76 q 635 192 628 147 q 642 279 642 236 l 642 831 q 639 853 642 840 q 630 876 636 865 q 615 895 624 888 q 597 903 607 903 l 590 903 l 590 917 l 742 917 l 742 903 l 735 903 q 716 895 724 903 q 702 876 708 888 q 693 853 696 865 q 690 831 690 840 l 690 283 q 668 135 690 193 q 607 44 646 78 q 516 -1 568 11 q 406 -14 464 -14 q 290 -1 343 -14 q 197 46 236 13 q 136 137 158 79 q 114 282 114 194 l 114 831 q 111 853 114 840 q 102 876 108 865 q 88 895 96 888 q 69 903 79 903 l 63 903 l 63 917 m 304 1040 q 333 1100 304 1076 q 404 1124 361 1124 q 476 1100 447 1124 q 506 1040 506 1076 q 476 981 506 1004 q 404 958 447 958 q 333 981 361 958 q 304 1040 304 1004 m 343 1049 q 364 999 343 1019 q 414 979 385 979 q 453 995 438 979 q 468 1036 468 1011 q 446 1082 468 1061 q 396 1103 424 1103 q 358 1087 374 1103 q 343 1049 343 1071 z "},"Ũ":{"ha":811,"x_min":63,"x_max":742,"o":"m 63 917 l 260 917 l 260 903 l 253 903 q 233 895 242 903 q 219 876 225 888 q 210 853 213 865 q 207 831 207 840 l 207 282 q 218 182 207 228 q 256 103 229 136 q 325 51 282 69 q 431 32 368 32 q 542 54 500 32 q 606 112 583 76 q 635 192 628 147 q 642 279 642 236 l 642 831 q 639 853 642 840 q 630 876 636 865 q 615 895 624 888 q 597 903 607 903 l 590 903 l 590 917 l 742 917 l 742 903 l 735 903 q 716 895 724 903 q 702 876 708 888 q 693 853 696 865 q 690 831 690 840 l 690 283 q 668 135 690 193 q 607 44 646 78 q 516 -1 568 11 q 406 -14 464 -14 q 290 -1 343 -14 q 197 46 236 13 q 136 137 158 79 q 114 282 114 194 l 114 831 q 111 853 114 840 q 102 876 108 865 q 88 895 96 888 q 69 903 79 903 l 63 903 l 63 917 m 563 1065 q 530 983 546 1003 q 485 964 514 964 q 447 972 468 964 q 404 991 426 981 q 360 1010 382 1001 q 321 1019 339 1019 q 285 1004 300 1019 q 253 964 271 989 l 246 965 q 291 1048 265 1024 q 344 1072 317 1072 q 381 1064 361 1072 q 419 1045 400 1056 q 457 1026 438 1035 q 493 1018 476 1018 q 531 1033 515 1018 q 557 1067 546 1047 l 563 1065 z "},"Ẃ":{"ha":1119,"x_min":21,"x_max":1099,"o":"m 1099 903 q 1051 879 1071 903 q 1025 828 1032 856 l 772 -6 l 556 678 l 339 -7 l 85 826 q 60 878 78 853 q 21 903 43 903 l 21 917 l 218 917 l 218 903 q 188 888 200 903 q 176 851 176 874 q 179 833 176 844 l 360 244 l 581 925 l 793 246 l 976 833 q 978 845 976 836 q 981 860 981 854 q 969 891 981 879 q 947 903 958 903 l 947 917 l 1099 917 l 1099 903 m 442 956 l 639 1104 l 675 1042 l 446 947 l 442 956 z "},"Ŵ":{"ha":1119,"x_min":21,"x_max":1099,"o":"m 1099 903 q 1051 879 1071 903 q 1025 828 1032 856 l 772 -6 l 556 678 l 339 -7 l 85 826 q 60 878 78 853 q 21 903 43 903 l 21 917 l 218 917 l 218 903 q 188 888 200 903 q 176 851 176 874 q 179 833 176 844 l 360 244 l 581 925 l 793 246 l 976 833 q 978 845 976 836 q 981 860 981 854 q 969 891 981 879 q 947 903 958 903 l 947 917 l 1099 917 l 1099 903 m 726 951 l 558 1033 l 392 951 l 389 958 l 558 1101 l 728 958 l 726 951 z "},"Ẅ":{"ha":1119,"x_min":21,"x_max":1099,"o":"m 1099 903 q 1051 879 1071 903 q 1025 828 1032 856 l 772 -6 l 556 678 l 339 -7 l 85 826 q 60 878 78 853 q 21 903 43 903 l 21 917 l 218 917 l 218 903 q 188 888 200 903 q 176 851 176 874 q 179 833 176 844 l 360 244 l 581 925 l 793 246 l 976 833 q 978 845 976 836 q 981 860 981 854 q 969 891 981 879 q 947 903 958 903 l 947 917 l 1099 917 l 1099 903 m 683 997 q 671 965 683 978 q 642 953 658 953 q 609 965 622 953 q 596 997 596 978 q 609 1029 596 1017 q 642 1042 622 1042 q 671 1029 658 1042 q 683 997 683 1017 m 524 997 q 511 965 524 978 q 479 953 499 953 q 447 965 460 953 q 435 997 435 978 q 447 1029 435 1017 q 479 1042 460 1042 q 511 1029 499 1042 q 524 997 524 1017 z "},"Ẁ":{"ha":1119,"x_min":21,"x_max":1099,"o":"m 1099 903 q 1051 879 1071 903 q 1025 828 1032 856 l 772 -6 l 556 678 l 339 -7 l 85 826 q 60 878 78 853 q 21 903 43 903 l 21 917 l 218 917 l 218 903 q 188 888 200 903 q 176 851 176 874 q 179 833 176 844 l 360 244 l 581 925 l 793 246 l 976 833 q 978 845 976 836 q 981 860 981 854 q 969 891 981 879 q 947 903 958 903 l 947 917 l 1099 917 l 1099 903 m 672 947 l 442 1042 l 478 1104 l 675 956 l 672 947 z "},"Ŷ":{"ha":735,"x_min":4,"x_max":708,"o":"m 4 917 l 196 917 l 196 903 q 178 894 186 901 q 169 874 169 888 q 174 858 169 867 l 382 493 l 582 839 q 590 856 588 850 q 592 869 592 861 q 576 897 589 892 q 560 903 563 903 l 560 917 l 708 917 l 708 903 q 666 877 688 903 q 629 825 644 851 l 413 450 l 413 90 q 416 67 413 79 q 425 42 419 54 q 439 22 431 31 q 458 14 447 14 l 465 14 l 465 0 l 267 0 l 267 14 l 274 14 q 293 22 285 14 q 308 41 301 29 q 317 66 314 53 q 319 90 319 79 l 319 438 l 96 821 q 79 846 89 832 q 58 872 69 860 q 35 894 47 885 q 11 903 22 903 l 4 903 l 4 917 m 535 951 l 367 1033 l 200 951 l 197 958 l 367 1101 l 536 958 l 535 951 z "},"Ỳ":{"ha":735,"x_min":4,"x_max":708,"o":"m 4 917 l 196 917 l 196 903 q 178 894 186 901 q 169 874 169 888 q 174 858 169 867 l 382 493 l 582 839 q 590 856 588 850 q 592 869 592 861 q 576 897 589 892 q 560 903 563 903 l 560 917 l 708 917 l 708 903 q 666 877 688 903 q 629 825 644 851 l 413 450 l 413 90 q 416 67 413 79 q 425 42 419 54 q 439 22 431 31 q 458 14 447 14 l 465 14 l 465 0 l 267 0 l 267 14 l 274 14 q 293 22 285 14 q 308 41 301 29 q 317 66 314 53 q 319 90 319 79 l 319 438 l 96 821 q 79 846 89 832 q 58 872 69 860 q 35 894 47 885 q 11 903 22 903 l 4 903 l 4 917 m 481 947 l 250 1042 l 286 1104 l 483 956 l 481 947 z "},"Ź":{"ha":653,"x_min":24,"x_max":619,"o":"m 24 0 l 485 868 l 163 868 q 124 858 140 868 q 96 831 107 847 q 79 797 85 815 q 74 761 74 778 l 60 761 l 60 917 l 619 917 l 158 49 l 515 49 q 554 59 538 49 q 582 86 571 69 q 599 122 593 103 q 604 157 604 140 l 618 157 l 618 0 l 24 0 m 208 956 l 406 1104 l 442 1042 l 213 947 l 208 956 z "},"Ż":{"ha":653,"x_min":24,"x_max":619,"o":"m 24 0 l 485 868 l 163 868 q 124 858 140 868 q 96 831 107 847 q 79 797 85 815 q 74 761 74 778 l 60 761 l 60 917 l 619 917 l 158 49 l 515 49 q 554 59 538 49 q 582 86 571 69 q 599 122 593 103 q 604 157 604 140 l 618 157 l 618 0 l 24 0 m 272 1029 q 287 1067 272 1053 q 325 1082 301 1082 q 364 1067 349 1082 q 379 1029 379 1053 q 364 991 379 1006 q 325 976 349 976 q 287 991 301 976 q 272 1029 272 1006 z "},"ă":{"ha":635,"x_min":50,"x_max":564,"o":"m 429 0 l 429 71 l 422 64 q 342 10 388 29 q 233 -10 297 -10 q 150 1 185 -10 q 93 33 115 13 q 60 79 71 53 q 50 135 50 106 q 76 218 50 182 q 150 282 101 254 q 269 333 199 310 q 429 378 339 356 q 407 465 426 432 q 361 517 388 499 q 306 542 335 536 q 256 549 276 549 q 192 538 219 549 q 145 509 165 526 q 111 472 125 492 q 89 433 97 451 l 76 433 l 76 535 q 97 542 88 536 q 121 553 107 547 q 178 577 142 561 q 279 593 214 593 q 403 574 356 593 q 476 522 450 554 q 510 449 501 490 q 518 365 518 408 l 518 90 q 531 38 518 63 q 564 14 543 14 l 564 0 l 429 0 m 429 132 l 429 331 l 415 328 q 334 306 382 319 q 243 269 286 292 q 169 217 200 247 q 139 146 139 186 q 175 72 139 101 q 269 43 211 43 q 350 63 315 43 q 414 115 385 83 l 429 132 m 472 771 q 461 723 472 749 q 430 676 450 697 q 381 640 410 654 q 318 626 353 626 q 256 640 285 626 q 207 674 228 653 q 174 720 186 694 q 161 771 161 746 l 169 771 q 178 748 171 763 q 203 718 186 733 q 247 692 219 703 q 317 681 275 681 q 387 692 360 681 q 431 718 414 703 q 454 748 447 733 q 464 771 461 763 l 472 771 z "},"́":{"ha":308,"x_min":33,"x_max":267,"o":"m 33 622 l 231 771 l 267 708 l 38 614 l 33 622 z "},"ǽ":{"ha":1054,"x_min":63,"x_max":996,"o":"m 758 39 q 823 48 789 39 q 886 74 857 57 q 938 115 915 90 q 969 169 961 139 l 983 169 l 983 65 q 963 60 974 65 q 939 46 953 54 q 864 10 911 29 q 739 -8 817 -8 q 592 23 658 -8 q 485 118 525 54 q 459 92 474 107 q 433 65 444 76 q 355 11 400 31 q 244 -8 310 -8 q 161 3 196 -8 q 105 34 126 14 q 73 81 83 54 q 63 136 63 107 q 88 219 63 183 q 161 283 113 256 q 280 334 210 311 q 440 379 350 357 q 418 467 438 433 q 372 519 399 500 q 317 544 346 538 q 267 550 289 550 q 203 539 231 550 q 157 510 176 528 q 124 473 138 493 q 101 435 110 453 l 89 435 l 89 536 q 110 542 100 538 q 132 554 121 547 q 185 580 147 565 q 290 594 224 594 q 433 566 383 594 q 506 493 482 538 q 599 565 542 536 q 735 594 656 594 q 854 571 804 594 q 935 506 904 547 q 981 407 967 464 q 996 282 996 350 l 529 282 l 529 269 q 551 182 535 224 q 597 108 568 140 q 665 58 625 76 q 758 39 704 39 m 729 549 q 648 531 683 549 q 588 484 613 513 q 549 419 564 456 q 529 344 535 382 l 529 332 l 910 332 q 898 411 908 372 q 865 481 888 450 q 810 530 843 511 q 729 549 776 549 m 467 154 q 440 300 440 219 q 440 317 440 308 q 442 335 440 326 l 426 329 q 346 307 393 321 q 255 271 299 293 q 181 218 211 249 q 150 146 150 188 q 186 73 150 101 q 281 44 222 44 q 361 65 328 44 q 425 114 394 86 l 467 154 m 425 653 l 622 801 l 658 739 l 429 644 l 425 653 z "},"ā":{"ha":635,"x_min":50,"x_max":564,"o":"m 429 0 l 429 71 l 422 64 q 342 10 388 29 q 233 -10 297 -10 q 150 1 185 -10 q 93 33 115 13 q 60 79 71 53 q 50 135 50 106 q 76 218 50 182 q 150 282 101 254 q 269 333 199 310 q 429 378 339 356 q 407 465 426 432 q 361 517 388 499 q 306 542 335 536 q 256 549 276 549 q 192 538 219 549 q 145 509 165 526 q 111 472 125 492 q 89 433 97 451 l 76 433 l 76 535 q 97 542 88 536 q 121 553 107 547 q 178 577 142 561 q 279 593 214 593 q 403 574 356 593 q 476 522 450 554 q 510 449 501 490 q 518 365 518 408 l 518 90 q 531 38 518 63 q 564 14 543 14 l 564 0 l 429 0 m 429 132 l 429 331 l 415 328 q 334 306 382 319 q 243 269 286 292 q 169 217 200 247 q 139 146 139 186 q 175 72 139 101 q 269 43 211 43 q 350 63 315 43 q 414 115 385 83 l 429 132 m 178 713 l 456 713 l 456 657 l 178 657 l 178 713 z "},"ą":{"ha":635,"x_min":50,"x_max":578,"o":"m 518 -172 q 575 -162 550 -172 l 578 -169 q 533 -186 560 -181 q 478 -192 507 -192 q 387 -169 415 -192 q 358 -115 358 -146 q 383 -51 358 -82 q 439 0 407 -21 l 429 0 l 429 71 l 422 64 q 342 10 388 29 q 233 -10 297 -10 q 150 1 185 -10 q 93 33 115 13 q 60 79 71 53 q 50 135 50 106 q 76 218 50 182 q 150 282 101 254 q 269 333 199 310 q 429 378 339 356 q 407 465 426 432 q 361 517 388 499 q 306 542 335 536 q 256 549 276 549 q 192 538 219 549 q 145 509 165 526 q 111 472 125 492 q 89 433 97 451 l 76 433 l 76 535 q 98 541 88 536 q 121 553 108 546 q 178 579 143 565 q 279 593 214 593 q 403 574 356 593 q 476 522 450 554 q 510 449 501 490 q 518 365 518 408 l 518 90 q 531 38 518 63 q 564 14 543 14 l 564 0 l 485 0 q 443 -49 461 -21 q 425 -106 425 -78 q 445 -152 425 -132 q 518 -172 465 -172 m 429 132 l 429 331 l 415 328 q 334 306 382 319 q 243 269 286 292 q 169 217 200 247 q 139 146 139 186 q 175 72 139 101 q 269 43 211 43 q 350 63 315 43 q 414 115 385 83 l 429 132 z "},"˘":{"ha":390,"x_min":39,"x_max":350,"o":"m 350 771 q 339 723 350 749 q 308 676 328 697 q 259 640 288 654 q 196 626 231 626 q 134 640 163 626 q 85 674 106 653 q 51 720 64 694 q 39 771 39 746 l 47 771 q 56 748 49 763 q 81 718 64 733 q 125 692 97 703 q 194 681 153 681 q 265 692 238 681 q 308 718 292 703 q 332 748 325 733 q 342 771 339 763 l 350 771 z "},"ć":{"ha":606,"x_min":50,"x_max":575,"o":"m 575 50 q 554 45 564 50 q 532 33 544 40 q 472 5 508 19 q 378 -10 436 -10 q 247 13 307 -10 q 142 77 186 36 q 74 173 99 118 q 50 292 50 228 q 72 406 50 351 q 133 501 93 460 q 233 568 174 543 q 367 593 292 593 q 450 581 418 593 q 504 558 482 569 q 528 547 517 551 q 553 543 540 543 l 553 438 l 539 438 q 514 484 532 464 q 472 518 496 504 q 421 539 449 532 q 367 546 393 546 q 267 526 310 546 q 196 473 224 506 q 154 399 168 440 q 140 313 140 357 q 157 212 140 261 q 205 124 174 163 q 281 61 236 85 q 381 38 325 38 q 452 49 419 38 q 508 78 485 60 q 544 117 531 96 q 561 158 558 139 l 575 158 l 575 50 m 224 657 l 421 806 l 457 743 l 228 649 l 224 657 z "},"ˇ":{"ha":417,"x_min":17,"x_max":357,"o":"m 21 764 l 189 685 l 354 764 l 357 758 l 189 614 l 17 758 l 21 764 z "},"č":{"ha":606,"x_min":50,"x_max":575,"o":"m 575 50 q 554 45 564 50 q 532 33 544 40 q 472 5 508 19 q 378 -10 436 -10 q 247 13 307 -10 q 142 77 186 36 q 74 173 99 118 q 50 292 50 228 q 72 406 50 351 q 133 501 93 460 q 233 568 174 543 q 367 593 292 593 q 450 581 418 593 q 504 558 482 569 q 528 547 517 551 q 553 543 540 543 l 553 438 l 539 438 q 514 484 532 464 q 472 518 496 504 q 421 539 449 532 q 367 546 393 546 q 267 526 310 546 q 196 473 224 506 q 154 399 168 440 q 140 313 140 357 q 157 212 140 261 q 205 124 174 163 q 281 61 236 85 q 381 38 325 38 q 452 49 419 38 q 508 78 485 60 q 544 117 531 96 q 561 158 558 139 l 575 158 l 575 50 m 185 783 l 353 704 l 518 783 l 521 778 l 353 633 l 181 778 l 185 783 z "},"ĉ":{"ha":606,"x_min":50,"x_max":575,"o":"m 575 50 q 554 45 564 50 q 532 33 544 40 q 472 5 508 19 q 378 -10 436 -10 q 247 13 307 -10 q 142 77 186 36 q 74 173 99 118 q 50 292 50 228 q 72 406 50 351 q 133 501 93 460 q 233 568 174 543 q 367 593 292 593 q 450 581 418 593 q 504 558 482 569 q 528 547 517 551 q 553 543 540 543 l 553 438 l 539 438 q 514 484 532 464 q 472 518 496 504 q 421 539 449 532 q 367 546 393 546 q 267 526 310 546 q 196 473 224 506 q 154 399 168 440 q 140 313 140 357 q 157 212 140 261 q 205 124 174 163 q 281 61 236 85 q 381 38 325 38 q 452 49 419 38 q 508 78 485 60 q 544 117 531 96 q 561 158 558 139 l 575 158 l 575 50 m 513 644 l 344 726 l 178 644 l 175 651 l 344 794 l 514 651 l 513 644 z "},"ċ":{"ha":606,"x_min":50,"x_max":575,"o":"m 575 50 q 554 45 564 50 q 532 33 544 40 q 472 5 508 19 q 378 -10 436 -10 q 247 13 307 -10 q 142 77 186 36 q 74 173 99 118 q 50 292 50 228 q 72 406 50 351 q 133 501 93 460 q 233 568 174 543 q 367 593 292 593 q 450 581 418 593 q 504 558 482 569 q 528 547 517 551 q 553 543 540 543 l 553 438 l 539 438 q 514 484 532 464 q 472 518 496 504 q 421 539 449 532 q 367 546 393 546 q 267 526 310 546 q 196 473 224 506 q 154 399 168 440 q 140 313 140 357 q 157 212 140 261 q 205 124 174 163 q 281 61 236 85 q 381 38 325 38 q 452 49 419 38 q 508 78 485 60 q 544 117 531 96 q 561 158 558 139 l 575 158 l 575 50 m 308 714 q 323 752 308 738 q 361 767 338 767 q 400 752 385 767 q 415 714 415 738 q 400 676 415 690 q 361 661 385 661 q 323 676 338 661 q 308 714 308 690 z "},"ď":{"ha":800,"x_min":51,"x_max":800,"o":"m 504 0 l 504 61 q 441 13 481 35 q 342 -10 401 -10 q 213 16 268 -10 q 122 83 158 42 q 69 178 86 125 q 51 289 51 232 q 69 399 51 344 q 124 497 88 454 q 214 567 160 540 q 339 593 268 593 q 432 576 386 593 q 504 531 478 558 l 504 801 q 497 846 504 825 q 457 868 490 867 l 457 882 l 596 925 l 596 90 q 599 66 596 79 q 607 42 601 53 q 621 22 613 31 q 640 14 629 14 l 640 0 l 504 0 m 351 36 q 408 48 381 36 q 457 80 436 60 q 491 127 478 100 q 504 186 504 154 l 504 376 q 488 447 504 415 q 446 500 471 478 q 391 534 421 522 q 333 546 361 546 q 251 524 288 546 q 190 469 215 503 q 153 392 165 435 q 140 308 140 350 q 154 212 140 260 q 195 126 168 164 q 261 63 222 88 q 351 36 300 38 m 722 921 q 781 894 763 921 q 800 831 800 867 q 794 783 800 808 q 773 732 789 758 q 727 680 757 706 q 649 632 697 654 l 640 644 q 684 690 668 671 q 708 726 700 710 q 719 756 717 742 q 721 785 721 769 q 715 801 721 796 q 699 813 708 807 q 676 828 688 819 q 665 861 665 838 q 682 904 665 888 q 722 921 699 921 z "},"đ":{"ha":713,"x_min":51,"x_max":694,"o":"m 275 739 l 504 739 l 504 801 q 497 846 504 825 q 457 868 490 867 l 457 882 l 596 925 l 596 739 l 694 739 l 694 689 l 596 689 l 596 90 q 599 66 596 79 q 608 42 601 53 q 622 22 614 31 q 640 14 629 14 l 640 0 l 504 0 l 504 61 q 441 13 481 35 q 342 -10 401 -10 q 213 16 268 -10 q 122 83 158 42 q 69 178 86 125 q 51 289 51 232 q 69 399 51 344 q 124 497 88 454 q 214 567 160 540 q 339 593 268 593 q 432 576 386 593 q 504 531 478 558 l 504 689 l 275 689 l 275 739 m 351 36 q 408 48 381 36 q 457 80 436 60 q 491 127 478 100 q 504 186 504 154 l 504 376 q 488 447 504 415 q 446 500 471 478 q 391 534 421 522 q 333 546 361 546 q 251 524 288 546 q 190 469 215 503 q 153 392 165 435 q 140 308 140 350 q 154 212 140 260 q 195 126 168 164 q 261 63 222 88 q 351 36 300 38 z "},"˙":{"ha":183,"x_min":38,"x_max":144,"o":"m 38 696 q 52 734 38 719 q 90 749 67 749 q 129 734 114 749 q 144 696 144 719 q 129 658 144 672 q 90 643 114 643 q 52 658 67 643 q 38 696 38 672 z "},"ı":{"ha":349,"x_min":79,"x_max":263,"o":"m 82 0 l 82 14 q 101 22 93 14 q 115 42 110 31 q 124 66 121 53 q 126 90 126 79 l 126 475 q 119 520 126 499 q 79 543 113 542 l 79 556 l 218 600 l 218 90 q 221 66 218 79 q 229 42 224 53 q 243 22 235 31 q 263 14 251 14 l 263 0 l 82 0 z "},"ĕ":{"ha":674,"x_min":51,"x_max":621,"o":"m 139 281 q 163 188 144 232 q 210 111 181 144 q 283 58 240 78 q 383 38 326 38 q 448 47 414 38 q 511 72 482 56 q 563 113 540 89 q 594 168 586 138 l 607 168 l 607 64 q 588 58 599 64 q 564 44 578 53 q 489 9 536 28 q 364 -10 442 -10 q 245 8 301 -10 q 146 64 189 26 q 77 160 103 101 q 51 299 51 218 q 69 403 51 350 q 122 498 86 456 q 213 567 157 540 q 346 593 268 593 q 467 569 415 593 q 553 504 519 546 q 604 406 588 463 q 621 281 621 349 l 139 281 m 340 547 q 256 528 292 547 q 196 478 221 508 q 157 408 171 447 q 139 331 143 369 l 535 331 q 520 410 533 371 q 483 479 507 449 q 424 528 460 510 q 340 547 388 547 m 504 815 q 493 767 504 793 q 462 720 482 742 q 413 685 442 699 q 350 671 385 671 q 288 684 317 671 q 239 718 260 697 q 206 765 218 739 q 193 815 193 790 l 201 815 q 210 792 203 807 q 235 763 218 778 q 279 736 251 747 q 349 725 307 725 q 419 736 392 725 q 463 763 446 747 q 486 792 479 778 q 496 815 493 807 l 504 815 z "},"ě":{"ha":674,"x_min":51,"x_max":621,"o":"m 139 281 q 163 188 144 232 q 210 111 181 144 q 283 58 240 78 q 383 38 326 38 q 448 47 414 38 q 511 72 482 56 q 563 113 540 89 q 594 168 586 138 l 607 168 l 607 64 q 588 58 599 64 q 564 44 578 53 q 489 9 536 28 q 364 -10 442 -10 q 245 8 301 -10 q 146 64 189 26 q 77 160 103 101 q 51 299 51 218 q 69 403 51 350 q 122 498 86 456 q 213 567 157 540 q 346 593 268 593 q 467 569 415 593 q 553 504 519 546 q 604 406 588 463 q 621 281 621 349 l 139 281 m 340 547 q 256 528 292 547 q 196 478 221 508 q 157 408 171 447 q 139 331 143 369 l 535 331 q 520 410 533 371 q 483 479 507 449 q 424 528 460 510 q 340 547 388 547 m 186 810 l 354 731 l 519 810 l 522 804 l 354 660 l 182 804 l 186 810 z "},"ė":{"ha":674,"x_min":51,"x_max":621,"o":"m 139 281 q 163 188 144 232 q 210 111 181 144 q 283 58 240 78 q 383 38 326 38 q 448 47 414 38 q 511 72 482 56 q 563 113 540 89 q 594 168 586 138 l 607 168 l 607 64 q 588 58 599 64 q 564 44 578 53 q 489 9 536 28 q 364 -10 442 -10 q 245 8 301 -10 q 146 64 189 26 q 77 160 103 101 q 51 299 51 218 q 69 403 51 350 q 122 498 86 456 q 213 567 157 540 q 346 593 268 593 q 467 569 415 593 q 553 504 519 546 q 604 406 588 463 q 621 281 621 349 l 139 281 m 340 547 q 256 528 292 547 q 196 478 221 508 q 157 408 171 447 q 139 331 143 369 l 535 331 q 520 410 533 371 q 483 479 507 449 q 424 528 460 510 q 340 547 388 547 m 300 739 q 315 777 300 763 q 353 792 329 792 q 392 777 376 792 q 407 739 407 763 q 392 701 407 715 q 353 686 376 686 q 315 701 329 686 q 300 739 300 715 z "},"ē":{"ha":674,"x_min":51,"x_max":621,"o":"m 139 281 q 163 188 144 232 q 210 111 181 144 q 283 58 240 78 q 383 38 326 38 q 448 47 414 38 q 511 72 482 56 q 563 113 540 89 q 594 168 586 138 l 607 168 l 607 64 q 588 58 599 64 q 564 44 578 53 q 489 9 536 28 q 364 -10 442 -10 q 245 8 301 -10 q 146 64 189 26 q 77 160 103 101 q 51 299 51 218 q 69 403 51 350 q 122 498 86 456 q 213 567 157 540 q 346 593 268 593 q 467 569 415 593 q 553 504 519 546 q 604 406 588 463 q 621 281 621 349 l 139 281 m 340 547 q 256 528 292 547 q 196 478 221 508 q 157 408 171 447 q 139 331 143 369 l 535 331 q 520 410 533 371 q 483 479 507 449 q 424 528 460 510 q 340 547 388 547 m 197 713 l 475 713 l 475 657 l 197 657 l 197 713 z "},"ŋ":{"ha":739,"x_min":61,"x_max":621,"o":"m 621 4 q 610 -77 621 -39 q 581 -147 599 -115 q 539 -206 563 -179 q 492 -256 515 -233 q 364 -343 436 -307 l 357 -332 q 443 -250 406 -297 q 503 -151 475 -210 q 531 -17 531 -92 l 531 349 q 517 436 531 399 q 479 499 503 474 q 426 535 456 524 q 365 547 396 547 q 305 535 335 547 q 252 502 275 522 q 215 455 229 482 q 200 399 200 428 l 200 90 q 203 66 200 79 q 212 42 206 53 q 226 22 218 31 q 244 14 233 14 l 244 0 l 64 0 l 64 14 q 82 22 74 14 q 97 42 90 31 q 106 66 103 53 q 108 90 108 79 l 108 474 q 101 519 108 497 q 61 542 94 540 l 61 554 l 200 599 l 200 522 q 225 547 210 533 q 262 572 240 560 q 312 591 283 583 q 379 599 340 599 q 490 576 444 599 q 565 519 536 554 q 608 441 594 483 q 621 358 621 399 l 621 4 z "},"ę":{"ha":674,"x_min":51,"x_max":621,"o":"m 432 -172 q 489 -162 464 -172 l 492 -169 q 447 -186 474 -181 q 392 -192 421 -192 q 302 -169 331 -192 q 274 -115 274 -146 q 292 -58 274 -86 q 339 -8 311 -31 q 228 14 281 -6 q 137 71 176 33 q 74 165 97 108 q 51 299 51 221 q 69 403 51 350 q 122 498 86 456 q 213 567 157 540 q 346 593 268 593 q 467 569 415 593 q 553 504 519 546 q 604 406 588 463 q 621 281 621 349 l 139 281 q 163 188 144 232 q 210 111 181 144 q 283 58 240 78 q 383 38 326 38 q 448 47 414 38 q 511 72 482 56 q 563 113 540 89 q 594 168 586 138 l 607 168 l 607 64 q 586 58 596 64 q 561 44 576 53 q 494 12 535 29 q 388 -8 453 -6 q 353 -55 368 -28 q 339 -106 339 -82 q 359 -152 339 -132 q 432 -172 379 -172 m 340 547 q 256 528 292 547 q 196 478 221 508 q 157 408 171 447 q 139 331 143 369 l 535 331 q 520 410 533 371 q 483 479 507 449 q 424 528 460 510 q 340 547 388 547 z "},"⁄":{"ha":669,"x_min":7,"x_max":653,"o":"m 76 -14 l 7 -14 l 582 915 l 653 915 l 76 -14 z "},"₣":{"ha":639,"x_min":63,"x_max":597,"o":"m 63 317 l 115 317 l 115 829 q 113 851 115 839 q 103 875 110 864 q 89 894 97 886 q 69 901 81 901 l 69 915 l 597 915 l 597 786 l 583 786 q 562 842 583 818 q 494 867 540 867 l 210 867 l 210 515 l 440 515 q 494 535 472 515 q 515 581 515 554 l 529 581 l 529 408 l 515 408 q 494 450 515 432 q 440 468 474 468 l 210 468 l 210 317 l 529 317 l 529 263 l 210 263 l 210 88 q 213 64 210 76 q 222 40 215 51 q 236 22 228 29 q 256 14 244 14 l 256 0 l 69 0 l 69 14 q 89 22 81 14 q 103 40 97 29 q 113 64 110 51 q 115 88 115 76 l 115 263 l 63 263 l 63 317 z "},"ğ":{"ha":688,"x_min":51,"x_max":628,"o":"m 351 -258 q 431 -251 393 -258 q 497 -229 468 -243 q 542 -196 525 -215 q 558 -154 558 -176 q 535 -114 558 -131 q 474 -85 513 -97 q 383 -63 435 -72 q 276 -44 332 -54 l 206 -32 q 161 -85 174 -57 q 149 -133 149 -112 q 165 -185 149 -162 q 208 -225 181 -208 q 272 -250 235 -242 q 351 -258 308 -258 m 428 19 q 520 -3 483 11 q 579 -35 557 -17 q 610 -77 601 -54 q 618 -126 618 -100 q 592 -208 618 -174 q 526 -266 567 -243 q 433 -300 485 -289 q 326 -311 381 -311 q 225 -301 274 -311 q 139 -269 176 -290 q 79 -217 101 -249 q 57 -146 57 -186 q 79 -77 57 -110 q 151 -12 101 -44 q 77 55 103 13 q 51 142 51 97 q 64 194 51 168 q 104 242 76 219 q 71 297 81 269 q 61 357 61 325 q 82 450 61 407 q 139 525 103 493 q 224 575 175 557 q 328 593 272 593 q 439 573 386 593 q 528 521 492 553 l 628 521 l 628 471 l 564 471 q 583 422 574 450 q 593 363 593 393 q 572 278 593 318 q 515 209 551 239 q 428 162 478 179 q 324 144 379 144 q 224 160 272 144 q 138 204 175 175 q 117 180 122 194 q 111 150 111 165 q 151 81 111 106 q 254 47 192 57 l 428 19 m 311 544 q 249 533 278 544 q 197 500 219 521 q 162 449 175 479 q 149 382 149 419 q 167 300 149 336 q 215 240 186 264 q 280 204 244 217 q 347 192 315 192 q 410 205 382 192 q 460 241 439 218 q 492 294 481 264 q 503 358 503 325 q 486 435 503 400 q 442 494 469 469 q 381 531 415 518 q 311 544 346 544 m 483 829 q 472 781 483 807 q 441 734 461 756 q 392 699 421 713 q 329 685 364 685 q 267 698 296 685 q 218 732 239 711 q 185 778 197 753 q 172 829 172 804 l 181 829 q 190 806 182 821 q 214 776 197 792 q 258 750 231 761 q 328 739 286 739 q 398 750 371 739 q 442 776 425 761 q 465 806 458 792 q 475 829 472 821 l 483 829 z "},"ĝ":{"ha":688,"x_min":51,"x_max":628,"o":"m 351 -258 q 431 -251 393 -258 q 497 -229 468 -243 q 542 -196 525 -215 q 558 -154 558 -176 q 535 -114 558 -131 q 474 -85 513 -97 q 383 -63 435 -72 q 276 -44 332 -54 l 206 -32 q 161 -85 174 -57 q 149 -133 149 -112 q 165 -185 149 -162 q 208 -225 181 -208 q 272 -250 235 -242 q 351 -258 308 -258 m 428 19 q 520 -3 483 11 q 579 -35 557 -17 q 610 -77 601 -54 q 618 -126 618 -100 q 592 -208 618 -174 q 526 -266 567 -243 q 433 -300 485 -289 q 326 -311 381 -311 q 225 -301 274 -311 q 139 -269 176 -290 q 79 -217 101 -249 q 57 -146 57 -186 q 79 -77 57 -110 q 151 -12 101 -44 q 77 55 103 13 q 51 142 51 97 q 64 194 51 168 q 104 242 76 219 q 71 297 81 269 q 61 357 61 325 q 82 450 61 407 q 139 525 103 493 q 224 575 175 557 q 328 593 272 593 q 439 573 386 593 q 528 521 492 553 l 628 521 l 628 471 l 564 471 q 583 422 574 450 q 593 363 593 393 q 572 278 593 318 q 515 209 551 239 q 428 162 478 179 q 324 144 379 144 q 224 160 272 144 q 138 204 175 175 q 117 180 122 194 q 111 150 111 165 q 151 81 111 106 q 254 47 192 57 l 428 19 m 311 544 q 249 533 278 544 q 197 500 219 521 q 162 449 175 479 q 149 382 149 419 q 167 300 149 336 q 215 240 186 264 q 280 204 244 217 q 347 192 315 192 q 410 205 382 192 q 460 241 439 218 q 492 294 481 264 q 503 358 503 325 q 486 435 503 400 q 442 494 469 469 q 381 531 415 518 q 311 544 346 544 m 500 657 l 332 739 l 165 657 l 163 664 l 332 807 l 501 664 l 500 657 z "},"ġ":{"ha":688,"x_min":51,"x_max":628,"o":"m 351 -258 q 431 -251 393 -258 q 497 -229 468 -243 q 542 -196 525 -215 q 558 -154 558 -176 q 535 -114 558 -131 q 474 -85 513 -97 q 383 -63 435 -72 q 276 -44 332 -54 l 206 -32 q 161 -85 174 -57 q 149 -133 149 -112 q 165 -185 149 -162 q 208 -225 181 -208 q 272 -250 235 -242 q 351 -258 308 -258 m 428 19 q 520 -3 483 11 q 579 -35 557 -17 q 610 -77 601 -54 q 618 -126 618 -100 q 592 -208 618 -174 q 526 -266 567 -243 q 433 -300 485 -289 q 326 -311 381 -311 q 225 -301 274 -311 q 139 -269 176 -290 q 79 -217 101 -249 q 57 -146 57 -186 q 79 -77 57 -110 q 151 -12 101 -44 q 77 55 103 13 q 51 142 51 97 q 64 194 51 168 q 104 242 76 219 q 71 297 81 269 q 61 357 61 325 q 82 450 61 407 q 139 525 103 493 q 224 575 175 557 q 328 593 272 593 q 439 573 386 593 q 528 521 492 553 l 628 521 l 628 471 l 564 471 q 583 422 574 450 q 593 363 593 393 q 572 278 593 318 q 515 209 551 239 q 428 162 478 179 q 324 144 379 144 q 224 160 272 144 q 138 204 175 175 q 117 180 122 194 q 111 150 111 165 q 151 81 111 106 q 254 47 192 57 l 428 19 m 311 544 q 249 533 278 544 q 197 500 219 521 q 162 449 175 479 q 149 382 149 419 q 167 300 149 336 q 215 240 186 264 q 280 204 244 217 q 347 192 315 192 q 410 205 382 192 q 460 241 439 218 q 492 294 481 264 q 503 358 503 325 q 486 435 503 400 q 442 494 469 469 q 381 531 415 518 q 311 544 346 544 m 281 738 q 295 776 281 761 q 333 790 310 790 q 372 776 357 790 q 388 738 388 761 q 372 699 388 714 q 333 685 357 685 q 295 699 310 685 q 281 738 281 714 z "},"̀":{"ha":308,"x_min":33,"x_max":267,"o":"m 264 614 l 33 708 l 69 771 l 267 622 l 264 614 z "},"≥":{"ha":649,"x_min":49,"x_max":593,"o":"m 49 328 l 49 411 l 492 582 l 49 753 l 49 836 l 593 619 l 593 544 l 49 328 m 49 185 l 49 258 l 593 258 l 593 185 l 49 185 z "},"ħ":{"ha":739,"x_min":28,"x_max":665,"o":"m 28 739 l 108 739 l 108 800 q 101 844 108 824 q 61 867 94 865 l 61 881 l 200 924 l 200 739 l 447 739 l 447 689 l 200 689 l 200 522 q 225 547 210 533 q 262 572 240 560 q 312 591 283 583 q 379 599 340 599 q 490 576 444 599 q 565 519 536 554 q 608 441 594 483 q 621 358 621 399 l 621 90 q 624 66 621 79 q 633 42 626 53 q 647 22 639 31 q 665 14 654 14 l 665 0 l 486 0 l 486 14 q 504 22 496 14 q 519 42 513 31 q 528 66 525 53 q 531 90 531 79 l 531 349 q 517 436 531 399 q 479 499 503 474 q 426 535 456 524 q 365 547 396 547 q 305 535 335 547 q 252 503 275 524 q 215 452 229 482 q 200 386 200 422 l 200 90 q 203 66 200 79 q 212 42 206 53 q 226 22 218 31 q 244 14 233 14 l 244 0 l 64 0 l 64 14 q 82 22 74 14 q 97 42 90 31 q 106 66 103 53 q 108 90 108 79 l 108 689 l 28 689 l 28 739 z "},"ĥ":{"ha":739,"x_min":61,"x_max":665,"o":"m 621 90 q 624 66 621 79 q 633 42 626 53 q 647 22 639 31 q 665 14 654 14 l 665 0 l 486 0 l 486 14 q 504 22 496 14 q 519 42 513 31 q 528 66 525 53 q 531 90 531 79 l 531 349 q 517 436 531 399 q 479 499 503 474 q 426 535 456 524 q 365 547 396 547 q 305 535 335 547 q 252 503 275 524 q 215 452 229 482 q 200 386 200 422 l 200 90 q 203 66 200 79 q 212 42 206 53 q 226 22 218 31 q 244 14 233 14 l 244 0 l 64 0 l 64 14 q 82 22 74 14 q 97 42 90 31 q 106 66 103 53 q 108 90 108 79 l 108 800 q 101 844 108 824 q 61 867 94 865 l 61 881 l 200 924 l 200 522 q 225 547 210 533 q 262 572 240 560 q 312 591 283 583 q 379 599 340 599 q 490 576 444 599 q 565 519 536 554 q 608 441 594 483 q 621 358 621 399 l 621 90 m 589 676 l 421 758 l 254 676 l 251 683 l 421 826 l 590 683 l 589 676 z "},"˝":{"ha":386,"x_min":31,"x_max":369,"o":"m 31 631 l 146 856 l 217 811 l 46 619 l 31 631 m 158 632 l 307 836 l 369 782 l 174 618 l 158 632 z "},"ĭ":{"ha":349,"x_min":18,"x_max":329,"o":"m 82 0 l 82 14 q 101 22 93 14 q 115 42 110 31 q 124 66 121 53 q 126 90 126 79 l 126 475 q 119 520 126 499 q 79 543 113 542 l 79 556 l 218 600 l 218 90 q 221 66 218 79 q 229 42 224 53 q 243 22 235 31 q 263 14 251 14 l 263 0 l 82 0 m 329 772 q 318 724 329 750 q 287 677 307 699 q 238 642 267 656 q 175 628 210 628 q 113 641 142 628 q 64 675 85 654 q 31 722 43 696 q 18 772 18 747 l 26 772 q 35 749 28 764 q 60 719 43 735 q 104 693 76 704 q 174 682 132 682 q 244 693 217 682 q 288 719 271 704 q 311 749 304 735 q 321 772 318 764 l 329 772 z "},"ī":{"ha":349,"x_min":35,"x_max":313,"o":"m 82 0 l 82 14 q 101 22 93 14 q 115 42 110 31 q 124 66 121 53 q 126 90 126 79 l 126 475 q 119 520 126 499 q 79 543 113 542 l 79 556 l 218 600 l 218 90 q 221 66 218 79 q 229 42 224 53 q 243 22 235 31 q 263 14 251 14 l 263 0 l 82 0 m 35 714 l 313 714 l 313 658 l 35 658 l 35 714 z "},"į":{"ha":349,"x_min":69,"x_max":288,"o":"m 229 -172 q 285 -162 260 -172 l 288 -169 q 244 -186 269 -181 q 189 -192 218 -192 q 98 -169 126 -192 q 69 -115 69 -146 q 94 -51 69 -82 q 150 0 118 -21 l 82 0 l 82 14 q 101 22 93 14 q 115 42 110 31 q 124 66 121 53 q 126 90 126 79 l 126 475 q 119 520 126 499 q 79 543 113 542 l 79 556 l 218 600 l 218 90 q 221 66 218 79 q 230 42 224 53 q 244 22 236 31 q 263 14 251 14 l 263 0 l 196 0 q 154 -49 172 -21 q 136 -106 136 -78 q 156 -152 136 -132 q 229 -172 176 -172 m 89 733 q 108 781 89 761 q 154 800 126 800 q 201 781 182 800 q 221 733 221 761 q 201 688 221 706 q 154 669 182 669 q 108 688 126 669 q 89 733 89 706 z "},"ĩ":{"ha":349,"x_min":15,"x_max":332,"o":"m 82 0 l 82 14 q 101 22 93 14 q 115 42 110 31 q 124 66 121 53 q 126 90 126 79 l 126 475 q 119 520 126 499 q 79 543 113 542 l 79 556 l 218 600 l 218 90 q 221 66 218 79 q 229 42 224 53 q 243 22 235 31 q 263 14 251 14 l 263 0 l 82 0 m 332 733 q 299 651 315 671 q 254 632 283 632 q 217 640 238 632 q 174 659 196 649 q 130 678 151 669 q 90 688 108 688 q 55 672 69 688 q 22 632 40 657 l 15 633 q 60 716 35 692 q 114 740 86 740 q 150 732 131 740 q 188 713 169 724 q 226 694 207 703 q 263 686 246 686 q 300 701 285 686 q 326 735 315 715 l 332 733 z "},"ĵ":{"ha":290,"x_min":-32,"x_max":314,"o":"m 211 599 l 211 29 q 201 -50 211 -14 q 174 -117 190 -86 q 135 -172 157 -147 q 92 -215 114 -196 q -26 -289 39 -261 l -32 -276 q 43 -208 10 -250 q 95 -120 71 -174 q 119 8 119 -67 l 119 474 q 113 519 119 497 q 72 542 106 540 l 72 554 l 211 599 m 313 619 l 144 701 l -22 619 l -25 626 l 144 769 l 314 626 l 313 619 z "},"ĸ":{"ha":626,"x_min":72,"x_max":607,"o":"m 483 108 q 506 76 492 93 q 537 46 519 60 q 572 23 554 32 q 607 14 590 14 l 607 0 l 554 0 q 450 26 490 0 q 390 88 410 51 l 321 218 q 279 260 310 239 q 208 285 249 282 l 208 88 q 210 64 208 76 q 218 40 213 51 q 232 22 224 29 q 251 14 240 14 l 251 0 l 74 0 l 74 14 q 92 22 83 14 q 106 40 100 29 q 114 64 111 51 q 117 88 117 76 l 117 496 q 114 519 117 506 q 106 543 111 532 q 93 562 101 554 q 72 569 85 569 l 72 583 l 250 583 l 250 569 q 233 562 240 569 q 219 543 225 554 q 211 519 214 532 q 208 496 208 506 l 208 353 q 326 455 268 406 q 444 557 385 504 q 446 560 444 558 q 447 563 447 561 q 440 569 447 569 l 440 583 l 561 583 l 561 569 q 544 565 554 569 q 525 556 535 561 q 503 542 514 550 q 378 434 440 489 q 253 326 315 379 q 351 304 313 326 q 415 233 389 282 l 483 108 z "},"ĺ":{"ha":321,"x_min":26,"x_max":260,"o":"m 68 0 l 68 14 q 88 22 79 14 q 102 42 96 31 q 111 66 108 53 q 114 90 114 79 l 114 801 q 107 846 114 825 q 65 868 100 867 l 65 882 l 206 925 l 206 90 q 208 66 206 79 q 217 42 211 53 q 231 22 224 31 q 250 14 239 14 l 250 0 l 68 0 m 26 954 l 224 1103 l 260 1040 l 31 946 l 26 954 z "},"ľ":{"ha":415,"x_min":65,"x_max":415,"o":"m 68 0 l 68 14 q 88 22 79 14 q 102 42 96 31 q 111 66 108 53 q 114 90 114 79 l 114 801 q 107 846 114 825 q 65 868 100 867 l 65 882 l 206 925 l 206 90 q 208 66 206 79 q 217 42 211 53 q 231 22 224 31 q 250 14 239 14 l 250 0 l 68 0 m 338 921 q 397 894 378 921 q 415 831 415 867 q 410 783 415 808 q 388 732 404 758 q 342 680 372 706 q 264 632 313 654 l 256 644 q 299 690 283 671 q 324 726 315 710 q 334 756 332 742 q 336 785 336 769 q 330 801 336 796 q 314 813 324 807 q 292 828 303 819 q 281 861 281 838 q 297 904 281 888 q 338 921 314 921 z "},"ŀ":{"ha":374,"x_min":65,"x_max":374,"o":"m 68 0 l 68 14 q 88 22 79 14 q 102 42 96 31 q 111 66 108 53 q 114 90 114 79 l 114 801 q 107 846 114 825 q 65 868 100 867 l 65 882 l 206 925 l 206 90 q 208 66 206 79 q 217 42 211 53 q 231 22 224 31 q 250 14 239 14 l 250 0 l 68 0 m 242 267 q 260 314 242 294 q 307 333 279 333 q 354 314 335 333 q 374 267 374 294 q 354 220 374 239 q 307 201 335 201 q 260 220 279 201 q 242 267 242 239 z "},"≤":{"ha":649,"x_min":49,"x_max":593,"o":"m 49 544 l 49 619 l 593 836 l 593 753 l 149 582 l 593 411 l 593 328 l 49 544 m 49 185 l 49 258 l 593 258 l 593 185 l 49 185 z "},"₤":{"ha":646,"x_min":72,"x_max":568,"o":"m 325 431 q 292 235 319 318 q 231 107 265 151 q 263 117 246 113 q 296 122 281 122 q 342 112 319 122 q 389 89 365 101 q 429 67 408 76 q 474 58 450 58 q 556 110 511 58 l 568 101 q 506 22 542 49 q 425 -4 469 -4 q 376 5 400 -4 q 332 24 351 14 q 324 28 328 24 q 282 45 306 36 q 232 54 258 54 q 176 42 208 54 q 103 11 143 31 l 79 -3 l 72 11 q 151 88 115 33 q 208 215 182 132 q 236 431 233 297 l 129 431 l 129 476 l 236 476 l 236 536 l 129 536 l 129 583 l 236 583 l 236 696 q 282 864 236 804 q 396 924 328 924 q 450 914 428 924 q 488 894 472 904 q 515 882 507 882 l 515 781 l 501 781 q 459 851 486 828 q 408 874 432 874 q 351 834 376 874 q 326 715 326 794 l 326 583 l 483 583 l 483 536 l 326 536 l 326 476 l 482 476 l 482 431 l 325 431 z "},"◊":{"ha":496,"x_min":15,"x_max":478,"o":"m 247 -42 l 15 454 l 247 949 l 478 454 l 247 -42 m 247 806 l 85 454 l 247 104 l 410 454 l 247 806 z "},"ł":{"ha":325,"x_min":-3,"x_max":325,"o":"m -3 251 l 118 339 l 118 801 q 112 846 118 825 q 71 868 106 867 l 69 882 l 210 925 l 210 404 l 294 465 l 325 425 l 210 340 l 210 90 q 213 66 210 79 q 222 42 215 53 q 235 22 228 31 q 254 14 243 14 l 254 0 l 72 0 l 72 14 q 92 22 83 14 q 106 42 100 31 q 115 66 113 53 q 118 90 118 79 l 118 275 q 73 242 97 260 q 29 210 49 225 l -3 251 z "},"ń":{"ha":739,"x_min":61,"x_max":665,"o":"m 621 90 q 624 66 621 79 q 633 42 626 53 q 647 22 639 31 q 665 14 654 14 l 665 0 l 486 0 l 486 14 q 504 22 496 14 q 519 42 513 31 q 528 66 525 53 q 531 90 531 79 l 531 349 q 517 436 531 399 q 479 499 503 474 q 426 535 456 524 q 365 547 396 547 q 305 535 335 547 q 252 502 275 522 q 215 455 229 482 q 200 399 200 428 l 200 90 q 203 66 200 79 q 212 42 206 53 q 226 22 218 31 q 244 14 233 14 l 244 0 l 64 0 l 64 14 q 82 22 74 14 q 97 42 90 31 q 106 66 103 53 q 108 90 108 79 l 108 474 q 101 519 108 497 q 61 542 94 540 l 61 554 l 200 599 l 200 522 q 225 547 210 533 q 262 572 240 560 q 312 591 283 583 q 379 599 340 599 q 490 576 444 599 q 565 519 536 554 q 608 441 594 483 q 621 358 621 399 l 621 90 m 251 694 l 449 843 l 485 781 l 256 686 l 251 694 z "},"ŉ":{"ha":739,"x_min":63,"x_max":667,"o":"m 156 918 q 215 890 196 918 q 233 826 233 863 q 228 781 233 806 q 206 729 222 756 q 160 677 190 703 q 82 629 131 651 l 75 642 q 119 688 103 668 q 142 724 135 707 q 152 754 150 740 q 154 782 154 768 q 145 803 154 796 q 126 816 136 810 q 107 831 115 822 q 99 858 99 840 q 115 901 99 885 q 156 918 132 918 m 622 92 q 625 67 622 81 q 634 43 628 54 q 648 24 640 32 q 667 15 656 15 l 667 1 l 488 1 l 488 15 q 506 24 497 15 q 520 43 514 32 q 529 67 526 54 q 532 92 532 81 l 532 350 q 518 438 532 400 q 481 500 504 475 q 427 537 457 525 q 367 549 397 549 q 306 536 336 549 q 253 503 276 524 q 216 456 231 483 q 201 400 201 429 l 201 92 q 204 67 201 81 q 213 43 207 54 q 227 24 219 32 q 246 15 235 15 l 246 1 l 65 1 l 65 15 q 83 24 75 15 q 98 43 92 32 q 107 67 104 54 q 110 92 110 81 l 110 475 q 103 520 110 499 q 63 543 96 542 l 63 556 l 201 600 l 201 524 q 226 548 211 535 q 263 573 242 561 q 313 592 285 585 q 381 600 342 600 q 492 578 446 600 q 567 520 538 556 q 609 442 596 485 q 622 360 622 400 l 622 92 z "},"ň":{"ha":739,"x_min":61,"x_max":665,"o":"m 621 90 q 624 66 621 79 q 633 42 626 53 q 647 22 639 31 q 665 14 654 14 l 665 0 l 486 0 l 486 14 q 504 22 496 14 q 519 42 513 31 q 528 66 525 53 q 531 90 531 79 l 531 349 q 517 436 531 399 q 479 499 503 474 q 426 535 456 524 q 365 547 396 547 q 305 535 335 547 q 252 502 275 522 q 215 455 229 482 q 200 399 200 428 l 200 90 q 203 66 200 79 q 212 42 206 53 q 226 22 218 31 q 244 14 233 14 l 244 0 l 64 0 l 64 14 q 82 22 74 14 q 97 42 90 31 q 106 66 103 53 q 108 90 108 79 l 108 474 q 101 519 108 497 q 61 542 94 540 l 61 554 l 200 599 l 200 522 q 225 547 210 533 q 262 572 240 560 q 312 591 283 583 q 379 599 340 599 q 490 576 444 599 q 565 519 536 554 q 608 441 594 483 q 621 358 621 399 l 621 90 m 201 821 l 369 742 l 535 821 l 538 815 l 369 671 l 197 815 l 201 821 z "},"≠":{"ha":649,"x_min":49,"x_max":590,"o":"m 444 597 l 590 597 l 590 528 l 401 528 q 356 457 379 492 q 313 386 333 422 l 590 386 l 590 319 l 274 319 q 230 251 253 286 q 188 182 207 215 l 117 182 l 201 319 l 49 319 l 49 386 l 243 386 q 288 457 265 422 q 331 528 311 492 l 49 528 l 49 597 l 372 597 l 454 728 l 526 728 l 444 597 z "},"ŏ":{"ha":726,"x_min":51,"x_max":665,"o":"m 354 -10 q 229 13 285 -10 q 134 76 174 36 q 73 169 94 115 q 51 288 51 224 q 75 412 51 356 q 140 508 99 468 q 239 571 182 549 q 363 593 296 593 q 485 572 429 593 q 581 511 540 550 q 643 419 621 472 q 665 301 665 365 q 645 185 665 242 q 585 86 625 129 q 488 17 546 43 q 354 -10 431 -10 m 346 547 q 258 523 296 544 q 194 467 219 501 q 155 390 168 433 q 142 303 142 347 q 158 203 142 251 q 203 118 174 156 q 275 58 233 81 q 368 36 317 36 q 459 58 419 36 q 525 116 499 81 q 565 196 551 151 q 578 285 578 240 q 564 377 578 331 q 521 462 550 424 q 448 524 492 500 q 346 547 404 547 m 518 826 q 507 778 518 804 q 476 731 496 753 q 427 696 456 710 q 364 682 399 682 q 302 695 331 682 q 253 729 274 708 q 219 776 232 750 q 207 826 207 801 l 215 826 q 224 803 217 818 q 249 774 232 789 q 293 747 265 758 q 363 736 321 736 q 433 747 406 736 q 476 774 460 758 q 500 803 493 789 q 510 826 507 818 l 518 826 z "},"˛":{"ha":274,"x_min":36,"x_max":254,"o":"m 196 -172 q 251 -162 226 -172 l 254 -169 q 210 -186 236 -181 q 156 -192 185 -192 q 65 -169 93 -192 q 36 -115 36 -146 q 65 -47 36 -81 q 131 7 93 -14 l 172 7 q 123 -45 143 -15 q 103 -106 103 -75 q 123 -152 103 -132 q 196 -172 143 -172 z "},"ő":{"ha":726,"x_min":51,"x_max":665,"o":"m 354 -10 q 229 13 285 -10 q 134 76 174 36 q 73 169 94 115 q 51 288 51 224 q 75 412 51 356 q 140 508 99 468 q 239 571 182 549 q 363 593 296 593 q 485 572 429 593 q 581 511 540 550 q 643 419 621 472 q 665 301 665 365 q 645 185 665 242 q 585 86 625 129 q 488 17 546 43 q 354 -10 431 -10 m 346 547 q 258 523 296 544 q 194 467 219 501 q 155 390 168 433 q 142 303 142 347 q 158 203 142 251 q 203 118 174 156 q 275 58 233 81 q 368 36 317 36 q 459 58 419 36 q 525 116 499 81 q 565 196 551 151 q 578 285 578 240 q 564 377 578 331 q 521 462 550 424 q 448 524 492 500 q 346 547 404 547 m 193 650 l 308 875 l 379 831 l 208 639 l 193 650 m 321 651 l 469 856 l 532 801 l 336 638 l 321 651 z "},"ō":{"ha":726,"x_min":51,"x_max":665,"o":"m 354 -10 q 229 13 285 -10 q 134 76 174 36 q 73 169 94 115 q 51 288 51 224 q 75 412 51 356 q 140 508 99 468 q 239 571 182 549 q 363 593 296 593 q 485 572 429 593 q 581 511 540 550 q 643 419 621 472 q 665 301 665 365 q 645 185 665 242 q 585 86 625 129 q 488 17 546 43 q 354 -10 431 -10 m 346 547 q 258 523 296 544 q 194 467 219 501 q 155 390 168 433 q 142 303 142 347 q 158 203 142 251 q 203 118 174 156 q 275 58 233 81 q 368 36 317 36 q 459 58 419 36 q 525 116 499 81 q 565 196 551 151 q 578 285 578 240 q 564 377 578 331 q 521 462 550 424 q 448 524 492 500 q 346 547 404 547 m 224 713 l 501 713 l 501 657 l 224 657 l 224 713 z "}}}
